<?xml version="1.0" encoding="UTF-8"?>
<svg width="837px" height="399px" viewBox="0 0 837 399" version="1.1" xmlns="http://www.w3.org/2000/svg" xmlns:xlink="http://www.w3.org/1999/xlink">
    <title>Group</title>
    <g id="All-screens" stroke="none" stroke-width="1" fill="none" fill-rule="evenodd">
        <g id="3x2---Step-1" transform="translate(-514.000000, -148.000000)">
            <g id="Group" transform="translate(514.000000, 148.000000)">
                <rect id="Rectangle" fill="#FFFFFF" x="0" y="0" width="837" height="399" rx="7"></rect>
                <rect id="Rectangle" fill="#EBEBEB" x="381" y="281" width="243" height="46" rx="7"></rect>
                <rect id="Rectangle" fill="#FBFBFB" x="54" y="35" width="279.538462" height="292"></rect>
                <g id="image" opacity="0.0617646717" transform="translate(85.000000, 72.000000)" fill="#333333" fill-rule="nonzero">
                    <path d="M204.92,0 L13.08,0 C5.86856,0 0,5.86856 0,13.08 L0,204.92 C0,212.13144 5.86856,218 13.08,218 L204.92,218 C212.13144,218 218,212.13144 218,204.92 L218,13.08 C218,5.86856 212.13144,0 204.92,0 Z M209.28,204.92 C209.28,207.32236 207.32236,209.28 204.92,209.28 L13.08,209.28 C10.67764,209.28 8.72,207.32236 8.72,204.92 L8.72,184.64164 L51.37824,131.01364 C53.00452,128.97316 55.43304,127.7698 58.04032,127.72184 C60.64324,127.67824 63.11972,128.78132 64.82012,130.76076 L91.19376,161.50312 C92.11808,162.58004 93.50456,163.14248 94.91284,163.00296 C96.32548,162.8678 97.58116,162.0612 98.28312,160.83168 L143.39604,82.11188 C144.9264,79.44356 147.6732,77.8042 150.747,77.73008 C153.799,77.64724 156.64608,79.1558 158.30288,81.74564 L209.27128,161.31564 L209.27128,204.91564 L209.28,204.92 Z M209.28,145.15312 L165.65384,77.04556 C162.33588,71.86588 156.6766,68.86184 150.53772,69.0188 C144.39012,69.1714 138.89652,72.44576 135.8358,77.7824 L93.79232,151.14376 L71.4386,125.0884 C68.04216,121.12516 63.10228,118.91464 57.879,119.0062 C52.66008,119.10212 47.80304,121.50012 44.55484,125.58544 L8.72,170.63296 L8.72,13.08 C8.72,10.67764 10.67764,8.72 13.08,8.72 L204.92,8.72 C207.32236,8.72 209.28,10.67764 209.28,13.08 L209.28,145.15312 Z" id="Shape"></path>
                    <path d="M61,35 C46.6653333,35 35,46.6653333 35,61 C35,75.3346667 46.6653333,87 61,87 C75.3346667,87 87,75.3346667 87,61 C87,46.6653333 75.3346667,35 61,35 Z M61,78.3333333 C51.4406667,78.3333333 43.6666667,70.5593333 43.6666667,61 C43.6666667,51.4406667 51.4406667,43.6666667 61,43.6666667 C70.5593333,43.6666667 78.3333333,51.4406667 78.3333333,61 C78.3333333,70.5593333 70.5593333,78.3333333 61,78.3333333 Z" id="Shape"></path>
                </g>
                <line x1="385.843478" y1="67.5" x2="770.469565" y2="67.5" id="Line" stroke="#E0E0E0" stroke-width="5" stroke-linecap="square"></line>
                <line x1="385.843478" y1="86.5" x2="770.469565" y2="86.5" id="Line" stroke="#E0E0E0" stroke-width="5" stroke-linecap="square"></line>
                <line x1="385.843478" y1="105.5" x2="770.469565" y2="105.5" id="Line" stroke="#E0E0E0" stroke-width="5" stroke-linecap="square"></line>
                <line x1="385.530435" y1="124.5" x2="770.156522" y2="124.5" id="Line" stroke="#E0E0E0" stroke-width="5" stroke-linecap="square"></line>
                <line x1="385.843478" y1="169.5" x2="770.469565" y2="169.5" id="Line" stroke="#E0E0E0" stroke-width="5" stroke-linecap="square"></line>
                <line x1="385.530435" y1="188.5" x2="770.156522" y2="188.5" id="Line" stroke="#E0E0E0" stroke-width="5" stroke-linecap="square"></line>
                <g id="Buy-one,-Get-one" transform="translate(384.340000, 226.220000)" fill="#D5D5D5" fill-rule="nonzero">
                    <path d="M5.68434189e-14,21.78 L5.68434189e-14,0.54 L8.28,0.54 C10.08,0.54 11.615,0.98 12.885,1.86 C14.155,2.74 14.79,4.08 14.79,5.88 C14.79,7.04 14.46,8.02 13.8,8.82 C13.14,9.62 12.24,10.19 11.1,10.53 L11.1,10.59 C12.48,10.77 13.59,11.3 14.43,12.18 C15.27,13.06 15.69,14.2 15.69,15.6 C15.69,16.7 15.465,17.665 15.015,18.495 C14.565,19.325 13.95,19.97 13.17,20.43 C12.39,20.89 11.54,21.23 10.62,21.45 C9.7,21.67 8.71,21.78 7.65,21.78 L5.68434189e-14,21.78 Z M3.78,3.66 L3.78,9.18 L7.14,9.18 C8.4,9.18 9.36,8.93 10.02,8.43 C10.68,7.93 11.01,7.22 11.01,6.3 C11.01,5.36 10.67,4.685 9.99,4.275 C9.31,3.865 8.25,3.66 6.81,3.66 L3.78,3.66 Z M3.78,12.42 L3.78,18.6 L7.17,18.6 C10.33,18.6 11.91,17.54 11.91,15.42 C11.91,14.34 11.54,13.57 10.8,13.11 C10.06,12.65 8.9,12.42 7.32,12.42 L3.78,12.42 Z" id="Shape"></path>
                    <path d="M32.37,7.38 L32.37,21.78 L28.95,21.78 L28.95,19.47 L28.89,19.47 C28.55,20.23 27.975,20.875 27.165,21.405 C26.355,21.935 25.44,22.2 24.42,22.2 C22.66,22.2 21.335,21.635 20.445,20.505 C19.555,19.375 19.11,18 19.11,16.38 L19.11,7.38 L22.71,7.38 L22.71,15.36 C22.71,17.92 23.61,19.2 25.41,19.2 C26.49,19.2 27.32,18.815 27.9,18.045 C28.48,17.275 28.77,16.36 28.77,15.3 L28.77,7.38 L32.37,7.38 Z" id="Path"></path>
                    <path d="M40.71,21.78 L34.53,7.38 L38.52,7.38 L42.54,17.85 L42.6,17.85 L46.17,7.38 L49.92,7.38 L43.11,24.87 C42.55,26.29 41.875,27.33 41.085,27.99 C40.295,28.65 39.15,28.98 37.65,28.98 C36.99,28.98 36.37,28.91 35.79,28.77 L36.09,25.65 C36.53,25.79 36.98,25.86 37.44,25.86 C38.16,25.86 38.68,25.695 39,25.365 C39.32,25.035 39.65,24.45 39.99,23.61 L40.71,21.78 Z" id="Path"></path>
                    <path d="M58.74,14.52 C58.74,12.3 59.49,10.485 60.99,9.075 C62.49,7.665 64.35,6.96 66.57,6.96 C68.79,6.96 70.65,7.665 72.15,9.075 C73.65,10.485 74.4,12.3 74.4,14.52 C74.4,16.76 73.645,18.6 72.135,20.04 C70.625,21.48 68.77,22.2 66.57,22.2 C64.37,22.2 62.515,21.48 61.005,20.04 C59.495,18.6 58.74,16.76 58.74,14.52 Z M63.48,11.28 C62.76,12.2 62.4,13.28 62.4,14.52 C62.4,15.76 62.76,16.85 63.48,17.79 C64.2,18.73 65.23,19.2 66.57,19.2 C67.91,19.2 68.94,18.73 69.66,17.79 C70.38,16.85 70.74,15.76 70.74,14.52 C70.74,13.28 70.38,12.2 69.66,11.28 C68.94,10.36 67.91,9.9 66.57,9.9 C65.23,9.9 64.2,10.36 63.48,11.28 Z" id="Shape"></path>
                    <path d="M77.88,21.78 L77.88,7.38 L81.3,7.38 L81.3,9.69 L81.36,9.69 C81.7,8.93 82.275,8.285 83.085,7.755 C83.895,7.225 84.81,6.96 85.83,6.96 C87.59,6.96 88.915,7.525 89.805,8.655 C90.695,9.785 91.14,11.16 91.14,12.78 L91.14,21.78 L87.54,21.78 L87.54,13.8 C87.54,11.24 86.64,9.96 84.84,9.96 C83.76,9.96 82.93,10.345 82.35,11.115 C81.77,11.885 81.48,12.8 81.48,13.86 L81.48,21.78 L77.88,21.78 Z" id="Path"></path>
                    <path d="M98.1,13.14 L105.48,13.14 C105.48,12.14 105.19,11.31 104.61,10.65 C104.03,9.99 103.19,9.66 102.09,9.66 C101.03,9.66 100.12,9.99 99.36,10.65 C98.6,11.31 98.18,12.14 98.1,13.14 Z M109.08,14.76 C109.08,15.18 109.07,15.5 109.05,15.72 L98.1,15.72 C98.18,16.72 98.62,17.56 99.42,18.24 C100.22,18.92 101.15,19.26 102.21,19.26 C103.87,19.26 105.14,18.64 106.02,17.4 L108.42,19.32 C107,21.24 104.94,22.2 102.24,22.2 C99.98,22.2 98.125,21.52 96.675,20.16 C95.225,18.8 94.5,16.97 94.5,14.67 C94.5,12.37 95.22,10.51 96.66,9.09 C98.1,7.67 99.92,6.96 102.12,6.96 C104.2,6.96 105.88,7.63 107.16,8.97 C108.44,10.31 109.08,12.24 109.08,14.76 Z" id="Shape"></path>
                    <polygon id="Path" points="111.12 25.56 113.22 17.64 116.7 17.64 114.15 25.56"></polygon>
                    <path d="M145.74,9.66 L145.74,20.67 C143.44,21.77 140.77,22.32 137.73,22.32 C134.31,22.32 131.52,21.28 129.36,19.2 C127.2,17.12 126.12,14.42 126.12,11.1 C126.12,7.76 127.205,5.075 129.375,3.045 C131.545,1.015 134.3,0 137.64,0 C139.28,0 140.815,0.24 142.245,0.72 C143.675,1.2 144.83,1.85 145.71,2.67 L143.1,5.49 C142.54,4.87 141.77,4.355 140.79,3.945 C139.81,3.535 138.77,3.33 137.67,3.33 C135.47,3.33 133.69,4.07 132.33,5.55 C130.97,7.03 130.29,8.88 130.29,11.1 C130.29,13.4 130.975,15.28 132.345,16.74 C133.715,18.2 135.55,18.93 137.85,18.93 C139.47,18.93 140.88,18.68 142.08,18.18 L142.08,12.78 L137.61,12.78 L137.61,9.66 L145.74,9.66 Z" id="Path"></path>
                    <path d="M152.91,13.14 L160.29,13.14 C160.29,12.14 160,11.31 159.42,10.65 C158.84,9.99 158,9.66 156.9,9.66 C155.84,9.66 154.93,9.99 154.17,10.65 C153.41,11.31 152.99,12.14 152.91,13.14 Z M163.89,14.76 C163.89,15.18 163.88,15.5 163.86,15.72 L152.91,15.72 C152.99,16.72 153.43,17.56 154.23,18.24 C155.03,18.92 155.96,19.26 157.02,19.26 C158.68,19.26 159.95,18.64 160.83,17.4 L163.23,19.32 C161.81,21.24 159.75,22.2 157.05,22.2 C154.79,22.2 152.935,21.52 151.485,20.16 C150.035,18.8 149.31,16.97 149.31,14.67 C149.31,12.37 150.03,10.51 151.47,9.09 C152.91,7.67 154.73,6.96 156.93,6.96 C159.01,6.96 160.69,7.63 161.97,8.97 C163.25,10.31 163.89,12.24 163.89,14.76 Z" id="Shape"></path>
                    <path d="M167.82,10.26 L165.3,10.26 L165.3,7.38 L167.82,7.38 L167.82,3.21 L171.36,3.21 L171.36,7.38 L174.96,7.38 L174.96,10.26 L171.36,10.26 L171.36,16.95 C171.36,17.67 171.49,18.22 171.75,18.6 C172.01,18.98 172.51,19.17 173.25,19.17 C173.87,19.17 174.38,19.07 174.78,18.87 L174.9,21.69 C174.22,21.95 173.42,22.08 172.5,22.08 C170.74,22.08 169.52,21.625 168.84,20.715 C168.16,19.805 167.82,18.56 167.82,16.98 L167.82,10.26 Z" id="Path"></path>
                    <path d="M184.23,14.52 C184.23,12.3 184.98,10.485 186.48,9.075 C187.98,7.665 189.84,6.96 192.06,6.96 C194.28,6.96 196.14,7.665 197.64,9.075 C199.14,10.485 199.89,12.3 199.89,14.52 C199.89,16.76 199.135,18.6 197.625,20.04 C196.115,21.48 194.26,22.2 192.06,22.2 C189.86,22.2 188.005,21.48 186.495,20.04 C184.985,18.6 184.23,16.76 184.23,14.52 Z M188.97,11.28 C188.25,12.2 187.89,13.28 187.89,14.52 C187.89,15.76 188.25,16.85 188.97,17.79 C189.69,18.73 190.72,19.2 192.06,19.2 C193.4,19.2 194.43,18.73 195.15,17.79 C195.87,16.85 196.23,15.76 196.23,14.52 C196.23,13.28 195.87,12.2 195.15,11.28 C194.43,10.36 193.4,9.9 192.06,9.9 C190.72,9.9 189.69,10.36 188.97,11.28 Z" id="Shape"></path>
                    <path d="M203.37,21.78 L203.37,7.38 L206.79,7.38 L206.79,9.69 L206.85,9.69 C207.19,8.93 207.765,8.285 208.575,7.755 C209.385,7.225 210.3,6.96 211.32,6.96 C213.08,6.96 214.405,7.525 215.295,8.655 C216.185,9.785 216.63,11.16 216.63,12.78 L216.63,21.78 L213.03,21.78 L213.03,13.8 C213.03,11.24 212.13,9.96 210.33,9.96 C209.25,9.96 208.42,10.345 207.84,11.115 C207.26,11.885 206.97,12.8 206.97,13.86 L206.97,21.78 L203.37,21.78 Z" id="Path"></path>
                    <path d="M223.59,13.14 L230.97,13.14 C230.97,12.14 230.68,11.31 230.1,10.65 C229.52,9.99 228.68,9.66 227.58,9.66 C226.52,9.66 225.61,9.99 224.85,10.65 C224.09,11.31 223.67,12.14 223.59,13.14 Z M234.57,14.76 C234.57,15.18 234.56,15.5 234.54,15.72 L223.59,15.72 C223.67,16.72 224.11,17.56 224.91,18.24 C225.71,18.92 226.64,19.26 227.7,19.26 C229.36,19.26 230.63,18.64 231.51,17.4 L233.91,19.32 C232.49,21.24 230.43,22.2 227.73,22.2 C225.47,22.2 223.615,21.52 222.165,20.16 C220.715,18.8 219.99,16.97 219.99,14.67 C219.99,12.37 220.71,10.51 222.15,9.09 C223.59,7.67 225.41,6.96 227.61,6.96 C229.69,6.96 231.37,7.63 232.65,8.97 C233.93,10.31 234.57,12.24 234.57,14.76 Z" id="Shape"></path>
                </g>
            </g>
        </g>
    </g>
</svg>