<?xml version="1.0" encoding="UTF-8"?>
<svg width="677px" height="687px" viewBox="0 0 677 687" version="1.1" xmlns="http://www.w3.org/2000/svg" xmlns:xlink="http://www.w3.org/1999/xlink">
    <title>Group 5</title>
    <defs>
        <rect id="path-1" x="0" y="0" width="657" height="667" rx="7"></rect>
        <filter x="-2.4%" y="-2.1%" width="104.9%" height="104.8%" filterUnits="objectBoundingBox" id="filter-2">
            <feMorphology radius="1" operator="dilate" in="SourceAlpha" result="shadowSpreadOuter1"></feMorphology>
            <feOffset dx="0" dy="2" in="shadowSpreadOuter1" result="shadowOffsetOuter1"></feOffset>
            <feGaussianBlur stdDeviation="4" in="shadowOffsetOuter1" result="shadowBlurOuter1"></feGaussianBlur>
            <feColorMatrix values="0 0 0 0 0   0 0 0 0 0   0 0 0 0 0  0 0 0 0.092708561 0" type="matrix" in="shadowBlurOuter1"></feColorMatrix>
        </filter>
    </defs>
    <g id="All-screens" stroke="none" stroke-width="1" fill="none" fill-rule="evenodd">
        <g id="Step-1" transform="translate(-584.000000, -116.000000)">
            <g id="Group-5" transform="translate(594.000000, 124.000000)">
                <g id="Rectangle">
                    <use fill="black" fill-opacity="1" filter="url(#filter-2)" xlink:href="#path-1"></use>
                    <use fill="#FFFFFF" fill-rule="evenodd" xlink:href="#path-1"></use>
                </g>
                <rect id="Rectangle" fill="#FBFBFB" x="45" y="131" width="99" height="112"></rect>
                <g id="image" opacity="0.0617646717" transform="translate(57.000000, 147.000000)" fill="#333333" fill-rule="nonzero">
                    <path d="M72.38,0 L4.62,0 C2.07284,0 0,2.07284 0,4.62 L0,72.38 C0,74.92716 2.07284,77 4.62,77 L72.38,77 C74.92716,77 77,74.92716 77,72.38 L77,4.62 C77,2.07284 74.92716,0 72.38,0 Z M73.92,72.38 C73.92,73.22854 73.22854,73.92 72.38,73.92 L4.62,73.92 C3.77146,73.92 3.08,73.22854 3.08,72.38 L3.08,65.21746 L18.14736,46.27546 C18.72178,45.55474 19.57956,45.1297 20.50048,45.11276 C21.41986,45.09736 22.29458,45.48698 22.89518,46.18614 L32.21064,57.04468 C32.53712,57.42506 33.02684,57.62372 33.52426,57.57444 C34.02322,57.5267 34.46674,57.2418 34.71468,56.80752 L50.64906,29.00282 C51.1896,28.06034 52.1598,27.4813 53.2455,27.45512 C54.3235,27.42586 55.32912,27.9587 55.91432,28.87346 L73.91692,56.97846 L73.91692,72.37846 L73.92,72.38 Z M73.92,51.26968 L58.51076,27.21334 C57.33882,25.38382 55.3399,24.32276 53.17158,24.3782 C51.00018,24.4321 49.05978,25.58864 47.9787,27.4736 L33.12848,53.38564 L25.2329,44.1826 C24.03324,42.78274 22.28842,42.00196 20.4435,42.0343 C18.60012,42.06818 16.88456,42.91518 15.73726,44.35816 L3.08,60.26944 L3.08,4.62 C3.08,3.77146 3.77146,3.08 4.62,3.08 L72.38,3.08 C73.22854,3.08 73.92,3.77146 73.92,4.62 L73.92,51.26968 Z" id="Shape"></path>
                    <path d="M21.0546875,12.03125 C16.0797656,12.03125 12.03125,16.0797656 12.03125,21.0546875 C12.03125,26.0296094 16.0797656,30.078125 21.0546875,30.078125 C26.0296094,30.078125 30.078125,26.0296094 30.078125,21.0546875 C30.078125,16.0797656 26.0296094,12.03125 21.0546875,12.03125 Z M21.0546875,27.0703125 C17.7370703,27.0703125 15.0390625,24.3723047 15.0390625,21.0546875 C15.0390625,17.7370703 17.7370703,15.0390625 21.0546875,15.0390625 C24.3723047,15.0390625 27.0703125,17.7370703 27.0703125,21.0546875 C27.0703125,24.3723047 24.3723047,27.0703125 21.0546875,27.0703125 Z" id="Shape"></path>
                </g>
                <rect id="Rectangle" fill="#FBFBFB" x="45" y="269" width="99" height="112"></rect>
                <g id="image" opacity="0.0617646717" transform="translate(57.000000, 285.000000)" fill="#333333" fill-rule="nonzero">
                    <path d="M72.38,0 L4.62,0 C2.07284,0 0,2.07284 0,4.62 L0,72.38 C0,74.92716 2.07284,77 4.62,77 L72.38,77 C74.92716,77 77,74.92716 77,72.38 L77,4.62 C77,2.07284 74.92716,0 72.38,0 Z M73.92,72.38 C73.92,73.22854 73.22854,73.92 72.38,73.92 L4.62,73.92 C3.77146,73.92 3.08,73.22854 3.08,72.38 L3.08,65.21746 L18.14736,46.27546 C18.72178,45.55474 19.57956,45.1297 20.50048,45.11276 C21.41986,45.09736 22.29458,45.48698 22.89518,46.18614 L32.21064,57.04468 C32.53712,57.42506 33.02684,57.62372 33.52426,57.57444 C34.02322,57.5267 34.46674,57.2418 34.71468,56.80752 L50.64906,29.00282 C51.1896,28.06034 52.1598,27.4813 53.2455,27.45512 C54.3235,27.42586 55.32912,27.9587 55.91432,28.87346 L73.91692,56.97846 L73.91692,72.37846 L73.92,72.38 Z M73.92,51.26968 L58.51076,27.21334 C57.33882,25.38382 55.3399,24.32276 53.17158,24.3782 C51.00018,24.4321 49.05978,25.58864 47.9787,27.4736 L33.12848,53.38564 L25.2329,44.1826 C24.03324,42.78274 22.28842,42.00196 20.4435,42.0343 C18.60012,42.06818 16.88456,42.91518 15.73726,44.35816 L3.08,60.26944 L3.08,4.62 C3.08,3.77146 3.77146,3.08 4.62,3.08 L72.38,3.08 C73.22854,3.08 73.92,3.77146 73.92,4.62 L73.92,51.26968 Z" id="Shape"></path>
                    <path d="M21.0546875,12.03125 C16.0797656,12.03125 12.03125,16.0797656 12.03125,21.0546875 C12.03125,26.0296094 16.0797656,30.078125 21.0546875,30.078125 C26.0296094,30.078125 30.078125,26.0296094 30.078125,21.0546875 C30.078125,16.0797656 26.0296094,12.03125 21.0546875,12.03125 Z M21.0546875,27.0703125 C17.7370703,27.0703125 15.0390625,24.3723047 15.0390625,21.0546875 C15.0390625,17.7370703 17.7370703,15.0390625 21.0546875,15.0390625 C24.3723047,15.0390625 27.0703125,17.7370703 27.0703125,21.0546875 C27.0703125,24.3723047 24.3723047,27.0703125 21.0546875,27.0703125 Z" id="Shape"></path>
                </g>
                <line x1="180.670306" y1="153.5" x2="486.329694" y2="153.5" id="Line" stroke="#E0E0E0" stroke-width="5" stroke-linecap="square"></line>
                <line x1="180.670306" y1="180.5" x2="486.329694" y2="180.5" id="Line" stroke="#E0E0E0" stroke-width="5" stroke-linecap="square"></line>
                <line x1="180.670306" y1="209.5" x2="486.329694" y2="209.5" id="Line" stroke="#E0E0E0" stroke-width="5" stroke-linecap="square"></line>
                <line x1="534.168122" y1="156.5" x2="610.831878" y2="156.5" id="Line" stroke="#E0E0E0" stroke-width="5" stroke-linecap="square"></line>
                <line x1="534.168122" y1="180.5" x2="610.831878" y2="180.5" id="Line" stroke="#E0E0E0" stroke-width="5" stroke-linecap="square"></line>
                <line x1="534.168122" y1="206.5" x2="610.831878" y2="206.5" id="Line" stroke="#E0E0E0" stroke-width="5" stroke-linecap="square"></line>
                <line x1="534.168122" y1="300.5" x2="610.831878" y2="300.5" id="Line" stroke="#E0E0E0" stroke-width="5" stroke-linecap="square"></line>
                <line x1="534.168122" y1="324.5" x2="610.831878" y2="324.5" id="Line" stroke="#E0E0E0" stroke-width="5" stroke-linecap="square"></line>
                <line x1="534.168122" y1="350.5" x2="610.831878" y2="350.5" id="Line" stroke="#E0E0E0" stroke-width="5" stroke-linecap="square"></line>
                <line x1="179.670306" y1="300.5" x2="485.329694" y2="300.5" id="Line" stroke="#E0E0E0" stroke-width="5" stroke-linecap="square"></line>
                <line x1="45.6702687" y1="426.5" x2="610.400424" y2="426.5" id="Line" stroke="#E0E0E0" stroke-linecap="square"></line>
                <line x1="45.6702687" y1="522.5" x2="610.400424" y2="522.5" id="Line" stroke="#E0E0E0" stroke-linecap="square"></line>
                <line x1="179.670306" y1="324.5" x2="485.329694" y2="324.5" id="Line" stroke="#E0E0E0" stroke-width="5" stroke-linecap="square"></line>
                <line x1="179.670306" y1="350.5" x2="485.329694" y2="350.5" id="Line" stroke="#E0E0E0" stroke-width="5" stroke-linecap="square"></line>
                <line x1="408.443231" y1="458.969055" x2="610.556769" y2="458.969055" id="Line" stroke="#E0E0E0" stroke-width="5" stroke-linecap="square"></line>
                <line x1="408.443231" y1="474.838762" x2="610.556769" y2="474.838762" id="Line" stroke="#E0E0E0" stroke-width="5" stroke-linecap="square"></line>
                <line x1="408.443231" y1="492.030945" x2="610.556769" y2="492.030945" id="Line" stroke="#E0E0E0" stroke-width="5" stroke-linecap="square"></line>
                <line x1="408.443231" y1="548.969055" x2="610.556769" y2="548.969055" id="Line" stroke="#E0E0E0" stroke-width="5" stroke-linecap="square"></line>
                <g id="CART" transform="translate(284.760000, 53.960000)" fill="#E4E4E4" fill-rule="nonzero">
                    <path d="M25.64,4.32 L21.8,7.36 C21.1066667,6.4 20.1666667,5.67333333 18.98,5.18 C17.7933333,4.68666667 16.5866667,4.44 15.36,4.44 C12.48,4.44 10.1266667,5.42666667 8.3,7.4 C6.47333333,9.37333333 5.56,11.84 5.56,14.8 C5.56,17.8933333 6.43333333,20.4066667 8.18,22.34 C9.92666667,24.2733333 12.2533333,25.24 15.16,25.24 C18.1466667,25.24 20.44,24.1466667 22.04,21.96 L26.08,24.8 C23.44,28.1066667 19.7866667,29.76 15.12,29.76 C10.6933333,29.76 7.06666667,28.3666667 4.24,25.58 C1.41333333,22.7933333 0,19.2 0,14.8 C0,10.3466667 1.44666667,6.76666667 4.34,4.06 C7.23333333,1.35333333 10.9066667,0 15.36,0 C17.3333333,0 19.2733333,0.366666667 21.18,1.1 C23.0866667,1.83333333 24.5733333,2.90666667 25.64,4.32 Z" id="Path"></path>
                    <path d="M29.01,29.04 L41.33,0.72 L45.69,0.72 L57.89,29.04 L52.13,29.04 L49.49,22.56 L37.21,22.56 L34.65,29.04 L29.01,29.04 Z M38.93,18.24 L47.73,18.24 L43.37,6.72 L38.93,18.24 Z" id="Shape"></path>
                    <path d="M63.94,29.04 L63.94,0.72 L73.78,0.72 C75.6733333,0.72 77.3733333,0.966666667 78.88,1.46 C80.3866667,1.95333333 81.6533333,2.83333333 82.68,4.1 C83.7066667,5.36666667 84.22,6.94666667 84.22,8.84 C84.22,10.84 83.6466667,12.5 82.5,13.82 C81.3533333,15.14 79.7666667,16.0266667 77.74,16.48 L85.3,29.04 L79.22,29.04 L72.66,17.04 L68.98,17.04 L68.98,29.04 L63.94,29.04 Z M68.98,12.92 L73.1,12.92 C77.1533333,12.92 79.18,11.5466667 79.18,8.8 C79.18,7.41333333 78.6333333,6.42666667 77.54,5.84 C76.4466667,5.25333333 75.1133333,4.96 73.54,4.96 L68.98,4.96 L68.98,12.92 Z" id="Shape"></path>
                    <polygon id="Path" points="97.59 29.04 97.59 5.12 88.91 5.12 88.91 0.72 111.31 0.72 111.31 5.12 102.63 5.12 102.63 29.04"></polygon>
                </g>
            </g>
        </g>
    </g>
</svg>