<?xml version="1.0" encoding="UTF-8"?>
<svg width="845px" height="452px" viewBox="0 0 845 452" version="1.1" xmlns="http://www.w3.org/2000/svg" xmlns:xlink="http://www.w3.org/1999/xlink">
    <title>Group 2</title>
    <g id="All-screens" stroke="none" stroke-width="1" fill="none" fill-rule="evenodd">
        <g id="Step-1" transform="translate(-514.000000, -163.000000)">
            <g id="Group" transform="translate(514.000000, 163.000000)">
                <rect id="Rectangle" fill="#FFFFFF" x="0" y="0" width="845" height="452" rx="7"></rect>
                <line x1="65.4628821" y1="353.5" x2="276.537118" y2="353.5" id="Line" stroke="#E0E0E0" stroke-width="5" opacity="0.617492676" stroke-linecap="square"></line>
                <line x1="65.4628821" y1="372.5" x2="276.537118" y2="372.5" id="Line" stroke="#E0E0E0" stroke-width="5" opacity="0.617492676" stroke-linecap="square"></line>
                <line x1="65.4628821" y1="391.5" x2="276.537118" y2="391.5" id="Line" stroke="#E0E0E0" stroke-width="5" opacity="0.617492676" stroke-linecap="square"></line>
                <line x1="318.462882" y1="353.5" x2="529.537118" y2="353.5" id="Line" stroke="#E0E0E0" stroke-width="5" opacity="0.617492676" stroke-linecap="square"></line>
                <line x1="318.462882" y1="372.5" x2="529.537118" y2="372.5" id="Line" stroke="#E0E0E0" stroke-width="5" opacity="0.617492676" stroke-linecap="square"></line>
                <line x1="318.462882" y1="391.5" x2="529.537118" y2="391.5" id="Line" stroke="#E0E0E0" stroke-width="5" opacity="0.617492676" stroke-linecap="square"></line>
                <line x1="568.462882" y1="353.5" x2="779.537118" y2="353.5" id="Line" stroke="#E0E0E0" stroke-width="5" opacity="0.617492676" stroke-linecap="square"></line>
                <line x1="568.462882" y1="372.5" x2="779.537118" y2="372.5" id="Line" stroke="#E0E0E0" stroke-width="5" opacity="0.617492676" stroke-linecap="square"></line>
                <line x1="568.462882" y1="391.5" x2="779.537118" y2="391.5" id="Line" stroke="#E0E0E0" stroke-width="5" opacity="0.617492676" stroke-linecap="square"></line>
                <g id="Group-3" transform="translate(66.000000, 117.000000)">
                    <g id="Group-4">
                        <rect id="Rectangle" fill="#FBFBFB" x="0" y="0" width="214" height="207"></rect>
                        <g id="image" opacity="0.0617646717" transform="translate(24.000000, 27.000000)" fill="#333333" fill-rule="nonzero">
                            <path d="M156.98,0 L10.02,0 C4.49564,0 0,4.14568 0,9.24 L0,144.76 C0,149.85432 4.49564,154 10.02,154 L156.98,154 C162.50436,154 167,149.85432 167,144.76 L167,9.24 C167,4.14568 162.50436,0 156.98,0 Z M160.32,144.76 C160.32,146.45708 158.82034,147.84 156.98,147.84 L10.02,147.84 C8.17966,147.84 6.68,146.45708 6.68,144.76 L6.68,130.43492 L39.35856,92.55092 C40.60438,91.10948 42.46476,90.2594 44.46208,90.22552 C46.45606,90.19472 48.35318,90.97396 49.65578,92.37228 L69.85944,114.08936 C70.56752,114.85012 71.62964,115.24744 72.70846,115.14888 C73.79062,115.0534 74.75254,114.4836 75.29028,113.61504 L109.84926,58.00564 C111.0216,56.12068 113.1258,54.9626 115.4805,54.91024 C117.8185,54.85172 119.99952,55.9174 121.26872,57.74692 L160.31332,113.95692 L160.31332,144.75692 L160.32,144.76 Z M160.32,102.53936 L126.89996,54.42668 C124.35822,50.76764 120.0229,48.64552 115.32018,48.7564 C110.61078,48.8642 106.40238,51.17728 104.0577,54.9472 L71.85008,106.77128 L54.7259,88.3652 C52.12404,85.56548 48.33982,84.00392 44.3385,84.0686 C40.34052,84.13636 36.61976,85.83036 34.13146,88.71632 L6.68,120.53888 L6.68,9.24 C6.68,7.54292 8.17966,6.16 10.02,6.16 L156.98,6.16 C158.82034,6.16 160.32,7.54292 160.32,9.24 L160.32,102.53936 Z" id="Shape"></path>
                            <path d="M46.7293578,24.7247706 C35.7482141,24.7247706 26.8119266,32.965419 26.8119266,43.0917431 C26.8119266,53.2180673 35.7482141,61.4587156 46.7293578,61.4587156 C57.7105015,61.4587156 66.646789,53.2180673 66.646789,43.0917431 C66.646789,32.965419 57.7105015,24.7247706 46.7293578,24.7247706 Z M46.7293578,55.3363914 C39.4063823,55.3363914 33.4510703,49.8446667 33.4510703,43.0917431 C33.4510703,36.3388196 39.4063823,30.8470948 46.7293578,30.8470948 C54.0523333,30.8470948 60.0076453,36.3388196 60.0076453,43.0917431 C60.0076453,49.8446667 54.0523333,55.3363914 46.7293578,55.3363914 Z" id="Shape"></path>
                        </g>
                    </g>
                    <g id="Group-4" transform="translate(250.000000, 0.000000)">
                        <rect id="Rectangle" fill="#FBFBFB" x="0" y="0" width="214" height="207"></rect>
                        <g id="image" opacity="0.0617646717" transform="translate(24.000000, 27.000000)" fill="#333333" fill-rule="nonzero">
                            <path d="M156.98,0 L10.02,0 C4.49564,0 0,4.14568 0,9.24 L0,144.76 C0,149.85432 4.49564,154 10.02,154 L156.98,154 C162.50436,154 167,149.85432 167,144.76 L167,9.24 C167,4.14568 162.50436,0 156.98,0 Z M160.32,144.76 C160.32,146.45708 158.82034,147.84 156.98,147.84 L10.02,147.84 C8.17966,147.84 6.68,146.45708 6.68,144.76 L6.68,130.43492 L39.35856,92.55092 C40.60438,91.10948 42.46476,90.2594 44.46208,90.22552 C46.45606,90.19472 48.35318,90.97396 49.65578,92.37228 L69.85944,114.08936 C70.56752,114.85012 71.62964,115.24744 72.70846,115.14888 C73.79062,115.0534 74.75254,114.4836 75.29028,113.61504 L109.84926,58.00564 C111.0216,56.12068 113.1258,54.9626 115.4805,54.91024 C117.8185,54.85172 119.99952,55.9174 121.26872,57.74692 L160.31332,113.95692 L160.31332,144.75692 L160.32,144.76 Z M160.32,102.53936 L126.89996,54.42668 C124.35822,50.76764 120.0229,48.64552 115.32018,48.7564 C110.61078,48.8642 106.40238,51.17728 104.0577,54.9472 L71.85008,106.77128 L54.7259,88.3652 C52.12404,85.56548 48.33982,84.00392 44.3385,84.0686 C40.34052,84.13636 36.61976,85.83036 34.13146,88.71632 L6.68,120.53888 L6.68,9.24 C6.68,7.54292 8.17966,6.16 10.02,6.16 L156.98,6.16 C158.82034,6.16 160.32,7.54292 160.32,9.24 L160.32,102.53936 Z" id="Shape"></path>
                            <path d="M46.7293578,24.7247706 C35.7482141,24.7247706 26.8119266,32.965419 26.8119266,43.0917431 C26.8119266,53.2180673 35.7482141,61.4587156 46.7293578,61.4587156 C57.7105015,61.4587156 66.646789,53.2180673 66.646789,43.0917431 C66.646789,32.965419 57.7105015,24.7247706 46.7293578,24.7247706 Z M46.7293578,55.3363914 C39.4063823,55.3363914 33.4510703,49.8446667 33.4510703,43.0917431 C33.4510703,36.3388196 39.4063823,30.8470948 46.7293578,30.8470948 C54.0523333,30.8470948 60.0076453,36.3388196 60.0076453,43.0917431 C60.0076453,49.8446667 54.0523333,55.3363914 46.7293578,55.3363914 Z" id="Shape"></path>
                        </g>
                    </g>
                    <g id="Group-4" transform="translate(500.000000, 0.000000)">
                        <rect id="Rectangle" fill="#FBFBFB" x="0" y="0" width="214" height="207"></rect>
                        <g id="image" opacity="0.0617646717" transform="translate(24.000000, 27.000000)" fill="#333333" fill-rule="nonzero">
                            <path d="M156.98,0 L10.02,0 C4.49564,0 0,4.14568 0,9.24 L0,144.76 C0,149.85432 4.49564,154 10.02,154 L156.98,154 C162.50436,154 167,149.85432 167,144.76 L167,9.24 C167,4.14568 162.50436,0 156.98,0 Z M160.32,144.76 C160.32,146.45708 158.82034,147.84 156.98,147.84 L10.02,147.84 C8.17966,147.84 6.68,146.45708 6.68,144.76 L6.68,130.43492 L39.35856,92.55092 C40.60438,91.10948 42.46476,90.2594 44.46208,90.22552 C46.45606,90.19472 48.35318,90.97396 49.65578,92.37228 L69.85944,114.08936 C70.56752,114.85012 71.62964,115.24744 72.70846,115.14888 C73.79062,115.0534 74.75254,114.4836 75.29028,113.61504 L109.84926,58.00564 C111.0216,56.12068 113.1258,54.9626 115.4805,54.91024 C117.8185,54.85172 119.99952,55.9174 121.26872,57.74692 L160.31332,113.95692 L160.31332,144.75692 L160.32,144.76 Z M160.32,102.53936 L126.89996,54.42668 C124.35822,50.76764 120.0229,48.64552 115.32018,48.7564 C110.61078,48.8642 106.40238,51.17728 104.0577,54.9472 L71.85008,106.77128 L54.7259,88.3652 C52.12404,85.56548 48.33982,84.00392 44.3385,84.0686 C40.34052,84.13636 36.61976,85.83036 34.13146,88.71632 L6.68,120.53888 L6.68,9.24 C6.68,7.54292 8.17966,6.16 10.02,6.16 L156.98,6.16 C158.82034,6.16 160.32,7.54292 160.32,9.24 L160.32,102.53936 Z" id="Shape"></path>
                            <path d="M46.7293578,24.7247706 C35.7482141,24.7247706 26.8119266,32.965419 26.8119266,43.0917431 C26.8119266,53.2180673 35.7482141,61.4587156 46.7293578,61.4587156 C57.7105015,61.4587156 66.646789,53.2180673 66.646789,43.0917431 C66.646789,32.965419 57.7105015,24.7247706 46.7293578,24.7247706 Z M46.7293578,55.3363914 C39.4063823,55.3363914 33.4510703,49.8446667 33.4510703,43.0917431 C33.4510703,36.3388196 39.4063823,30.8470948 46.7293578,30.8470948 C54.0523333,30.8470948 60.0076453,36.3388196 60.0076453,43.0917431 C60.0076453,49.8446667 54.0523333,55.3363914 46.7293578,55.3363914 Z" id="Shape"></path>
                        </g>
                    </g>
                </g>
                <g id="CATEGORY-DISCOUNT" transform="translate(289.164000, 42.552000)" fill="#D5D5D5" fill-rule="nonzero">
                    <path d="M15.744,15.096 C14.128,16.968 11.928,17.904 9.144,17.904 C6.504,17.904 4.32,17.068 2.592,15.396 C0.864,13.724 -5.68434189e-14,11.568 -5.68434189e-14,8.928 C-5.68434189e-14,6.256 0.876,4.1 2.628,2.46 C4.38,0.82 6.576,0 9.216,0 C10.448,0 11.644,0.22 12.804,0.66 C13.964,1.1 14.888,1.712 15.576,2.496 L12.792,5.28 C12.424,4.768 11.932,4.38 11.316,4.116 C10.7,3.852 10.048,3.72 9.36,3.72 C7.936,3.72 6.764,4.212 5.844,5.196 C4.924,6.18 4.464,7.424 4.464,8.928 C4.464,10.464 4.912,11.716 5.808,12.684 C6.704,13.652 7.864,14.136 9.288,14.136 C10.872,14.136 12.072,13.56 12.888,12.408 L15.744,15.096 Z" id="Path"></path>
                    <path d="M33.896,17.448 L29.336,17.448 L28.016,14.112 L21.44,14.112 L20.192,17.448 L15.728,17.448 L22.856,0.456 L26.84,0.456 L33.896,17.448 Z M26.888,10.824 L24.776,4.992 L22.616,10.824 L26.888,10.824 Z" id="Shape"></path>
                    <polygon id="Path" points="46.264 3.96 41.464 3.96 41.464 17.448 37.36 17.448 37.36 3.96 32.56 3.96 32.56 0.456 46.264 0.456"></polygon>
                    <polygon id="Path" points="60.312 17.448 48.456 17.448 48.456 0.456 59.88 0.456 59.88 3.936 52.416 3.936 52.416 7.128 59.472 7.128 59.472 10.416 52.416 10.416 52.416 13.944 60.312 13.944"></polygon>
                    <path d="M78.44,16.416 C76.568,17.392 74.384,17.88 71.888,17.88 C69.152,17.88 66.912,17.052 65.168,15.396 C63.424,13.74 62.552,11.584 62.552,8.928 C62.552,6.256 63.428,4.1 65.18,2.46 C66.932,0.82 69.128,0 71.768,0 C73.08,0 74.32,0.204 75.488,0.612 C76.656,1.02 77.6,1.568 78.32,2.256 L75.728,5.208 C74.816,4.152 73.544,3.624 71.912,3.624 C70.472,3.624 69.28,4.128 68.336,5.136 C67.392,6.144 66.92,7.408 66.92,8.928 C66.92,10.528 67.376,11.82 68.288,12.804 C69.2,13.788 70.472,14.28 72.104,14.28 C73.112,14.28 73.968,14.128 74.672,13.824 L74.672,10.728 L71.432,10.728 L71.432,7.416 L78.44,7.416 L78.44,16.416 Z" id="Path"></path>
                    <path d="M99.832,8.88 C99.832,11.552 98.96,13.724 97.216,15.396 C95.472,17.068 93.256,17.904 90.568,17.904 C87.896,17.904 85.688,17.068 83.944,15.396 C82.2,13.724 81.328,11.552 81.328,8.88 C81.328,6.192 82.196,4.04 83.932,2.424 C85.668,0.808 87.88,0 90.568,0 C93.272,0 95.492,0.808 97.228,2.424 C98.964,4.04 99.832,6.192 99.832,8.88 Z M95.44,8.88 C95.44,7.376 94.984,6.136 94.072,5.16 C93.16,4.184 91.992,3.696 90.568,3.696 C89.144,3.696 87.98,4.184 87.076,5.16 C86.172,6.136 85.72,7.376 85.72,8.88 C85.72,10.416 86.172,11.68 87.076,12.672 C87.98,13.664 89.144,14.16 90.568,14.16 C91.992,14.16 93.16,13.664 94.072,12.672 C94.984,11.68 95.44,10.416 95.44,8.88 Z" id="Shape"></path>
                    <path d="M116.76,17.448 L111.96,17.448 L108.288,10.704 L106.896,10.704 L106.896,17.448 L102.864,17.448 L102.864,0.456 L109.344,0.456 C110.208,0.456 111.008,0.544 111.744,0.72 C112.48,0.896 113.168,1.176 113.808,1.56 C114.448,1.944 114.948,2.48 115.308,3.168 C115.668,3.856 115.848,4.664 115.848,5.592 C115.848,6.712 115.536,7.672 114.912,8.472 C114.288,9.272 113.424,9.84 112.32,10.176 L116.76,17.448 Z M111.792,5.664 C111.792,4.4 110.88,3.768 109.056,3.768 L106.872,3.768 L106.872,7.728 L108.816,7.728 C110.8,7.728 111.792,7.04 111.792,5.664 Z" id="Shape"></path>
                    <polygon id="Path" points="133.64 0.456 127.112 10.248 127.112 17.448 123.008 17.448 123.008 10.248 116.624 0.456 121.592 0.456 125.216 6.744 128.84 0.456"></polygon>
                    <path d="M156.84,8.904 C156.84,10.344 156.568,11.624 156.024,12.744 C155.48,13.864 154.748,14.76 153.828,15.432 C152.908,16.104 151.896,16.608 150.792,16.944 C149.688,17.28 148.528,17.448 147.312,17.448 L140.976,17.448 L140.976,0.456 L147.12,0.456 C148.128,0.456 149.084,0.54 149.988,0.708 C150.892,0.876 151.768,1.168 152.616,1.584 C153.464,2 154.196,2.52 154.812,3.144 C155.428,3.768 155.92,4.572 156.288,5.556 C156.656,6.54 156.84,7.656 156.84,8.904 Z M152.568,8.904 C152.568,7.992 152.416,7.204 152.112,6.54 C151.808,5.876 151.388,5.36 150.852,4.992 C150.316,4.624 149.732,4.36 149.1,4.2 C148.468,4.04 147.776,3.96 147.024,3.96 L144.984,3.96 L144.984,13.896 L146.928,13.896 C148.576,13.896 149.928,13.504 150.984,12.72 C152.04,11.936 152.568,10.664 152.568,8.904 Z" id="Shape"></path>
                    <polygon id="Path" points="164 17.448 159.872 17.448 159.872 0.456 164 0.456"></polygon>
                    <path d="M179.416,2.112 L176.8,4.872 C176.464,4.44 176.012,4.088 175.444,3.816 C174.876,3.544 174.32,3.408 173.776,3.408 C173.136,3.408 172.58,3.54 172.108,3.804 C171.636,4.068 171.4,4.504 171.4,5.112 C171.4,5.384 171.456,5.62 171.568,5.82 C171.68,6.02 171.868,6.196 172.132,6.348 C172.396,6.5 172.656,6.628 172.912,6.732 C173.168,6.836 173.536,6.96 174.016,7.104 C174.64,7.312 175.128,7.48 175.48,7.608 C175.832,7.736 176.284,7.948 176.836,8.244 C177.388,8.54 177.816,8.848 178.12,9.168 C178.424,9.488 178.696,9.916 178.936,10.452 C179.176,10.988 179.296,11.576 179.296,12.216 C179.296,14.056 178.668,15.46 177.412,16.428 C176.156,17.396 174.616,17.88 172.792,17.88 C171.56,17.88 170.376,17.664 169.24,17.232 C168.104,16.8 167.168,16.2 166.432,15.432 L169.12,12.696 C169.536,13.224 170.084,13.656 170.764,13.992 C171.444,14.328 172.12,14.496 172.792,14.496 C173.48,14.496 174.044,14.348 174.484,14.052 C174.924,13.756 175.144,13.288 175.144,12.648 C175.144,12.392 175.084,12.164 174.964,11.964 C174.844,11.764 174.712,11.596 174.568,11.46 C174.424,11.324 174.168,11.176 173.8,11.016 C173.432,10.856 173.12,10.732 172.864,10.644 C172.608,10.556 172.192,10.416 171.616,10.224 C170.992,10.016 170.456,9.8 170.008,9.576 C169.56,9.352 169.112,9.056 168.664,8.688 C168.216,8.32 167.872,7.856 167.632,7.296 C167.392,6.736 167.272,6.088 167.272,5.352 C167.272,4.456 167.464,3.652 167.848,2.94 C168.232,2.228 168.744,1.668 169.384,1.26 C170.024,0.852 170.724,0.544 171.484,0.336 C172.244,0.128 173.032,0.024 173.848,0.024 C174.84,0.024 175.836,0.204 176.836,0.564 C177.836,0.924 178.696,1.44 179.416,2.112 Z" id="Path"></path>
                    <path d="M197.28,15.096 C195.664,16.968 193.464,17.904 190.68,17.904 C188.04,17.904 185.856,17.068 184.128,15.396 C182.4,13.724 181.536,11.568 181.536,8.928 C181.536,6.256 182.412,4.1 184.164,2.46 C185.916,0.82 188.112,0 190.752,0 C191.984,0 193.18,0.22 194.34,0.66 C195.5,1.1 196.424,1.712 197.112,2.496 L194.328,5.28 C193.96,4.768 193.468,4.38 192.852,4.116 C192.236,3.852 191.584,3.72 190.896,3.72 C189.472,3.72 188.3,4.212 187.38,5.196 C186.46,6.18 186,7.424 186,8.928 C186,10.464 186.448,11.716 187.344,12.684 C188.24,13.652 189.4,14.136 190.824,14.136 C192.408,14.136 193.608,13.56 194.424,12.408 L197.28,15.096 Z" id="Path"></path>
                    <path d="M216.776,8.88 C216.776,11.552 215.904,13.724 214.16,15.396 C212.416,17.068 210.2,17.904 207.512,17.904 C204.84,17.904 202.632,17.068 200.888,15.396 C199.144,13.724 198.272,11.552 198.272,8.88 C198.272,6.192 199.14,4.04 200.876,2.424 C202.612,0.808 204.824,0 207.512,0 C210.216,0 212.436,0.808 214.172,2.424 C215.908,4.04 216.776,6.192 216.776,8.88 Z M212.384,8.88 C212.384,7.376 211.928,6.136 211.016,5.16 C210.104,4.184 208.936,3.696 207.512,3.696 C206.088,3.696 204.924,4.184 204.02,5.16 C203.116,6.136 202.664,7.376 202.664,8.88 C202.664,10.416 203.116,11.68 204.02,12.672 C204.924,13.664 206.088,14.16 207.512,14.16 C208.936,14.16 210.104,13.664 211.016,12.672 C211.928,11.68 212.384,10.416 212.384,8.88 Z" id="Shape"></path>
                    <path d="M234.208,11.04 C234.208,13.088 233.54,14.744 232.204,16.008 C230.868,17.272 229.096,17.904 226.888,17.904 C224.68,17.904 222.92,17.276 221.608,16.02 C220.296,14.764 219.64,13.104 219.64,11.04 L219.64,0.456 L223.72,0.456 L223.72,10.704 C223.72,11.712 223.984,12.548 224.512,13.212 C225.04,13.876 225.84,14.208 226.912,14.208 C228,14.208 228.804,13.876 229.324,13.212 C229.844,12.548 230.104,11.712 230.104,10.704 L230.104,0.456 L234.208,0.456 L234.208,11.04 Z" id="Path"></path>
                    <polygon id="Path" points="253.296 17.448 248.64 17.448 241.8 6.336 241.728 6.336 241.824 17.448 237.84 17.448 237.84 0.456 242.52 0.456 249.336 11.544 249.408 11.544 249.312 0.456 253.296 0.456"></polygon>
                    <polygon id="Path" points="269.192 3.96 264.392 3.96 264.392 17.448 260.288 17.448 260.288 3.96 255.488 3.96 255.488 0.456 269.192 0.456"></polygon>
                </g>
            </g>
        </g>
    </g>
</svg>