<?xml version="1.0" encoding="UTF-8"?>
<svg width="677px" height="687px" viewBox="0 0 677 687" version="1.1" xmlns="http://www.w3.org/2000/svg" xmlns:xlink="http://www.w3.org/1999/xlink">
    <title>Group 5</title>
    <defs>
        <rect id="path-1" x="0" y="0" width="657" height="667" rx="7"></rect>
        <filter x="-2.4%" y="-2.1%" width="104.9%" height="104.8%" filterUnits="objectBoundingBox" id="filter-2">
            <feMorphology radius="1" operator="dilate" in="SourceAlpha" result="shadowSpreadOuter1"></feMorphology>
            <feOffset dx="0" dy="2" in="shadowSpreadOuter1" result="shadowOffsetOuter1"></feOffset>
            <feGaussianBlur stdDeviation="4" in="shadowOffsetOuter1" result="shadowBlurOuter1"></feGaussianBlur>
            <feColorMatrix values="0 0 0 0 0   0 0 0 0 0   0 0 0 0 0  0 0 0 0.092708561 0" type="matrix" in="shadowBlurOuter1"></feColorMatrix>
        </filter>
    </defs>
    <g id="All-screens" stroke="none" stroke-width="1" fill="none" fill-rule="evenodd">
        <g id="Step-1" transform="translate(-584.000000, -116.000000)">
            <g id="Group-5" transform="translate(594.000000, 124.000000)">
                <g id="Rectangle">
                    <use fill="black" fill-opacity="1" filter="url(#filter-2)" xlink:href="#path-1"></use>
                    <use fill="#FFFFFF" fill-rule="evenodd" xlink:href="#path-1"></use>
                </g>
                <rect id="Rectangle" fill="#FBFBFB" x="45" y="131" width="569" height="100"></rect>
                <g id="free-shipping" transform="translate(220.000000, 153.000000)" stroke="#BFBFBF" stroke-width="3">
                    <g id="Group">
                        <path d="M0,26.7391304 L0,32.2540761 C0,33.6378261 1.1904,34.7608696 2.65714286,34.7608696 L10.6285714,34.7608696" id="Path"></path>
                        <path d="M0,5.79347826 L0,2.63339921 C0,1.17976285 1.17967568,0 2.63320463,0 L36.3382239,0 C37.7917529,0 38.9714286,1.17976285 38.9714286,2.63339921 L38.9714286,32.1274704 C38.9714286,33.5811067 37.7917529,34.7608696 36.3382239,34.7608696 L23.1722008,34.7608696" id="Path"></path>
                        <ellipse id="Oval" cx="16.8285714" cy="34.7608696" rx="6.2" ry="6.23913043"></ellipse>
                        <ellipse id="Oval" cx="50.4857143" cy="34.7608696" rx="6.2" ry="6.23913043"></ellipse>
                        <line x1="33.6571429" y1="34.7663043" x2="44.2857143" y2="34.7663043" id="Path"></line>
                        <path d="M56.7662338,34.7608696 L59.3831169,34.7608696 C60.8276364,34.7608696 62,33.602887 62,32.176087 L62,22.3254804 C62,21.6792848 61.754013,21.0563522 61.3117597,20.5781674 L51.2629286,9.75051304 C50.7683377,9.21546304 50.067013,8.91304348 49.3342857,8.91304348 L38.9714286,8.91304348" id="Path"></path>
                        <path d="M62,21.3913043 L48.7142857,21.3913043 C47.2475429,21.3913043 46.0571429,20.1712077 46.0571429,18.6678744 L46.0571429,11.5869565" id="Path"></path>
                    </g>
                </g>
                <rect id="Rectangle" fill="#FBFBFB" x="45" y="269" width="99" height="112"></rect>
                <g id="image" opacity="0.0617646717" transform="translate(57.000000, 285.000000)" fill="#333333" fill-rule="nonzero">
                    <path d="M72.38,0 L4.62,0 C2.07284,0 0,2.07284 0,4.62 L0,72.38 C0,74.92716 2.07284,77 4.62,77 L72.38,77 C74.92716,77 77,74.92716 77,72.38 L77,4.62 C77,2.07284 74.92716,0 72.38,0 Z M73.92,72.38 C73.92,73.22854 73.22854,73.92 72.38,73.92 L4.62,73.92 C3.77146,73.92 3.08,73.22854 3.08,72.38 L3.08,65.21746 L18.14736,46.27546 C18.72178,45.55474 19.57956,45.1297 20.50048,45.11276 C21.41986,45.09736 22.29458,45.48698 22.89518,46.18614 L32.21064,57.04468 C32.53712,57.42506 33.02684,57.62372 33.52426,57.57444 C34.02322,57.5267 34.46674,57.2418 34.71468,56.80752 L50.64906,29.00282 C51.1896,28.06034 52.1598,27.4813 53.2455,27.45512 C54.3235,27.42586 55.32912,27.9587 55.91432,28.87346 L73.91692,56.97846 L73.91692,72.37846 L73.92,72.38 Z M73.92,51.26968 L58.51076,27.21334 C57.33882,25.38382 55.3399,24.32276 53.17158,24.3782 C51.00018,24.4321 49.05978,25.58864 47.9787,27.4736 L33.12848,53.38564 L25.2329,44.1826 C24.03324,42.78274 22.28842,42.00196 20.4435,42.0343 C18.60012,42.06818 16.88456,42.91518 15.73726,44.35816 L3.08,60.26944 L3.08,4.62 C3.08,3.77146 3.77146,3.08 4.62,3.08 L72.38,3.08 C73.22854,3.08 73.92,3.77146 73.92,4.62 L73.92,51.26968 Z" id="Shape"></path>
                    <path d="M21.0546875,12.03125 C16.0797656,12.03125 12.03125,16.0797656 12.03125,21.0546875 C12.03125,26.0296094 16.0797656,30.078125 21.0546875,30.078125 C26.0296094,30.078125 30.078125,26.0296094 30.078125,21.0546875 C30.078125,16.0797656 26.0296094,12.03125 21.0546875,12.03125 Z M21.0546875,27.0703125 C17.7370703,27.0703125 15.0390625,24.3723047 15.0390625,21.0546875 C15.0390625,17.7370703 17.7370703,15.0390625 21.0546875,15.0390625 C24.3723047,15.0390625 27.0703125,17.7370703 27.0703125,21.0546875 C27.0703125,24.3723047 24.3723047,27.0703125 21.0546875,27.0703125 Z" id="Shape"></path>
                </g>
                <line x1="534.168122" y1="300.5" x2="610.831878" y2="300.5" id="Line" stroke="#E0E0E0" stroke-width="5" stroke-linecap="square"></line>
                <line x1="534.168122" y1="324.5" x2="610.831878" y2="324.5" id="Line" stroke="#E0E0E0" stroke-width="5" stroke-linecap="square"></line>
                <line x1="534.168122" y1="350.5" x2="610.831878" y2="350.5" id="Line" stroke="#E0E0E0" stroke-width="5" stroke-linecap="square"></line>
                <line x1="179.670306" y1="300.5" x2="485.329694" y2="300.5" id="Line" stroke="#E0E0E0" stroke-width="5" stroke-linecap="square"></line>
                <line x1="45.6702687" y1="426.5" x2="610.400424" y2="426.5" id="Line" stroke="#E0E0E0" stroke-linecap="square"></line>
                <line x1="45.6702687" y1="522.5" x2="610.400424" y2="522.5" id="Line" stroke="#E0E0E0" stroke-linecap="square"></line>
                <line x1="179.670306" y1="324.5" x2="485.329694" y2="324.5" id="Line" stroke="#E0E0E0" stroke-width="5" stroke-linecap="square"></line>
                <line x1="179.670306" y1="350.5" x2="485.329694" y2="350.5" id="Line" stroke="#E0E0E0" stroke-width="5" stroke-linecap="square"></line>
                <line x1="408.443231" y1="458.969055" x2="610.556769" y2="458.969055" id="Line" stroke="#E0E0E0" stroke-width="5" stroke-linecap="square"></line>
                <line x1="408.443231" y1="474.838762" x2="610.556769" y2="474.838762" id="Line" stroke="#E0E0E0" stroke-width="5" stroke-linecap="square"></line>
                <line x1="408.443231" y1="492.030945" x2="610.556769" y2="492.030945" id="Line" stroke="#E0E0E0" stroke-width="5" stroke-linecap="square"></line>
                <line x1="408.443231" y1="548.969055" x2="610.556769" y2="548.969055" id="Line" stroke="#E0E0E0" stroke-width="5" stroke-linecap="square"></line>
                <g id="CART" transform="translate(284.760000, 53.960000)" fill="#E4E4E4" fill-rule="nonzero">
                    <path d="M25.64,4.32 L21.8,7.36 C21.1066667,6.4 20.1666667,5.67333333 18.98,5.18 C17.7933333,4.68666667 16.5866667,4.44 15.36,4.44 C12.48,4.44 10.1266667,5.42666667 8.3,7.4 C6.47333333,9.37333333 5.56,11.84 5.56,14.8 C5.56,17.8933333 6.43333333,20.4066667 8.18,22.34 C9.92666667,24.2733333 12.2533333,25.24 15.16,25.24 C18.1466667,25.24 20.44,24.1466667 22.04,21.96 L26.08,24.8 C23.44,28.1066667 19.7866667,29.76 15.12,29.76 C10.6933333,29.76 7.06666667,28.3666667 4.24,25.58 C1.41333333,22.7933333 0,19.2 0,14.8 C0,10.3466667 1.44666667,6.76666667 4.34,4.06 C7.23333333,1.35333333 10.9066667,0 15.36,0 C17.3333333,0 19.2733333,0.366666667 21.18,1.1 C23.0866667,1.83333333 24.5733333,2.90666667 25.64,4.32 Z" id="Path"></path>
                    <path d="M29.01,29.04 L41.33,0.72 L45.69,0.72 L57.89,29.04 L52.13,29.04 L49.49,22.56 L37.21,22.56 L34.65,29.04 L29.01,29.04 Z M38.93,18.24 L47.73,18.24 L43.37,6.72 L38.93,18.24 Z" id="Shape"></path>
                    <path d="M63.94,29.04 L63.94,0.72 L73.78,0.72 C75.6733333,0.72 77.3733333,0.966666667 78.88,1.46 C80.3866667,1.95333333 81.6533333,2.83333333 82.68,4.1 C83.7066667,5.36666667 84.22,6.94666667 84.22,8.84 C84.22,10.84 83.6466667,12.5 82.5,13.82 C81.3533333,15.14 79.7666667,16.0266667 77.74,16.48 L85.3,29.04 L79.22,29.04 L72.66,17.04 L68.98,17.04 L68.98,29.04 L63.94,29.04 Z M68.98,12.92 L73.1,12.92 C77.1533333,12.92 79.18,11.5466667 79.18,8.8 C79.18,7.41333333 78.6333333,6.42666667 77.54,5.84 C76.4466667,5.25333333 75.1133333,4.96 73.54,4.96 L68.98,4.96 L68.98,12.92 Z" id="Shape"></path>
                    <polygon id="Path" points="97.59 29.04 97.59 5.12 88.91 5.12 88.91 0.72 111.31 0.72 111.31 5.12 102.63 5.12 102.63 29.04"></polygon>
                </g>
                <g id="SHIPPING" transform="translate(305.450000, 168.190000)" fill="#BFBFBF" fill-rule="nonzero">
                    <path d="M16.23,2.64 L12.96,6.09 C12.54,5.55 11.975,5.11 11.265,4.77 C10.555,4.43 9.86,4.26 9.18,4.26 C8.38,4.26 7.685,4.425 7.095,4.755 C6.505,5.085 6.21,5.63 6.21,6.39 C6.21,6.73 6.28,7.025 6.42,7.275 C6.56,7.525 6.795,7.745 7.125,7.935 C7.455,8.125 7.78,8.285 8.1,8.415 C8.42,8.545 8.88,8.7 9.48,8.88 C10.26,9.14 10.87,9.35 11.31,9.51 C11.75,9.67 12.315,9.935 13.005,10.305 C13.695,10.675 14.23,11.06 14.61,11.46 C14.99,11.86 15.33,12.395 15.63,13.065 C15.93,13.735 16.08,14.47 16.08,15.27 C16.08,17.57 15.295,19.325 13.725,20.535 C12.155,21.745 10.23,22.35 7.95,22.35 C6.41,22.35 4.93,22.08 3.51,21.54 C2.09,21 0.92,20.25 5.68434189e-14,19.29 L3.36,15.87 C3.88,16.53 4.565,17.07 5.415,17.49 C6.265,17.91 7.11,18.12 7.95,18.12 C8.81,18.12 9.515,17.935 10.065,17.565 C10.615,17.195 10.89,16.61 10.89,15.81 C10.89,15.49 10.815,15.205 10.665,14.955 C10.515,14.705 10.35,14.495 10.17,14.325 C9.99,14.155 9.67,13.97 9.21,13.77 C8.75,13.57 8.36,13.415 8.04,13.305 C7.72,13.195 7.2,13.02 6.48,12.78 C5.7,12.52 5.03,12.25 4.47,11.97 C3.91,11.69 3.35,11.32 2.79,10.86 C2.23,10.4 1.8,9.82 1.5,9.12 C1.2,8.42 1.05,7.61 1.05,6.69 C1.05,5.57 1.29,4.565 1.77,3.675 C2.25,2.785 2.89,2.085 3.69,1.575 C4.49,1.065 5.365,0.68 6.315,0.42 C7.265,0.16 8.25,0.03 9.27,0.03 C10.51,0.03 11.755,0.255 13.005,0.705 C14.255,1.155 15.33,1.8 16.23,2.64 Z" id="Path"></path>
                    <polygon id="Path" points="38.01 21.81 32.88 21.81 32.88 12.93 24.6 12.93 24.6 21.81 19.47 21.81 19.47 0.57 24.6 0.57 24.6 8.61 32.88 8.61 32.88 0.57 38.01 0.57"></polygon>
                    <polygon id="Path" points="47.55 21.81 42.39 21.81 42.39 0.57 47.55 0.57"></polygon>
                    <path d="M68.04,7.11 C68.04,8.67 67.635,9.97 66.825,11.01 C66.015,12.05 65.005,12.775 63.795,13.185 C62.585,13.595 61.19,13.8 59.61,13.8 L57.06,13.8 L57.06,21.81 L51.93,21.81 L51.93,0.57 L59.73,0.57 C62.25,0.57 64.265,1.085 65.775,2.115 C67.285,3.145 68.04,4.81 68.04,7.11 Z M62.91,7.14 C62.91,5.52 61.71,4.71 59.31,4.71 L57.06,4.71 L57.06,9.72 L59.22,9.72 C61.68,9.72 62.91,8.86 62.91,7.14 Z" id="Shape"></path>
                    <path d="M87.24,7.11 C87.24,8.67 86.835,9.97 86.025,11.01 C85.215,12.05 84.205,12.775 82.995,13.185 C81.785,13.595 80.39,13.8 78.81,13.8 L76.26,13.8 L76.26,21.81 L71.13,21.81 L71.13,0.57 L78.93,0.57 C81.45,0.57 83.465,1.085 84.975,2.115 C86.485,3.145 87.24,4.81 87.24,7.11 Z M82.11,7.14 C82.11,5.52 80.91,4.71 78.51,4.71 L76.26,4.71 L76.26,9.72 L78.42,9.72 C80.88,9.72 82.11,8.86 82.11,7.14 Z" id="Shape"></path>
                    <polygon id="Path" points="95.49 21.81 90.33 21.81 90.33 0.57 95.49 0.57"></polygon>
                    <polygon id="Path" points="119.19 21.81 113.37 21.81 104.82 7.92 104.73 7.92 104.85 21.81 99.87 21.81 99.87 0.57 105.72 0.57 114.24 14.43 114.33 14.43 114.21 0.57 119.19 0.57"></polygon>
                    <path d="M142.44,20.52 C140.1,21.74 137.37,22.35 134.25,22.35 C130.83,22.35 128.03,21.315 125.85,19.245 C123.67,17.175 122.58,14.48 122.58,11.16 C122.58,7.82 123.675,5.125 125.865,3.075 C128.055,1.025 130.8,0 134.1,0 C135.74,0 137.29,0.255 138.75,0.765 C140.21,1.275 141.39,1.96 142.29,2.82 L139.05,6.51 C137.91,5.19 136.32,4.53 134.28,4.53 C132.48,4.53 130.99,5.16 129.81,6.42 C128.63,7.68 128.04,9.26 128.04,11.16 C128.04,13.16 128.61,14.775 129.75,16.005 C130.89,17.235 132.48,17.85 134.52,17.85 C135.78,17.85 136.85,17.66 137.73,17.28 L137.73,13.41 L133.68,13.41 L133.68,9.27 L142.44,9.27 L142.44,20.52 Z" id="Path"></path>
                </g>
                <g id="FREE" transform="translate(203.314000, 163.603826)" fill="#BFBFBF" fill-rule="nonzero">
                    <polygon id="Path" points="8.388 2.628 3.042 2.628 3.042 5.256 7.974 5.256 7.974 7.794 3.042 7.794 3.042 12.744 0 12.744 0 0 8.388 0"></polygon>
                    <path d="M20.79,12.744 L17.19,12.744 L14.436,7.686 L13.392,7.686 L13.392,12.744 L10.368,12.744 L10.368,0 L15.228,0 C15.876,0 16.476,0.066 17.028,0.198 C17.58,0.33 18.096,0.54 18.576,0.828 C19.056,1.116 19.431,1.518 19.701,2.034 C19.971,2.55 20.106,3.156 20.106,3.852 C20.106,4.692 19.872,5.412 19.404,6.012 C18.936,6.612 18.288,7.038 17.46,7.29 L20.79,12.744 Z M17.064,3.906 C17.064,2.958 16.38,2.484 15.012,2.484 L13.374,2.484 L13.374,5.454 L14.832,5.454 C16.32,5.454 17.064,4.938 17.064,3.906 Z" id="Shape"></path>
                    <polygon id="Path" points="31.194 12.744 22.302 12.744 22.302 0 30.87 0 30.87 2.61 25.272 2.61 25.272 5.004 30.564 5.004 30.564 7.47 25.272 7.47 25.272 10.116 31.194 10.116"></polygon>
                    <polygon id="Path" points="42.12 12.744 33.228 12.744 33.228 0 41.796 0 41.796 2.61 36.198 2.61 36.198 5.004 41.49 5.004 41.49 7.47 36.198 7.47 36.198 10.116 42.12 10.116"></polygon>
                </g>
            </g>
        </g>
    </g>
</svg>