<?xml version="1.0" encoding="UTF-8"?>
<svg width="845px" height="467px" viewBox="0 0 845 467" version="1.1" xmlns="http://www.w3.org/2000/svg" xmlns:xlink="http://www.w3.org/1999/xlink">
    <title>Group 2</title>
    <g id="All-screens" stroke="none" stroke-width="1" fill="none" fill-rule="evenodd">
        <g id="Step-1" transform="translate(-514.000000, -148.000000)">
            <g id="Group" transform="translate(514.000000, 148.000000)">
                <rect id="Rectangle" fill="#FFFFFF" x="0" y="0" width="845" height="467" rx="7"></rect>
                <line x1="65.4628821" y1="368.5" x2="276.537118" y2="368.5" id="Line" stroke="#E0E0E0" stroke-width="5" opacity="0.617492676" stroke-linecap="square"></line>
                <line x1="65.4628821" y1="387.5" x2="276.537118" y2="387.5" id="Line" stroke="#E0E0E0" stroke-width="5" opacity="0.617492676" stroke-linecap="square"></line>
                <line x1="65.4628821" y1="406.5" x2="276.537118" y2="406.5" id="Line" stroke="#E0E0E0" stroke-width="5" opacity="0.617492676" stroke-linecap="square"></line>
                <line x1="318.462882" y1="368.5" x2="529.537118" y2="368.5" id="Line" stroke="#E0E0E0" stroke-width="5" opacity="0.617492676" stroke-linecap="square"></line>
                <line x1="318.462882" y1="387.5" x2="529.537118" y2="387.5" id="Line" stroke="#E0E0E0" stroke-width="5" opacity="0.617492676" stroke-linecap="square"></line>
                <line x1="318.462882" y1="406.5" x2="529.537118" y2="406.5" id="Line" stroke="#E0E0E0" stroke-width="5" opacity="0.617492676" stroke-linecap="square"></line>
                <line x1="568.462882" y1="368.5" x2="779.537118" y2="368.5" id="Line" stroke="#E0E0E0" stroke-width="5" opacity="0.617492676" stroke-linecap="square"></line>
                <line x1="568.462882" y1="387.5" x2="779.537118" y2="387.5" id="Line" stroke="#E0E0E0" stroke-width="5" opacity="0.617492676" stroke-linecap="square"></line>
                <line x1="568.462882" y1="406.5" x2="779.537118" y2="406.5" id="Line" stroke="#E0E0E0" stroke-width="5" opacity="0.617492676" stroke-linecap="square"></line>
                <g id="Group-3" transform="translate(66.000000, 132.000000)">
                    <g id="Group-4">
                        <rect id="Rectangle" fill="#FBFBFB" x="0" y="0" width="214" height="207"></rect>
                        <g id="image" opacity="0.0617646717" transform="translate(24.000000, 27.000000)" fill="#333333" fill-rule="nonzero">
                            <path d="M156.98,0 L10.02,0 C4.49564,0 0,4.14568 0,9.24 L0,144.76 C0,149.85432 4.49564,154 10.02,154 L156.98,154 C162.50436,154 167,149.85432 167,144.76 L167,9.24 C167,4.14568 162.50436,0 156.98,0 Z M160.32,144.76 C160.32,146.45708 158.82034,147.84 156.98,147.84 L10.02,147.84 C8.17966,147.84 6.68,146.45708 6.68,144.76 L6.68,130.43492 L39.35856,92.55092 C40.60438,91.10948 42.46476,90.2594 44.46208,90.22552 C46.45606,90.19472 48.35318,90.97396 49.65578,92.37228 L69.85944,114.08936 C70.56752,114.85012 71.62964,115.24744 72.70846,115.14888 C73.79062,115.0534 74.75254,114.4836 75.29028,113.61504 L109.84926,58.00564 C111.0216,56.12068 113.1258,54.9626 115.4805,54.91024 C117.8185,54.85172 119.99952,55.9174 121.26872,57.74692 L160.31332,113.95692 L160.31332,144.75692 L160.32,144.76 Z M160.32,102.53936 L126.89996,54.42668 C124.35822,50.76764 120.0229,48.64552 115.32018,48.7564 C110.61078,48.8642 106.40238,51.17728 104.0577,54.9472 L71.85008,106.77128 L54.7259,88.3652 C52.12404,85.56548 48.33982,84.00392 44.3385,84.0686 C40.34052,84.13636 36.61976,85.83036 34.13146,88.71632 L6.68,120.53888 L6.68,9.24 C6.68,7.54292 8.17966,6.16 10.02,6.16 L156.98,6.16 C158.82034,6.16 160.32,7.54292 160.32,9.24 L160.32,102.53936 Z" id="Shape"></path>
                            <path d="M46.7293578,24.7247706 C35.7482141,24.7247706 26.8119266,32.965419 26.8119266,43.0917431 C26.8119266,53.2180673 35.7482141,61.4587156 46.7293578,61.4587156 C57.7105015,61.4587156 66.646789,53.2180673 66.646789,43.0917431 C66.646789,32.965419 57.7105015,24.7247706 46.7293578,24.7247706 Z M46.7293578,55.3363914 C39.4063823,55.3363914 33.4510703,49.8446667 33.4510703,43.0917431 C33.4510703,36.3388196 39.4063823,30.8470948 46.7293578,30.8470948 C54.0523333,30.8470948 60.0076453,36.3388196 60.0076453,43.0917431 C60.0076453,49.8446667 54.0523333,55.3363914 46.7293578,55.3363914 Z" id="Shape"></path>
                        </g>
                    </g>
                    <g id="Group-4" transform="translate(250.000000, 0.000000)">
                        <rect id="Rectangle" fill="#FBFBFB" x="0" y="0" width="214" height="207"></rect>
                        <g id="image" opacity="0.0617646717" transform="translate(24.000000, 27.000000)" fill="#333333" fill-rule="nonzero">
                            <path d="M156.98,0 L10.02,0 C4.49564,0 0,4.14568 0,9.24 L0,144.76 C0,149.85432 4.49564,154 10.02,154 L156.98,154 C162.50436,154 167,149.85432 167,144.76 L167,9.24 C167,4.14568 162.50436,0 156.98,0 Z M160.32,144.76 C160.32,146.45708 158.82034,147.84 156.98,147.84 L10.02,147.84 C8.17966,147.84 6.68,146.45708 6.68,144.76 L6.68,130.43492 L39.35856,92.55092 C40.60438,91.10948 42.46476,90.2594 44.46208,90.22552 C46.45606,90.19472 48.35318,90.97396 49.65578,92.37228 L69.85944,114.08936 C70.56752,114.85012 71.62964,115.24744 72.70846,115.14888 C73.79062,115.0534 74.75254,114.4836 75.29028,113.61504 L109.84926,58.00564 C111.0216,56.12068 113.1258,54.9626 115.4805,54.91024 C117.8185,54.85172 119.99952,55.9174 121.26872,57.74692 L160.31332,113.95692 L160.31332,144.75692 L160.32,144.76 Z M160.32,102.53936 L126.89996,54.42668 C124.35822,50.76764 120.0229,48.64552 115.32018,48.7564 C110.61078,48.8642 106.40238,51.17728 104.0577,54.9472 L71.85008,106.77128 L54.7259,88.3652 C52.12404,85.56548 48.33982,84.00392 44.3385,84.0686 C40.34052,84.13636 36.61976,85.83036 34.13146,88.71632 L6.68,120.53888 L6.68,9.24 C6.68,7.54292 8.17966,6.16 10.02,6.16 L156.98,6.16 C158.82034,6.16 160.32,7.54292 160.32,9.24 L160.32,102.53936 Z" id="Shape"></path>
                            <path d="M46.7293578,24.7247706 C35.7482141,24.7247706 26.8119266,32.965419 26.8119266,43.0917431 C26.8119266,53.2180673 35.7482141,61.4587156 46.7293578,61.4587156 C57.7105015,61.4587156 66.646789,53.2180673 66.646789,43.0917431 C66.646789,32.965419 57.7105015,24.7247706 46.7293578,24.7247706 Z M46.7293578,55.3363914 C39.4063823,55.3363914 33.4510703,49.8446667 33.4510703,43.0917431 C33.4510703,36.3388196 39.4063823,30.8470948 46.7293578,30.8470948 C54.0523333,30.8470948 60.0076453,36.3388196 60.0076453,43.0917431 C60.0076453,49.8446667 54.0523333,55.3363914 46.7293578,55.3363914 Z" id="Shape"></path>
                        </g>
                    </g>
                    <g id="Group-4" transform="translate(500.000000, 0.000000)">
                        <rect id="Rectangle" fill="#FBFBFB" x="0" y="0" width="214" height="207"></rect>
                        <g id="image" opacity="0.0617646717" transform="translate(24.000000, 27.000000)" fill="#333333" fill-rule="nonzero">
                            <path d="M156.98,0 L10.02,0 C4.49564,0 0,4.14568 0,9.24 L0,144.76 C0,149.85432 4.49564,154 10.02,154 L156.98,154 C162.50436,154 167,149.85432 167,144.76 L167,9.24 C167,4.14568 162.50436,0 156.98,0 Z M160.32,144.76 C160.32,146.45708 158.82034,147.84 156.98,147.84 L10.02,147.84 C8.17966,147.84 6.68,146.45708 6.68,144.76 L6.68,130.43492 L39.35856,92.55092 C40.60438,91.10948 42.46476,90.2594 44.46208,90.22552 C46.45606,90.19472 48.35318,90.97396 49.65578,92.37228 L69.85944,114.08936 C70.56752,114.85012 71.62964,115.24744 72.70846,115.14888 C73.79062,115.0534 74.75254,114.4836 75.29028,113.61504 L109.84926,58.00564 C111.0216,56.12068 113.1258,54.9626 115.4805,54.91024 C117.8185,54.85172 119.99952,55.9174 121.26872,57.74692 L160.31332,113.95692 L160.31332,144.75692 L160.32,144.76 Z M160.32,102.53936 L126.89996,54.42668 C124.35822,50.76764 120.0229,48.64552 115.32018,48.7564 C110.61078,48.8642 106.40238,51.17728 104.0577,54.9472 L71.85008,106.77128 L54.7259,88.3652 C52.12404,85.56548 48.33982,84.00392 44.3385,84.0686 C40.34052,84.13636 36.61976,85.83036 34.13146,88.71632 L6.68,120.53888 L6.68,9.24 C6.68,7.54292 8.17966,6.16 10.02,6.16 L156.98,6.16 C158.82034,6.16 160.32,7.54292 160.32,9.24 L160.32,102.53936 Z" id="Shape"></path>
                            <path d="M46.7293578,24.7247706 C35.7482141,24.7247706 26.8119266,32.965419 26.8119266,43.0917431 C26.8119266,53.2180673 35.7482141,61.4587156 46.7293578,61.4587156 C57.7105015,61.4587156 66.646789,53.2180673 66.646789,43.0917431 C66.646789,32.965419 57.7105015,24.7247706 46.7293578,24.7247706 Z M46.7293578,55.3363914 C39.4063823,55.3363914 33.4510703,49.8446667 33.4510703,43.0917431 C33.4510703,36.3388196 39.4063823,30.8470948 46.7293578,30.8470948 C54.0523333,30.8470948 60.0076453,36.3388196 60.0076453,43.0917431 C60.0076453,49.8446667 54.0523333,55.3363914 46.7293578,55.3363914 Z" id="Shape"></path>
                        </g>
                    </g>
                </g>
                <g id="SHOP-DISCOUNT" transform="translate(320.704000, 57.552000)" fill="#D5D5D5" fill-rule="nonzero">
                    <path d="M12.984,2.112 L10.368,4.872 C10.032,4.44 9.58,4.088 9.012,3.816 C8.444,3.544 7.888,3.408 7.344,3.408 C6.704,3.408 6.148,3.54 5.676,3.804 C5.204,4.068 4.968,4.504 4.968,5.112 C4.968,5.384 5.024,5.62 5.136,5.82 C5.248,6.02 5.436,6.196 5.7,6.348 C5.964,6.5 6.224,6.628 6.48,6.732 C6.736,6.836 7.104,6.96 7.584,7.104 C8.208,7.312 8.696,7.48 9.048,7.608 C9.4,7.736 9.852,7.948 10.404,8.244 C10.956,8.54 11.384,8.848 11.688,9.168 C11.992,9.488 12.264,9.916 12.504,10.452 C12.744,10.988 12.864,11.576 12.864,12.216 C12.864,14.056 12.236,15.46 10.98,16.428 C9.724,17.396 8.184,17.88 6.36,17.88 C5.128,17.88 3.944,17.664 2.808,17.232 C1.672,16.8 0.736,16.2 0,15.432 L2.688,12.696 C3.104,13.224 3.652,13.656 4.332,13.992 C5.012,14.328 5.688,14.496 6.36,14.496 C7.048,14.496 7.612,14.348 8.052,14.052 C8.492,13.756 8.712,13.288 8.712,12.648 C8.712,12.392 8.652,12.164 8.532,11.964 C8.412,11.764 8.28,11.596 8.136,11.46 C7.992,11.324 7.736,11.176 7.368,11.016 C7,10.856 6.688,10.732 6.432,10.644 C6.176,10.556 5.76,10.416 5.184,10.224 C4.56,10.016 4.024,9.8 3.576,9.576 C3.128,9.352 2.68,9.056 2.232,8.688 C1.784,8.32 1.44,7.856 1.2,7.296 C0.96,6.736 0.84,6.088 0.84,5.352 C0.84,4.456 1.032,3.652 1.416,2.94 C1.8,2.228 2.312,1.668 2.952,1.26 C3.592,0.852 4.292,0.544 5.052,0.336 C5.812,0.128 6.6,0.024 7.416,0.024 C8.408,0.024 9.404,0.204 10.404,0.564 C11.404,0.924 12.264,1.44 12.984,2.112 Z" id="Path"></path>
                    <polygon id="Path" points="30.728 17.448 26.624 17.448 26.624 10.344 20 10.344 20 17.448 15.896 17.448 15.896 0.456 20 0.456 20 6.888 26.624 6.888 26.624 0.456 30.728 0.456"></polygon>
                    <path d="M52.264,8.88 C52.264,11.552 51.392,13.724 49.648,15.396 C47.904,17.068 45.688,17.904 43,17.904 C40.328,17.904 38.12,17.068 36.376,15.396 C34.632,13.724 33.76,11.552 33.76,8.88 C33.76,6.192 34.628,4.04 36.364,2.424 C38.1,0.808 40.312,0 43,0 C45.704,0 47.924,0.808 49.66,2.424 C51.396,4.04 52.264,6.192 52.264,8.88 Z M47.872,8.88 C47.872,7.376 47.416,6.136 46.504,5.16 C45.592,4.184 44.424,3.696 43,3.696 C41.576,3.696 40.412,4.184 39.508,5.16 C38.604,6.136 38.152,7.376 38.152,8.88 C38.152,10.416 38.604,11.68 39.508,12.672 C40.412,13.664 41.576,14.16 43,14.16 C44.424,14.16 45.592,13.664 46.504,12.672 C47.416,11.68 47.872,10.416 47.872,8.88 Z" id="Shape"></path>
                    <path d="M68.184,5.688 C68.184,6.936 67.86,7.976 67.212,8.808 C66.564,9.64 65.756,10.22 64.788,10.548 C63.82,10.876 62.704,11.04 61.44,11.04 L59.4,11.04 L59.4,17.448 L55.296,17.448 L55.296,0.456 L61.536,0.456 C63.552,0.456 65.164,0.868 66.372,1.692 C67.58,2.516 68.184,3.848 68.184,5.688 Z M64.08,5.712 C64.08,4.416 63.12,3.768 61.2,3.768 L59.4,3.768 L59.4,7.776 L61.128,7.776 C63.096,7.776 64.08,7.088 64.08,5.712 Z" id="Shape"></path>
                    <path d="M93.16,8.904 C93.16,10.344 92.888,11.624 92.344,12.744 C91.8,13.864 91.068,14.76 90.148,15.432 C89.228,16.104 88.216,16.608 87.112,16.944 C86.008,17.28 84.848,17.448 83.632,17.448 L77.296,17.448 L77.296,0.456 L83.44,0.456 C84.448,0.456 85.404,0.54 86.308,0.708 C87.212,0.876 88.088,1.168 88.936,1.584 C89.784,2 90.516,2.52 91.132,3.144 C91.748,3.768 92.24,4.572 92.608,5.556 C92.976,6.54 93.16,7.656 93.16,8.904 Z M88.888,8.904 C88.888,7.992 88.736,7.204 88.432,6.54 C88.128,5.876 87.708,5.36 87.172,4.992 C86.636,4.624 86.052,4.36 85.42,4.2 C84.788,4.04 84.096,3.96 83.344,3.96 L81.304,3.96 L81.304,13.896 L83.248,13.896 C84.896,13.896 86.248,13.504 87.304,12.72 C88.36,11.936 88.888,10.664 88.888,8.904 Z" id="Shape"></path>
                    <polygon id="Path" points="100.32 17.448 96.192 17.448 96.192 0.456 100.32 0.456"></polygon>
                    <path d="M115.736,2.112 L113.12,4.872 C112.784,4.44 112.332,4.088 111.764,3.816 C111.196,3.544 110.64,3.408 110.096,3.408 C109.456,3.408 108.9,3.54 108.428,3.804 C107.956,4.068 107.72,4.504 107.72,5.112 C107.72,5.384 107.776,5.62 107.888,5.82 C108,6.02 108.188,6.196 108.452,6.348 C108.716,6.5 108.976,6.628 109.232,6.732 C109.488,6.836 109.856,6.96 110.336,7.104 C110.96,7.312 111.448,7.48 111.8,7.608 C112.152,7.736 112.604,7.948 113.156,8.244 C113.708,8.54 114.136,8.848 114.44,9.168 C114.744,9.488 115.016,9.916 115.256,10.452 C115.496,10.988 115.616,11.576 115.616,12.216 C115.616,14.056 114.988,15.46 113.732,16.428 C112.476,17.396 110.936,17.88 109.112,17.88 C107.88,17.88 106.696,17.664 105.56,17.232 C104.424,16.8 103.488,16.2 102.752,15.432 L105.44,12.696 C105.856,13.224 106.404,13.656 107.084,13.992 C107.764,14.328 108.44,14.496 109.112,14.496 C109.8,14.496 110.364,14.348 110.804,14.052 C111.244,13.756 111.464,13.288 111.464,12.648 C111.464,12.392 111.404,12.164 111.284,11.964 C111.164,11.764 111.032,11.596 110.888,11.46 C110.744,11.324 110.488,11.176 110.12,11.016 C109.752,10.856 109.44,10.732 109.184,10.644 C108.928,10.556 108.512,10.416 107.936,10.224 C107.312,10.016 106.776,9.8 106.328,9.576 C105.88,9.352 105.432,9.056 104.984,8.688 C104.536,8.32 104.192,7.856 103.952,7.296 C103.712,6.736 103.592,6.088 103.592,5.352 C103.592,4.456 103.784,3.652 104.168,2.94 C104.552,2.228 105.064,1.668 105.704,1.26 C106.344,0.852 107.044,0.544 107.804,0.336 C108.564,0.128 109.352,0.024 110.168,0.024 C111.16,0.024 112.156,0.204 113.156,0.564 C114.156,0.924 115.016,1.44 115.736,2.112 Z" id="Path"></path>
                    <path d="M133.6,15.096 C131.984,16.968 129.784,17.904 127,17.904 C124.36,17.904 122.176,17.068 120.448,15.396 C118.72,13.724 117.856,11.568 117.856,8.928 C117.856,6.256 118.732,4.1 120.484,2.46 C122.236,0.82 124.432,0 127.072,0 C128.304,0 129.5,0.22 130.66,0.66 C131.82,1.1 132.744,1.712 133.432,2.496 L130.648,5.28 C130.28,4.768 129.788,4.38 129.172,4.116 C128.556,3.852 127.904,3.72 127.216,3.72 C125.792,3.72 124.62,4.212 123.7,5.196 C122.78,6.18 122.32,7.424 122.32,8.928 C122.32,10.464 122.768,11.716 123.664,12.684 C124.56,13.652 125.72,14.136 127.144,14.136 C128.728,14.136 129.928,13.56 130.744,12.408 L133.6,15.096 Z" id="Path"></path>
                    <path d="M153.096,8.88 C153.096,11.552 152.224,13.724 150.48,15.396 C148.736,17.068 146.52,17.904 143.832,17.904 C141.16,17.904 138.952,17.068 137.208,15.396 C135.464,13.724 134.592,11.552 134.592,8.88 C134.592,6.192 135.46,4.04 137.196,2.424 C138.932,0.808 141.144,0 143.832,0 C146.536,0 148.756,0.808 150.492,2.424 C152.228,4.04 153.096,6.192 153.096,8.88 Z M148.704,8.88 C148.704,7.376 148.248,6.136 147.336,5.16 C146.424,4.184 145.256,3.696 143.832,3.696 C142.408,3.696 141.244,4.184 140.34,5.16 C139.436,6.136 138.984,7.376 138.984,8.88 C138.984,10.416 139.436,11.68 140.34,12.672 C141.244,13.664 142.408,14.16 143.832,14.16 C145.256,14.16 146.424,13.664 147.336,12.672 C148.248,11.68 148.704,10.416 148.704,8.88 Z" id="Shape"></path>
                    <path d="M170.528,11.04 C170.528,13.088 169.86,14.744 168.524,16.008 C167.188,17.272 165.416,17.904 163.208,17.904 C161,17.904 159.24,17.276 157.928,16.02 C156.616,14.764 155.96,13.104 155.96,11.04 L155.96,0.456 L160.04,0.456 L160.04,10.704 C160.04,11.712 160.304,12.548 160.832,13.212 C161.36,13.876 162.16,14.208 163.232,14.208 C164.32,14.208 165.124,13.876 165.644,13.212 C166.164,12.548 166.424,11.712 166.424,10.704 L166.424,0.456 L170.528,0.456 L170.528,11.04 Z" id="Path"></path>
                    <polygon id="Path" points="189.616 17.448 184.96 17.448 178.12 6.336 178.048 6.336 178.144 17.448 174.16 17.448 174.16 0.456 178.84 0.456 185.656 11.544 185.728 11.544 185.632 0.456 189.616 0.456"></polygon>
                    <polygon id="Path" points="205.512 3.96 200.712 3.96 200.712 17.448 196.608 17.448 196.608 3.96 191.808 3.96 191.808 0.456 205.512 0.456"></polygon>
                </g>
            </g>
        </g>
    </g>
</svg>