<?xml version="1.0" encoding="UTF-8"?>
<svg width="837px" height="399px" viewBox="0 0 837 399" version="1.1" xmlns="http://www.w3.org/2000/svg" xmlns:xlink="http://www.w3.org/1999/xlink">
    <title>Group</title>
    <g id="All-screens" stroke="none" stroke-width="1" fill="none" fill-rule="evenodd">
        <g id="3x2---Step-1" transform="translate(-514.000000, -148.000000)">
            <g id="Group" transform="translate(514.000000, 148.000000)">
                <rect id="Rectangle" fill="#FFFFFF" x="0" y="0" width="837" height="399" rx="7"></rect>
                <rect id="Rectangle" fill="#EBEBEB" x="383" y="280" width="243" height="46" rx="7"></rect>
                <rect id="Rectangle" fill="#FBFBFB" x="54" y="35" width="279.538462" height="292"></rect>
                <g id="image" opacity="0.0617646717" transform="translate(85.000000, 72.000000)" fill="#333333" fill-rule="nonzero">
                    <path d="M204.92,0 L13.08,0 C5.86856,0 0,5.86856 0,13.08 L0,204.92 C0,212.13144 5.86856,218 13.08,218 L204.92,218 C212.13144,218 218,212.13144 218,204.92 L218,13.08 C218,5.86856 212.13144,0 204.92,0 Z M209.28,204.92 C209.28,207.32236 207.32236,209.28 204.92,209.28 L13.08,209.28 C10.67764,209.28 8.72,207.32236 8.72,204.92 L8.72,184.64164 L51.37824,131.01364 C53.00452,128.97316 55.43304,127.7698 58.04032,127.72184 C60.64324,127.67824 63.11972,128.78132 64.82012,130.76076 L91.19376,161.50312 C92.11808,162.58004 93.50456,163.14248 94.91284,163.00296 C96.32548,162.8678 97.58116,162.0612 98.28312,160.83168 L143.39604,82.11188 C144.9264,79.44356 147.6732,77.8042 150.747,77.73008 C153.799,77.64724 156.64608,79.1558 158.30288,81.74564 L209.27128,161.31564 L209.27128,204.91564 L209.28,204.92 Z M209.28,145.15312 L165.65384,77.04556 C162.33588,71.86588 156.6766,68.86184 150.53772,69.0188 C144.39012,69.1714 138.89652,72.44576 135.8358,77.7824 L93.79232,151.14376 L71.4386,125.0884 C68.04216,121.12516 63.10228,118.91464 57.879,119.0062 C52.66008,119.10212 47.80304,121.50012 44.55484,125.58544 L8.72,170.63296 L8.72,13.08 C8.72,10.67764 10.67764,8.72 13.08,8.72 L204.92,8.72 C207.32236,8.72 209.28,10.67764 209.28,13.08 L209.28,145.15312 Z" id="Shape"></path>
                    <path d="M61,35 C46.6653333,35 35,46.6653333 35,61 C35,75.3346667 46.6653333,87 61,87 C75.3346667,87 87,75.3346667 87,61 C87,46.6653333 75.3346667,35 61,35 Z M61,78.3333333 C51.4406667,78.3333333 43.6666667,70.5593333 43.6666667,61 C43.6666667,51.4406667 51.4406667,43.6666667 61,43.6666667 C70.5593333,43.6666667 78.3333333,51.4406667 78.3333333,61 C78.3333333,70.5593333 70.5593333,78.3333333 61,78.3333333 Z" id="Shape"></path>
                </g>
                <line x1="385.843478" y1="67.5" x2="770.469565" y2="67.5" id="Line" stroke="#E0E0E0" stroke-width="5" stroke-linecap="square"></line>
                <line x1="385.843478" y1="86.5" x2="770.469565" y2="86.5" id="Line" stroke="#E0E0E0" stroke-width="5" stroke-linecap="square"></line>
                <line x1="385.843478" y1="105.5" x2="770.469565" y2="105.5" id="Line" stroke="#E0E0E0" stroke-width="5" stroke-linecap="square"></line>
                <line x1="385.530435" y1="124.5" x2="770.156522" y2="124.5" id="Line" stroke="#E0E0E0" stroke-width="5" stroke-linecap="square"></line>
                <line x1="385.843478" y1="169.5" x2="770.469565" y2="169.5" id="Line" stroke="#E0E0E0" stroke-width="5" stroke-linecap="square"></line>
                <line x1="385.530435" y1="188.5" x2="770.156522" y2="188.5" id="Line" stroke="#E0E0E0" stroke-width="5" stroke-linecap="square"></line>
                <g id="3x2" transform="translate(383.550000, 219.700000)" fill="#D5D5D5" fill-rule="nonzero">
                    <path d="M9.05,20.25 L9.05,15.45 L10.65,15.45 C15.6833333,15.45 18.2,13.6666667 18.2,10.1 C18.2,8.56666667 17.6583333,7.33333333 16.575,6.4 C15.4916667,5.46666667 14.1666667,5 12.6,5 C11.1666667,5 9.95833333,5.41666667 8.975,6.25 C7.99166667,7.08333333 7.31666667,8.18333333 6.95,9.55 L1.3,8.1 C1.93333333,5.7 3.31666667,3.75 5.45,2.25 C7.58333333,0.75 10.05,0 12.85,0 C16.1166667,0 18.8333333,0.85 21,2.55 C23.1666667,4.25 24.25,6.63333333 24.25,9.7 C24.25,11.6 23.6666667,13.2916667 22.5,14.775 C21.3333333,16.2583333 19.8,17.2333333 17.9,17.7 L17.9,17.8 C20.0666667,18.2333333 21.825,19.2166667 23.175,20.75 C24.525,22.2833333 25.2,24.1333333 25.2,26.3 C25.2,29.7333333 23.9666667,32.4083333 21.5,34.325 C19.0333333,36.2416667 16.15,37.2 12.85,37.2 C9.71666667,37.2 7.01666667,36.5166667 4.75,35.15 C2.48333333,33.7833333 0.9,31.6833333 -5.68434189e-14,28.85 L5.6,27.1 C6.03333333,28.5666667 6.86666667,29.7666667 8.1,30.7 C9.33333333,31.6333333 10.85,32.1 12.65,32.1 C14.4166667,32.1 15.9416667,31.6166667 17.225,30.65 C18.5083333,29.6833333 19.15,28.2166667 19.15,26.25 C19.15,24.8166667 18.675,23.625 17.725,22.675 C16.775,21.725 15.6916667,21.0833333 14.475,20.75 C13.2583333,20.4166667 11.95,20.25 10.55,20.25 L9.05,20.25 Z" id="Path"></path>
                    <polygon id="Path" points="28.9 36.3 38.65 23.55 30 12.3 37.2 12.3 42.4 19.75 47.75 12.3 54.65 12.3 46.05 23.55 55.85 36.3 48.55 36.3 42.3 27.55 36 36.3"></polygon>
                    <path d="M59.25,36.3 L59.25,30.8 L72.9,17.4 C75.3,15.0666667 76.5,12.75 76.5,10.45 C76.5,8.81666667 75.9666667,7.5 74.9,6.5 C73.8333333,5.5 72.4833333,5 70.85,5 C69.1833333,5 67.825,5.55833333 66.775,6.675 C65.725,7.79166667 65.0833333,9.25 64.85,11.05 L59,10.15 C59.3666667,7.18333333 60.65,4.75 62.85,2.85 C65.05,0.95 67.75,0 70.95,0 C74.2166667,0 77,0.916666667 79.3,2.75 C81.6,4.58333333 82.75,7.11666667 82.75,10.35 C82.75,12.45 82.2583333,14.325 81.275,15.975 C80.2916667,17.625 78.8833333,19.3166667 77.05,21.05 L66.85,30.8 L82.8,30.8 L82.8,36.3 L59.25,36.3 Z" id="Path"></path>
                </g>
            </g>
        </g>
    </g>
</svg>