<svg width="143" height="57" viewBox="0 0 143 57" fill="none" xmlns="http://www.w3.org/2000/svg">
<path d="M60.4961 38.5484V17.3937H68.5944C70.1232 17.3937 71.3937 17.6347 72.406 18.1168C73.4251 18.5919 74.1861 19.2427 74.6888 20.069C75.1984 20.8954 75.4532 21.8319 75.4532 22.8787C75.4532 23.7394 75.2879 24.4763 74.9573 25.0892C74.6268 25.6952 74.1826 26.1875 73.6248 26.5663C73.067 26.945 72.4438 27.217 71.7552 27.3823V27.5889C72.5058 27.6302 73.2254 27.8609 73.9141 28.281C74.6096 28.6941 75.1777 29.2795 75.6184 30.037C76.0591 30.7945 76.2795 31.7103 76.2795 32.7846C76.2795 33.8795 76.0144 34.8643 75.4841 35.7388C74.9539 36.6065 74.1551 37.2917 73.0877 37.7944C72.0203 38.2971 70.6775 38.5484 69.0592 38.5484H60.4961ZM64.3283 35.3463H68.4498C69.8408 35.3463 70.8428 35.0812 71.4557 34.5509C72.0754 34.0138 72.3853 33.3252 72.3853 32.485C72.3853 31.8584 72.2304 31.2937 71.9205 30.791C71.6106 30.2814 71.1699 29.882 70.5983 29.5928C70.0267 29.2967 69.345 29.1486 68.5531 29.1486H64.3283V35.3463ZM64.3283 26.3907H68.1192C68.7803 26.3907 69.376 26.2702 69.9062 26.0291C70.4365 25.7812 70.8531 25.4335 71.1561 24.9859C71.466 24.5314 71.6209 23.9942 71.6209 23.3745C71.6209 22.555 71.3317 21.8801 70.7533 21.3499C70.1817 20.8196 69.3312 20.5545 68.2019 20.5545H64.3283V26.3907Z" fill="#346BD5"/>
<path d="M98.5163 27.9711C98.5163 30.2504 98.0893 32.2027 97.2354 33.8279C96.3884 35.4462 95.2315 36.6857 93.7647 37.5465C92.3048 38.4073 90.6487 38.8377 88.7962 38.8377C86.9438 38.8377 85.2842 38.4073 83.8174 37.5465C82.3575 36.6788 81.2006 35.4358 80.3467 33.8175C79.4997 32.1924 79.0762 30.2436 79.0762 27.9711C79.0762 25.6917 79.4997 23.7429 80.3467 22.1246C81.2006 20.4994 82.3575 19.2565 83.8174 18.3957C85.2842 17.5349 86.9438 17.1045 88.7962 17.1045C90.6487 17.1045 92.3048 17.5349 93.7647 18.3957C95.2315 19.2565 96.3884 20.4994 97.2354 22.1246C98.0893 23.7429 98.5163 25.6917 98.5163 27.9711ZM94.6634 27.9711C94.6634 26.3666 94.412 25.0134 93.9093 23.9116C93.4135 22.8029 92.7249 21.9662 91.8434 21.4015C90.962 20.83 89.9462 20.5442 88.7962 20.5442C87.6462 20.5442 86.6305 20.83 85.749 21.4015C84.8676 21.9662 84.1755 22.8029 83.6728 23.9116C83.177 25.0134 82.9291 26.3666 82.9291 27.9711C82.9291 29.5756 83.177 30.9322 83.6728 32.0409C84.1755 33.1427 84.8676 33.9794 85.749 34.5509C86.6305 35.1156 87.6462 35.398 88.7962 35.398C89.9462 35.398 90.962 35.1156 91.8434 34.5509C92.7249 33.9794 93.4135 33.1427 93.9093 32.0409C94.412 30.9322 94.6634 29.5756 94.6634 27.9711Z" fill="#346BD5"/>
<path d="M116.311 24.1492C116.139 23.5914 115.902 23.0921 115.599 22.6514C115.302 22.2038 114.944 21.8216 114.524 21.5048C114.111 21.1881 113.636 20.9505 113.099 20.7921C112.562 20.6268 111.976 20.5442 111.343 20.5442C110.207 20.5442 109.194 20.83 108.306 21.4015C107.418 21.9731 106.719 22.8132 106.209 23.9219C105.706 25.0237 105.455 26.3666 105.455 27.9504C105.455 29.548 105.706 30.9012 106.209 32.0099C106.712 33.1186 107.411 33.9622 108.306 34.5406C109.201 35.1122 110.241 35.398 111.426 35.398C112.5 35.398 113.429 35.1914 114.214 34.7782C115.006 34.365 115.616 33.7797 116.043 33.0222C116.47 32.2578 116.683 31.3626 116.683 30.3365L117.551 30.4708H111.808V27.4753H120.391V30.0163C120.391 31.8274 120.006 33.394 119.235 34.7162C118.463 36.0384 117.403 37.0576 116.053 37.7737C114.703 38.483 113.154 38.8377 111.405 38.8377C109.456 38.8377 107.745 38.4004 106.271 37.5258C104.804 36.6444 103.658 35.3945 102.831 33.7762C102.012 32.1511 101.602 30.2229 101.602 27.9917C101.602 26.2839 101.843 24.7586 102.325 23.4158C102.814 22.073 103.496 20.9333 104.37 19.9967C105.245 19.0533 106.271 18.3371 107.449 17.8482C108.626 17.3524 109.907 17.1045 111.291 17.1045C112.462 17.1045 113.553 17.2766 114.566 17.621C115.578 17.9584 116.477 18.4404 117.262 19.0671C118.054 19.6937 118.704 20.4375 119.214 21.2982C119.724 22.159 120.057 23.1093 120.216 24.1492H116.311Z" fill="#346BD5"/>
<path d="M143 27.9711C143 30.2504 142.573 32.2027 141.719 33.8279C140.872 35.4462 139.715 36.6857 138.249 37.5465C136.789 38.4073 135.132 38.8377 133.28 38.8377C131.428 38.8377 129.768 38.4073 128.301 37.5465C126.841 36.6788 125.684 35.4358 124.831 33.8175C123.984 32.1924 123.56 30.2436 123.56 27.9711C123.56 25.6917 123.984 23.7429 124.831 22.1246C125.684 20.4994 126.841 19.2565 128.301 18.3957C129.768 17.5349 131.428 17.1045 133.28 17.1045C135.132 17.1045 136.789 17.5349 138.249 18.3957C139.715 19.2565 140.872 20.4994 141.719 22.1246C142.573 23.7429 143 25.6917 143 27.9711ZM139.147 27.9711C139.147 26.3666 138.896 25.0134 138.393 23.9116C137.897 22.8029 137.209 21.9662 136.327 21.4015C135.446 20.83 134.43 20.5442 133.28 20.5442C132.13 20.5442 131.114 20.83 130.233 21.4015C129.351 21.9662 128.659 22.8029 128.157 23.9116C127.661 25.0134 127.413 26.3666 127.413 27.9711C127.413 29.5756 127.661 30.9322 128.157 32.0409C128.659 33.1427 129.351 33.9794 130.233 34.5509C131.114 35.1156 132.13 35.398 133.28 35.398C134.43 35.398 135.446 35.1156 136.327 34.5509C137.209 33.9794 137.897 33.1427 138.393 32.0409C138.896 30.9322 139.147 29.5756 139.147 27.9711Z" fill="#346BD5"/>
<path d="M29.4242 0L0 10.0167L8.76465 35.6846L39.4409 24.4158L43.8232 15.0251L40.067 4.38232L29.4242 0Z" fill="#346BD5"/>
<path fill-rule="evenodd" clip-rule="evenodd" d="M0 45.0754L30.6763 56.3442L40.067 51.9619L43.8232 41.3191L39.4409 31.9284L8.76465 20.6595L0 45.0754ZM2.50357 43.8233L30.5578 53.8208L37.8308 50.5884L41.3184 41.3191L37.8308 33.6181L10.0161 24.4158L2.50357 43.8233Z" fill="#346BD5"/>
<path fill-rule="evenodd" clip-rule="evenodd" d="M33.4742 48.2056C36.4237 48.2056 38.8148 45.8145 38.8148 42.865C38.8148 39.9154 36.4237 37.5244 33.4742 37.5244C30.5246 37.5244 28.1335 39.9154 28.1335 42.865C28.1335 45.8145 30.5246 48.2056 33.4742 48.2056ZM33.4742 46.6797C35.581 46.6797 37.2889 44.9718 37.2889 42.865C37.2889 40.7581 35.581 39.0502 33.4742 39.0502C31.3674 39.0502 29.6595 40.7581 29.6595 42.865C29.6595 44.9718 31.3674 46.6797 33.4742 46.6797Z" fill="#346BD5"/>
</svg>
