<svg width="123" height="60" viewBox="0 0 123 60" fill="none" xmlns="http://www.w3.org/2000/svg">
<g clip-path="url(#clip0_32_172)">
<path d="M100.08 20.625C101.184 20.625 102.262 20.2951 103.18 19.677C104.098 19.0589 104.813 18.1804 105.235 17.1526C105.658 16.1248 105.768 14.9938 105.553 13.9026C105.337 12.8115 104.806 11.8092 104.026 11.0225C103.245 10.2359 102.251 9.70013 101.169 9.48308C100.086 9.26604 98.9642 9.37744 97.9446 9.80318C96.925 10.2289 96.0535 10.9499 95.4404 11.8749C94.8273 12.7999 94.5 13.8875 94.5 15C94.5 16.4918 95.0879 17.9226 96.1343 18.9775C97.1808 20.0324 98.6001 20.625 100.08 20.625ZM100.08 50.625C102.655 50.625 105.172 49.8552 107.314 48.413C109.455 46.9708 111.123 44.921 112.109 42.5227C113.094 40.1244 113.352 37.4854 112.85 34.9394C112.347 32.3934 111.107 30.0548 109.287 28.2192C107.466 26.3837 105.146 25.1336 102.62 24.6272C100.094 24.1208 97.4766 24.3807 95.0975 25.3741C92.7184 26.3675 90.6849 28.0497 89.2543 30.2081C87.8236 32.3665 87.06 34.9041 87.06 37.5C87.06 40.981 88.4317 44.3194 90.8735 46.7808C93.3152 49.2422 96.6269 50.625 100.08 50.625ZM100.08 30C101.551 30 102.99 30.4399 104.213 31.264C105.437 32.0881 106.391 33.2594 106.954 34.6299C107.517 36.0003 107.664 37.5083 107.377 38.9632C107.09 40.418 106.381 41.7544 105.341 42.8033C104.3 43.8522 102.975 44.5665 101.531 44.8559C100.088 45.1453 98.5923 44.9968 97.2328 44.4291C95.8734 43.8614 94.7114 42.9001 93.8939 41.6668C93.0763 40.4334 92.64 38.9834 92.64 37.5C92.64 35.5109 93.4239 33.6032 94.8191 32.1967C96.2144 30.7902 98.1068 30 100.08 30ZM116.82 0H83.34C81.8601 0 80.4408 0.592632 79.3943 1.64752C78.3479 2.70242 77.76 4.13316 77.76 5.625V54.375C77.76 55.8668 78.3479 57.2976 79.3943 58.3525C80.4408 59.4074 81.8601 60 83.34 60H116.82C118.3 60 119.719 59.4074 120.766 58.3525C121.812 57.2976 122.4 55.8668 122.4 54.375V5.625C122.4 4.13316 121.812 2.70242 120.766 1.64752C119.719 0.592632 118.3 0 116.82 0ZM116.82 54.375H83.34V5.625H116.82V54.375ZM74.04 10.8352C73.2398 10.1029 72.246 9.62066 71.1791 9.44696C70.1123 9.27326 69.0183 9.41559 68.0302 9.85666C67.0421 10.2977 66.2022 11.0186 65.6127 11.9316C65.0232 12.8446 64.7094 13.9106 64.7094 15C64.7094 16.0894 65.0232 17.1554 65.6127 18.0684C66.2022 18.9814 67.0421 19.7023 68.0302 20.1433C69.0183 20.5844 70.1123 20.7267 71.1791 20.553C72.246 20.3793 73.2398 19.8971 74.04 19.1648V10.8352ZM70.32 30C71.6298 30.0071 72.9139 30.3664 74.04 31.0406V24.9844C72.8543 24.6258 71.622 24.375 70.32 24.375C66.8669 24.375 63.5552 25.7578 61.1135 28.2192C58.6717 30.6806 57.3 34.019 57.3 37.5C57.3 40.981 58.6717 44.3194 61.1135 46.7808C63.5552 49.2422 66.8669 50.625 70.32 50.625C71.622 50.625 72.8543 50.3742 74.04 50.0156V43.9594C72.9139 44.6336 71.6298 44.9929 70.32 45C68.3468 45 66.4544 44.2098 65.0591 42.8033C63.6639 41.3968 62.88 39.4891 62.88 37.5C62.88 35.5109 63.6639 33.6032 65.0591 32.1967C66.4544 30.7902 68.3468 30 70.32 30ZM75.9477 0H53.58C52.1001 0 50.6808 0.592632 49.6343 1.64752C48.5879 2.70242 48 4.13316 48 5.625V54.375C48 55.8668 48.5879 57.2976 49.6343 58.3525C50.6808 59.4074 52.1001 60 53.58 60H75.9477C74.7175 58.3864 74.0473 56.4101 74.04 54.375H53.58V5.625H74.04C74.0473 3.58993 74.7175 1.61362 75.9477 0Z" fill="#CCCCCC"/>
</g>
<g clip-path="url(#clip1_32_172)">
<rect x="4.7998" y="16.8" width="51.6" height="34.8" fill="white"/>
<path d="M46.875 28.5936V27.6561C46.875 26.8826 47.5078 26.2498 48.2812 26.2498H49.2188C49.9922 26.2498 50.625 26.8826 50.625 27.6561V28.5936C50.625 29.367 49.9922 29.9998 49.2188 29.9998H48.2812C47.5078 29.9998 46.875 29.367 46.875 28.5936ZM48.2812 37.4998H49.2188C49.9922 37.4998 50.625 36.867 50.625 36.0936V35.1561C50.625 34.3826 49.9922 33.7498 49.2188 33.7498H48.2812C47.5078 33.7498 46.875 34.3826 46.875 35.1561V36.0936C46.875 36.867 47.5078 37.4998 48.2812 37.4998ZM44.0625 21.5037C44.0625 21.5037 43.8867 20.6248 27.1875 20.6248C10.4883 20.6248 10.2539 21.5037 10.2539 21.5037C10.2539 21.5037 9.375 21.5623 9.375 33.7498C9.375 45.9373 10.2539 45.9959 10.2539 45.9959C10.2539 45.9959 10.3125 46.8748 27.1875 46.8748C44.0625 46.8748 44.0625 45.9959 44.0625 45.9959C44.0625 45.9959 44.9414 45.9373 44.9414 33.7498C44.9414 21.5623 44.0625 21.5037 44.0625 21.5037ZM60 16.8748V50.6248C60 53.7303 57.4805 56.2498 54.375 56.2498H52.5V59.9998H46.875L45.6211 56.2498H14.3789L13.125 59.9998H7.5V56.2498H5.625C2.51953 56.2498 0 53.7303 0 50.6248V16.8748C0 13.7694 2.51953 11.2498 5.625 11.2498H22.1367L15.8086 4.78108C14.7187 3.6678 14.7422 1.88655 15.8437 0.808428C16.957 -0.281416 18.7383 -0.257978 19.8164 0.843584L30 11.2498L40.1836 0.843584C41.2734 -0.269697 43.0547 -0.281416 44.1562 0.808428C45.2695 1.89827 45.2813 3.67952 44.1914 4.78108L37.8633 11.2498H54.375C57.4805 11.2498 60 13.7694 60 16.8748ZM54.375 16.8748H5.625V50.6248H54.375V16.8748Z" fill="#346BD5"/>
</g>
<defs>
<clipPath id="clip0_32_172">
<rect width="74.4" height="60" fill="white" transform="translate(48)"/>
</clipPath>
<clipPath id="clip1_32_172">
<rect width="60" height="60" fill="white"/>
</clipPath>
</defs>
</svg>
