<svg width="105" height="60" viewBox="0 0 105 60" fill="none" xmlns="http://www.w3.org/2000/svg">
<g clip-path="url(#clip0_32_174)">
<path d="M81.6799 25.4228L65.8464 9.45035C65.1737 8.77177 64.2614 8.39054 63.31 8.39053H48.0567C46.0756 8.39053 44.4697 10.0105 44.4697 12.009V27.3961C44.4697 28.3558 44.8476 29.2761 45.5203 29.9547L61.3539 45.9272C62.7546 47.3402 65.0257 47.3403 66.4266 45.9272L81.6799 30.54C83.0807 29.1269 83.0807 26.8359 81.6799 25.4228ZM52.8393 20.4519C50.8582 20.4519 49.2523 18.8319 49.2523 16.8335C49.2523 14.8351 50.8582 13.2151 52.8393 13.2151C54.8203 13.2151 56.4262 14.8351 56.4262 16.8335C56.4262 18.8319 54.8203 20.4519 52.8393 20.4519ZM91.2451 30.54L75.9918 45.9272C74.591 47.3402 72.3199 47.3402 70.9191 45.9272L70.8922 45.9L83.8993 32.7788C85.1696 31.4974 85.8691 29.7936 85.8691 27.9814C85.8691 26.1692 85.1695 24.4654 83.8993 23.184L69.2344 8.39053H72.8752C73.8266 8.39054 74.7389 8.77177 75.4116 9.45035L91.2451 25.4228C92.6459 26.8359 92.6459 29.1269 91.2451 30.54Z" fill="#346BD5"/>
</g>
<path fill-rule="evenodd" clip-rule="evenodd" d="M20.3595 2.51723L24.1424 14.6225C23.8006 14.8198 23.7742 15.2192 23.9771 15.9451C24.1065 16.4115 24.2522 16.872 24.3979 17.3326C24.4649 17.5441 24.5318 17.7557 24.5972 17.9679C24.8189 18.6836 25.0401 19.3993 25.2613 20.115L25.2627 20.1194C25.8513 22.0238 26.4398 23.9276 27.0366 25.8298C27.238 26.4696 27.9525 26.8428 28.5286 26.5825C29.0052 26.3693 28.8449 26.0419 28.7024 25.7507L28.7024 25.7507C28.6604 25.665 28.62 25.5824 28.5978 25.5068C28.0906 23.8019 27.567 22.1004 27.0434 20.3989C26.706 19.3024 26.3687 18.206 26.0356 17.1086C25.7744 16.2462 25.8751 16.1114 26.747 16.1427C27.718 16.1774 28.6891 16.2335 29.6585 16.2895L29.6586 16.2895C29.9179 16.3045 30.177 16.3194 30.436 16.334C32.1206 16.4306 33.8052 16.5292 35.4897 16.6278C38.0167 16.7757 40.5437 16.9236 43.0707 17.0647C44.6318 17.1523 46.1936 17.2337 47.7554 17.315L47.7568 17.315L47.7569 17.315L47.7571 17.3151L47.7573 17.3151L47.7574 17.3151L47.7576 17.3151L47.7577 17.3151L47.7579 17.3151L47.7581 17.3151L47.7582 17.3151L47.7584 17.3151L47.7597 17.3152L47.7598 17.3152L47.76 17.3152L47.7602 17.3153L47.7603 17.3153L47.7605 17.3153L47.7607 17.3153L47.7608 17.3153L47.761 17.3153L47.7611 17.3153L47.7613 17.3153L47.7615 17.3153L47.7616 17.3154L47.7618 17.3154L47.7619 17.3154C49.4951 17.4056 51.2282 17.4958 52.9606 17.5947C55.9431 17.764 58.9256 17.9389 61.9081 18.1137C64.8904 18.2885 67.8726 18.4634 70.8549 18.6327C72.5574 18.7306 74.2607 18.8206 75.964 18.9106L75.9651 18.9107C77.4799 18.9908 78.9947 19.0708 80.5087 19.1564C83.3997 19.3182 86.2922 19.4856 89.1841 19.6529C90.609 19.7354 92.0337 19.8179 93.4581 19.8996C94.4216 19.9553 95.3855 20.0096 96.3494 20.0638L96.3501 20.0639C98.2643 20.1716 100.179 20.2794 102.092 20.3983C103.027 20.4579 103.125 20.5896 102.967 21.5272C102.764 22.7246 102.554 23.9202 102.343 25.116L102.343 25.1171L102.343 25.1177L102.343 25.1183L102.342 25.119L102.342 25.1196L102.342 25.1202L102.342 25.1208L102.342 25.1215L102.342 25.1221L102.342 25.1227L102.342 25.1233L102.341 25.1239L102.341 25.1246L102.341 25.1252L102.341 25.1258L102.341 25.1264L102.341 25.1271L102.341 25.1277L102.341 25.1283L102.341 25.1289L102.34 25.1296L102.34 25.1302L102.34 25.1308L102.34 25.1314L102.34 25.1321L102.34 25.1327C102.153 26.1956 101.965 27.2586 101.784 28.3229C101.642 29.1508 102.07 29.5052 102.866 29.2543C103.275 29.1273 103.331 28.793 103.387 28.4642C103.392 28.4358 103.397 28.4075 103.402 28.3794C103.886 25.6793 104.368 22.9792 104.84 20.276C105.004 19.3508 104.695 18.94 103.751 18.8836C101.66 18.7582 99.5669 18.6436 97.4736 18.5289L97.4711 18.5288L97.4687 18.5287L97.4662 18.5285L97.4637 18.5284L97.4612 18.5283L97.4588 18.5281L97.4563 18.528L97.4538 18.5278L97.4514 18.5277L97.4489 18.5276L97.4465 18.5274L97.444 18.5273C96.5634 18.4791 95.6828 18.4309 94.8022 18.3818C93.7577 18.325 92.7129 18.2689 91.668 18.2128L91.6616 18.2124L91.6614 18.2124L91.6611 18.2124L91.6609 18.2124L91.6607 18.2124L91.6605 18.2124L91.6602 18.2124L91.66 18.2123L91.6598 18.2123L91.6595 18.2123L91.6593 18.2123L91.6591 18.2123L91.6589 18.2123L91.6586 18.2123L91.6584 18.2123L91.6582 18.2123L91.6579 18.2122L91.6577 18.2122L91.6575 18.2122L91.6572 18.2122L91.657 18.2122L91.6568 18.2122L91.6566 18.2122L91.6563 18.2122L91.6561 18.2122L91.6559 18.2121C89.5904 18.1012 87.5245 17.9903 85.46 17.8738C83.2881 17.7515 81.117 17.626 78.9459 17.5006C76.7748 17.3752 74.6037 17.2497 72.4319 17.1274C70.9594 17.045 69.487 16.9665 68.0146 16.888L68.0125 16.8879C66.2939 16.7964 64.5753 16.7048 62.8567 16.6068C60.0126 16.4459 57.1684 16.2801 54.3236 16.1143L54.3222 16.1142L54.3208 16.1141L54.3194 16.1141L54.3179 16.114L54.3165 16.1139L54.3151 16.1138L54.3136 16.1137L54.3122 16.1136L54.3108 16.1136L54.3093 16.1135L54.3087 16.1134L54.308 16.1134L54.3074 16.1134L54.3067 16.1133L54.3061 16.1133L54.3054 16.1132L54.3048 16.1132L54.3041 16.1132L54.3035 16.1131L54.3028 16.1131L54.3022 16.1131L54.3015 16.113L54.3009 16.113L54.3002 16.1129L54.2996 16.1129C51.9987 15.9788 49.6974 15.8447 47.3955 15.7131C45.8622 15.6259 44.3288 15.5418 42.7958 15.4577L42.7953 15.4576L42.7947 15.4576L42.7942 15.4576L42.7936 15.4575L42.7931 15.4575L42.7925 15.4575L42.792 15.4574L42.7914 15.4574L42.7909 15.4574L42.7903 15.4573L42.7898 15.4573L42.7892 15.4573L42.7887 15.4573L42.7881 15.4572L42.7876 15.4572L42.787 15.4572L42.7865 15.4571L42.7859 15.4571L42.7854 15.4571L42.7848 15.457L42.7843 15.457L42.7837 15.457L42.7832 15.4569L42.7825 15.4569L42.7824 15.4569C41.2328 15.3719 39.6836 15.2869 38.1352 15.1988C35.1426 15.0262 32.15 14.8487 29.1144 14.6686C28.0339 14.6045 26.9479 14.5401 25.8546 14.4755L21.7816 1.44175C21.7693 1.40007 21.754 1.35974 21.7357 1.32103C21.6656 1.17147 21.555 1.05032 21.4215 0.966863C21.2837 0.880713 21.1216 0.834727 20.9547 0.839125H8.81C8.3466 0.839125 7.97095 1.21478 7.97095 1.67818C7.97095 2.14157 8.3466 2.51723 8.81 2.51723H20.3595ZM40.5529 59.7527L40.5495 59.753C39.798 59.8328 39.0387 59.9135 38.2674 59.9966V59.9997C37.7228 60.0123 37.4332 59.6359 37.2633 59.0777C36.7519 57.4059 36.2347 55.7355 35.7176 54.0655L35.7175 54.0654L35.7175 54.0654L35.7175 54.0653L35.7174 54.0652L35.7174 54.0651L35.7174 54.065L35.7174 54.0649L35.7173 54.0648L35.7173 54.0647L35.7173 54.0646L35.7172 54.0645L35.7172 54.0644L35.7167 54.0628L35.7165 54.0621C35.4764 53.2868 35.2364 52.5115 34.997 51.7363C34.8467 51.2495 34.6956 50.7628 34.5445 50.2761L34.5443 50.2755L34.5442 50.2753L34.5442 50.2751L34.5441 50.2748L34.544 50.2746L34.544 50.2744L34.5439 50.2741L34.5438 50.2739L34.5438 50.2737L34.5437 50.2735L34.5436 50.2732L34.5435 50.273L34.5435 50.2728L34.5434 50.2725L34.5433 50.2723L34.5433 50.2721L34.5432 50.2719L34.5431 50.2716L34.5431 50.2714L34.543 50.2712L34.5429 50.2709L34.5429 50.2707L34.5428 50.2705L34.5427 50.2703L34.5427 50.27C34.09 48.8121 33.6374 47.3541 33.206 45.8908C33.1846 45.8181 33.1511 45.7401 33.1166 45.6596C32.9785 45.3372 32.8237 44.9758 33.3602 44.765C34.0149 44.511 34.5311 44.7775 34.7483 45.4769C35.6336 48.3207 36.5107 51.1667 37.3878 54.013L37.3883 54.0144L37.3887 54.0157L37.3891 54.0171L37.3895 54.0184L37.39 54.0198L37.3904 54.0212L37.3908 54.0225L37.3912 54.0239L37.3917 54.0253L37.3921 54.0266L37.3925 54.028L37.3929 54.0293L37.3933 54.0307L37.3938 54.0321L37.3942 54.0334L37.3946 54.0348L37.395 54.0362L37.3955 54.0375L37.3959 54.0389L37.3963 54.0402L37.3967 54.0416L37.3972 54.043L37.3976 54.0443L37.398 54.0457L37.3984 54.047L38.0124 56.0389C38.1097 56.3642 38.2133 56.6863 38.3169 57.0085L38.3169 57.0086L38.317 57.0087L38.317 57.0087L38.317 57.0088L38.317 57.0089L38.3171 57.009L38.3171 57.0091L38.3171 57.0092L38.3172 57.0093L38.3172 57.0094L38.3172 57.0095L38.3172 57.0096L38.3173 57.0097L38.3173 57.0097L38.3173 57.0098L38.3174 57.0099L38.3174 57.01L38.3174 57.0101L38.3174 57.0102L38.3175 57.0103L38.3175 57.0104L38.3175 57.0105L38.3176 57.0106L38.3176 57.0107L38.3176 57.0108L38.3177 57.0111L38.3223 57.0253C38.7458 58.3315 38.7507 58.3465 40.1024 58.1934C43.6963 57.7889 47.2895 57.3821 50.8826 56.9753C54.4771 56.5683 58.0716 56.1613 61.6669 55.7567C65.0002 55.3819 68.3343 55.0096 71.6683 54.6372C75.0026 54.2648 78.3368 53.8923 81.6702 53.5176C83.1464 53.3518 84.6228 53.1844 86.0995 53.0169L86.1088 53.0159L86.109 53.0159L86.1092 53.0158L86.1094 53.0158L86.1096 53.0158L86.1099 53.0158L86.1101 53.0157L86.1103 53.0157L86.1105 53.0157L86.1107 53.0157L86.1109 53.0156L86.1111 53.0156L86.1113 53.0156L86.1115 53.0156L86.1117 53.0156L86.1119 53.0155L86.1121 53.0155L86.1123 53.0155L86.1125 53.0155L86.1127 53.0154L86.1129 53.0154L86.1132 53.0154L86.1134 53.0154L86.1136 53.0153L86.1138 53.0153L86.114 53.0153C89.6325 52.6163 93.1522 52.2172 96.6719 51.8398C97.3927 51.7614 97.7137 51.5074 97.8333 50.7704C98.1165 49.0171 98.4324 47.2698 98.7483 45.5222C98.8924 44.7254 99.0364 43.9286 99.1774 43.1311L99.1799 43.1171C99.2545 42.6989 99.3251 42.3024 99.8699 42.2248C100.613 42.1182 100.943 42.3848 100.814 43.1249C100.517 44.8368 100.21 46.5469 99.9029 48.2565L99.9021 48.2607L99.9014 48.2648L99.9007 48.2689L99.8999 48.273L99.8992 48.2771L99.8985 48.2812C99.6575 49.6231 99.4166 50.9648 99.1805 52.3071C99.0609 52.997 98.6234 53.2416 97.9781 53.3137C94.8965 53.6508 91.8149 53.9988 88.7333 54.3467L88.7301 54.3471L86.8827 54.5556C84.6951 54.8018 82.5075 55.0495 80.3199 55.2973C78.1322 55.545 75.9446 55.7928 73.757 56.0389C71.146 56.3319 68.5349 56.6233 65.9242 56.9148L65.9212 56.9151L65.9181 56.9154L65.9151 56.9158L65.9121 56.9161L65.909 56.9165L65.906 56.9168L65.903 56.9172L65.8999 56.9175L65.8969 56.9178L65.8939 56.9182L65.8908 56.9185L65.8878 56.9189L65.8848 56.9192L65.8817 56.9196L65.8787 56.9199L65.8757 56.9203L65.8726 56.9206L65.8696 56.9209L65.8666 56.9213L65.8635 56.9216L65.8605 56.922L65.8575 56.9223L65.8544 56.9227L65.8514 56.923L65.8484 56.9233C63.1184 57.228 60.3888 57.5327 57.66 57.839C55.7879 58.0498 53.9152 58.2623 52.0425 58.4748L52.0345 58.4757C49.508 58.7624 46.9813 59.0491 44.4556 59.3317C43.1653 59.4752 41.8738 59.6124 40.5583 59.7521L40.5529 59.7527ZM101.526 30.612V30.631H103.335C103.351 30.631 103.368 30.6314 103.384 30.6319L103.405 30.6326L103.453 30.6346L103.453 30.6346C103.685 30.6451 103.937 30.6564 103.937 30.3331C103.937 30.0051 103.624 29.983 103.367 29.9648L103.342 29.9631C103.212 29.9543 103.082 29.9454 102.952 29.9365L102.949 29.9363C102.243 29.8878 101.539 29.8395 100.83 29.8157C99.3305 29.7653 97.8305 29.7186 96.3305 29.6719C94.1903 29.6053 92.05 29.5387 89.9107 29.4613C86.3368 29.3325 82.7629 29.1966 79.1889 29.0607C76.0615 28.9418 72.9341 28.8228 69.8067 28.7087C68.2852 28.6532 66.7637 28.6041 65.2425 28.5551C63.4121 28.4961 61.5822 28.4371 59.7532 28.3668C56.2647 28.2333 52.7763 28.095 49.2874 27.9566L49.2873 27.9566L49.2872 27.9566L49.2871 27.9566L49.287 27.9566L49.2869 27.9566L49.2868 27.9566L49.2867 27.9566L49.2866 27.9566L49.2865 27.9566L49.2864 27.9566L49.2862 27.9566L49.2861 27.9566L49.286 27.9566L49.2859 27.9566L49.2858 27.9566L49.2857 27.9566L49.2856 27.9566L49.2855 27.9565L49.2854 27.9565L49.2853 27.9565L49.2852 27.9565C46.4661 27.8447 43.6465 27.7329 40.8264 27.6236C36.7439 27.4668 32.6583 27.3163 28.5758 27.172C27.9211 27.1501 27.2664 27.1595 26.6117 27.172C26.3945 27.1752 26.171 27.2598 26.1741 27.5264C26.1741 27.7867 26.3976 27.8557 26.6148 27.887C26.7459 27.9057 26.8815 27.9108 27.0139 27.9157L27.0838 27.9184C31.1946 28.0564 35.3023 28.1944 39.4131 28.3606C42.1613 28.4703 44.9095 28.5678 47.6576 28.6653C49.3067 28.7239 50.9558 28.7824 52.6049 28.8435C54.1157 28.8991 55.6269 28.9522 57.1384 29.0054L57.139 29.0055L57.1396 29.0055L57.1402 29.0055L57.1409 29.0055L57.1415 29.0056L57.1421 29.0056L57.1427 29.0056L57.1433 29.0056L57.1439 29.0056L57.1445 29.0057L57.1451 29.0057L57.1457 29.0057L57.1463 29.0057L57.1469 29.0058L57.1475 29.0058L57.1481 29.0058L57.1487 29.0058L57.1493 29.0059L57.1499 29.0059L57.1506 29.0059L57.1512 29.0059L57.1518 29.0059L57.1524 29.006L57.153 29.006C59.9035 29.1028 62.6549 29.1996 65.4063 29.3108C67.8691 29.4116 70.3326 29.4865 72.7961 29.5613L72.7963 29.5613C75.465 29.6424 78.1336 29.7235 80.8014 29.8376C81.6537 29.8745 82.5068 29.8979 83.3599 29.9212L83.3602 29.9212L83.3606 29.9213L83.3609 29.9213L83.3612 29.9213L83.3615 29.9213L83.3618 29.9213L83.3622 29.9213L83.3625 29.9213L83.3628 29.9213L83.3631 29.9213L83.3634 29.9214L83.3638 29.9214L83.3641 29.9214L83.3644 29.9214L83.3647 29.9214L83.3651 29.9214L83.3654 29.9214L83.3657 29.9214L83.366 29.9214L83.3663 29.9215L83.3667 29.9215L83.367 29.9215L83.3673 29.9215L83.3676 29.9215L83.3677 29.9215L83.3678 29.9215L83.368 29.9215L83.3681 29.9215L83.3682 29.9215L83.3683 29.9215L83.3684 29.9215L83.3685 29.9216L83.3686 29.9216L83.3688 29.9216L83.3689 29.9216L83.369 29.9216L83.3691 29.9216L83.3692 29.9216L83.3693 29.9216L83.3694 29.9216L83.3696 29.9216L83.3697 29.9216L83.3698 29.9216L83.3699 29.9216L83.37 29.9216L83.3701 29.9216L83.3702 29.9216L83.3704 29.9216C84.1112 29.9419 84.852 29.9622 85.5922 29.9913C89.1333 30.1272 92.6745 30.2658 96.2156 30.4044C97.9856 30.4737 99.7556 30.543 101.526 30.612ZM35.1951 44.0193L35.195 44.0193C34.6261 44.0703 34.0566 44.1213 33.483 44.1033C33.3195 44.1033 33.1558 44.104 32.9919 44.1047H32.9915H32.9912H32.9909H32.9906H32.9902H32.9899H32.9896H32.9893H32.9889H32.9886H32.9883H32.9879H32.9876H32.9873H32.987H32.9866H32.9863H32.986H32.9857H32.9853H32.985H32.9847H32.9844H32.984C32.6539 44.1061 32.3233 44.1075 31.9941 44.1033C31.9473 44.1027 31.8972 44.1059 31.8464 44.1092C31.6241 44.1235 31.3885 44.1386 31.3551 43.8399C31.3182 43.5084 31.5999 43.4815 31.8403 43.4586L31.8885 43.4539L31.9154 43.451L32.0035 43.4409L32.0035 43.4409C32.4687 43.3876 32.9365 43.3341 33.4043 43.3193C34.7793 43.2735 36.1543 43.2316 37.5293 43.1897C39.8213 43.1198 42.1133 43.05 44.4053 42.9618C47.5769 42.8385 50.7486 42.7034 53.9207 42.5682L53.9223 42.5681L53.924 42.568L53.9256 42.568L53.9273 42.5679L53.9289 42.5678L53.9306 42.5678L53.9322 42.5677L53.9339 42.5676L53.9355 42.5676L53.9372 42.5675L53.9388 42.5674L53.9405 42.5674L53.9421 42.5673L53.9438 42.5672L53.9454 42.5672L53.9471 42.5671L53.9487 42.567L53.9504 42.5669L53.952 42.5669L53.9537 42.5668L53.9553 42.5667L53.957 42.5667L53.9586 42.5666C56.664 42.4513 59.3697 42.336 62.0761 42.228C63.8139 42.1597 65.5518 42.1032 67.2896 42.0467H67.2896H67.2897H67.2897H67.2898H67.2899H67.2899H67.29H67.29H67.2901H67.2901H67.2902H67.2903H67.2903H67.2904H67.2904H67.2905H67.2905H67.2906H67.2907H67.2907H67.2908H67.2908H67.2909C68.9049 41.9942 70.5189 41.9418 72.1328 41.8799C75.5443 41.7499 78.9557 41.6135 82.3672 41.4771L82.3755 41.4768C85.2975 41.36 88.2195 41.2432 91.1415 41.1304C93.5788 41.0362 96.0178 40.9526 98.4573 40.869C99.266 40.8412 100.075 40.8135 100.883 40.7854L100.883 40.7854C101.041 40.7791 101.198 40.7729 101.356 40.7886L101.385 40.7911L101.418 40.7936L101.471 40.7969C101.704 40.8108 101.959 40.826 101.976 41.121C101.997 41.5127 101.647 41.5281 101.37 41.5403L101.349 41.5412C100.642 41.5754 99.9353 41.5905 99.2279 41.6057H99.2278C98.4425 41.6226 97.6568 41.6394 96.8702 41.6823C94.779 41.797 92.6854 41.8586 90.5916 41.9203L90.5913 41.9203L90.5907 41.9203C89.3064 41.9582 88.0219 41.996 86.7379 42.0461C84.1248 42.1459 81.5118 42.2561 78.8982 42.3663L78.8961 42.3664L78.8956 42.3664L78.8951 42.3664L78.8946 42.3664L78.8941 42.3665L78.8936 42.3665L78.8931 42.3665L78.8926 42.3665L78.8921 42.3666L78.8916 42.3666L78.8911 42.3666L78.8906 42.3666L78.8901 42.3666L78.8896 42.3667L78.8891 42.3667L78.8886 42.3667L78.8881 42.3667L78.8876 42.3668L78.8871 42.3668L78.8866 42.3668L78.8861 42.3668L78.8856 42.3669L78.8851 42.3669L78.8849 42.3669C76.7396 42.4573 74.5939 42.5478 72.4476 42.6325C71.7027 42.6622 70.9586 42.688 70.215 42.7138C69.4659 42.7397 68.7172 42.7657 67.9685 42.7956C64.8855 42.9182 61.8018 43.0203 58.7184 43.1224L58.7173 43.1224C55.4105 43.2319 52.1041 43.3414 48.7994 43.4761C47.8154 43.5159 46.8316 43.5577 45.8478 43.5994L45.8474 43.5994L45.847 43.5994L45.8467 43.5994L45.8463 43.5995L45.8459 43.5995L45.8455 43.5995L45.8451 43.5995L45.8447 43.5995L45.8443 43.5995L45.8439 43.5995L45.8435 43.5995L45.8432 43.5995L45.8428 43.5996L45.8424 43.5996L45.842 43.5996L45.8416 43.5996L45.8412 43.5996L45.8408 43.5996L45.8404 43.5996L45.84 43.5996L45.8397 43.5996L45.8393 43.5997L45.8389 43.5997C42.7158 43.7323 39.5932 43.8649 36.4669 43.934C36.0423 43.9433 35.6188 43.9813 35.1951 44.0193ZM28.73 28.5895C28.0501 28.4829 27.9337 28.8028 28.1225 29.4111C28.8096 31.6182 29.4888 33.8284 30.1679 36.0383C30.447 36.9466 30.7261 37.8548 31.0058 38.7627C31.1211 39.1367 31.234 39.5113 31.3469 39.886L31.3471 39.8868C31.573 40.6366 31.799 41.3865 32.0445 42.1308C32.2365 42.7141 32.8629 42.9712 33.442 42.736C33.9181 42.5427 33.788 42.2159 33.6707 41.921C33.6453 41.8572 33.6205 41.7948 33.6026 41.7356C33.0199 39.828 32.4325 37.9216 31.8451 36.0151L31.8447 36.0136C31.1566 33.7805 30.4684 31.547 29.7876 29.3108C29.6208 28.7683 29.3155 28.5236 28.7332 28.5895H28.73ZM102.164 31.2363C102.63 31.2708 102.851 31.4307 102.794 31.9168H102.8L101.762 37.7686C101.711 38.0498 101.664 38.3311 101.616 38.6124L101.615 38.6153L101.615 38.6183L101.615 38.6185L101.615 38.6187L101.615 38.6189L101.615 38.6192L101.615 38.6194L101.614 38.6196L101.614 38.6199L101.614 38.6201L101.614 38.6203L101.614 38.6205L101.614 38.6208L101.614 38.621L101.614 38.6212L101.614 38.6215L101.614 38.6217L101.614 38.6219L101.614 38.6221L101.614 38.6224C101.566 38.9023 101.519 39.1821 101.469 39.462C101.409 39.7913 101.252 40.0296 100.896 40.1269C99.8856 40.406 99.6747 40.2209 99.8604 39.1892C99.9545 38.6649 100.049 38.1406 100.144 37.6162L100.144 37.616L100.144 37.6159L100.144 37.6157L100.144 37.6156L100.144 37.6154L100.144 37.6153L100.144 37.6151L100.144 37.615L100.144 37.6148L100.144 37.6147L100.144 37.6145L100.144 37.6144L100.144 37.6142L100.144 37.6141L100.144 37.6139L100.144 37.6138L100.144 37.6136L100.144 37.6135L100.144 37.6133L100.144 37.6132L100.144 37.613C100.47 35.805 100.796 33.996 101.104 32.1834C101.211 31.553 101.444 31.183 102.164 31.2363ZM38.0641 29.4974C38.0796 29.5747 38.0974 29.663 38.1257 29.7498L38.1267 29.7528L38.1276 29.7557C39.3955 33.7866 40.6633 37.8176 41.9407 41.8454L41.9473 41.8665L41.9616 41.9124L41.9621 41.9141L41.9623 41.915C42.0479 42.1932 42.1535 42.5367 42.545 42.3691C42.8786 42.2259 42.7729 41.929 42.6788 41.665C42.6712 41.6437 42.6637 41.6226 42.6565 41.6019L42.6438 41.5645L42.6363 41.5412C41.4187 37.6574 40.1948 33.7767 38.9709 29.8961L38.9706 29.8951L38.9693 29.8909C38.8906 29.6432 38.7993 29.3955 38.6829 29.1665C38.5947 28.9972 38.4279 28.8937 38.2233 28.9752C38.047 29.0442 38.0313 29.2042 38.0439 29.4049V29.4017C38.0507 29.4307 38.0572 29.463 38.0641 29.4974ZM49.7437 30.1042C49.7301 30.0501 49.7247 29.9945 49.7192 29.9383L49.7163 29.9095C49.715 29.897 49.7137 29.8846 49.7122 29.8721H49.7153L49.7149 29.8602C49.7086 29.6778 49.7013 29.4666 49.9231 29.4237C50.2221 29.3641 50.3417 29.6056 50.4015 29.8345C50.6911 30.9446 50.9744 32.0579 51.2419 33.1743C51.6627 34.9299 52.0776 36.6868 52.4927 38.4443L52.4932 38.4464L52.4937 38.4486L52.4939 38.4492L52.494 38.4498L52.4942 38.4504L52.4943 38.451L52.4956 38.4565C52.6913 39.285 52.887 40.1136 53.0833 40.9422C53.0904 40.9748 53.0989 41.0073 53.1074 41.04L53.1074 41.0401L53.1075 41.0401L53.1075 41.0402L53.1075 41.0403L53.1075 41.0404L53.1076 41.0405L53.1076 41.0405C53.1253 41.1084 53.143 41.1767 53.1494 41.2464C53.1549 41.2999 53.1669 41.3573 53.1791 41.4154C53.2235 41.6263 53.27 41.8478 53.0109 41.9363C52.6395 42.0649 52.5041 41.7294 52.438 41.4502C51.7604 38.6134 51.0882 35.7766 50.4159 32.9398C50.1919 31.9946 49.9679 31.0494 49.7437 30.1042ZM47.1066 55.8501C47.0947 55.7992 47.0829 55.7483 47.0682 55.7002C46.784 54.7991 46.5 53.8979 46.216 52.9968L46.2149 52.9931C45.3637 50.2922 44.5126 47.5913 43.6561 44.8904L43.6462 44.8591C43.563 44.596 43.4562 44.2584 43.1021 44.373C42.7672 44.4824 42.8657 44.7708 42.9485 45.0133L42.9486 45.0134L42.9486 45.0134L42.9486 45.0135C42.9574 45.0391 42.9659 45.0642 42.9738 45.0886L42.9825 45.1162C44.0905 48.6756 45.2048 52.2318 46.319 55.7881C46.3568 55.9104 46.4103 56.0358 46.4796 56.1424C46.5834 56.3055 46.7282 56.4184 46.9391 56.3243C47.1091 56.249 47.1311 56.0922 47.1248 55.9292V55.926C47.1214 55.9123 47.118 55.8984 47.1147 55.8845L47.1066 55.8501ZM61.7337 33.9945L61.7331 33.9902L61.7319 33.9824C61.5561 32.7865 61.3812 31.5962 61.2074 30.4147V30.4115C61.212 30.3394 61.2078 30.2662 61.2037 30.196C61.1912 29.9794 61.1804 29.7924 61.4372 29.7592C61.7582 29.7185 61.8904 30.0038 61.9345 30.2641C62.1045 31.2676 62.2618 32.2743 62.4066 33.281C62.7623 35.7615 63.1086 38.2421 63.4548 40.7227C63.4768 40.8795 63.4957 41.0332 63.5052 41.19C63.5146 41.3844 63.4705 41.5663 63.2502 41.6165C63.0267 41.6635 62.9134 41.5161 62.8441 41.3311C62.8095 41.2339 62.7843 41.1304 62.7686 41.0269C62.4217 38.6756 62.0761 36.3242 61.7337 33.9945ZM56.3185 54.8043C56.3047 54.7258 56.291 54.6476 56.2719 54.5713L56.0496 53.627C55.3461 50.639 54.6422 47.649 53.9332 44.6615C53.8986 44.511 53.8419 44.3605 53.7695 44.2225C53.694 44.0782 53.5649 43.9747 53.3886 44.0092C53.162 44.0563 53.1148 44.2319 53.1305 44.4295C53.1431 44.5831 53.1777 44.7399 53.2155 44.8904C53.4265 45.7877 53.637 46.6852 53.8475 47.5829L53.8476 47.5835C54.3404 49.685 54.8333 51.7871 55.3339 53.8876C55.4314 54.2922 55.5637 54.6905 55.7147 55.0793C55.784 55.2581 55.9603 55.3584 56.168 55.28C56.3457 55.214 56.339 55.0533 56.3325 54.8994L56.3317 54.8786C56.3272 54.8538 56.3228 54.8291 56.3185 54.8043ZM72.6611 34.3132V34.3133C72.7258 35.3856 72.7905 36.4583 72.775 37.5334H72.7718V40.5094C72.7723 40.5515 72.7754 40.5962 72.7784 40.6417L72.7785 40.642C72.794 40.8706 72.8108 41.1183 72.5168 41.1523C72.1386 41.1991 72.1154 40.873 72.0962 40.6025L72.0962 40.6018L72.0961 40.601C72.0947 40.5816 72.0934 40.5626 72.0919 40.5439C71.9975 39.2676 71.9251 37.9944 71.9251 36.7117C71.9257 36.4086 71.9287 36.1054 71.9317 35.8021V35.802V35.8018V35.8016V35.8014V35.8013V35.8011V35.8009V35.8007V35.8006V35.8004V35.8002V35.8001C71.9441 34.5383 71.9565 33.2757 71.7992 32.0172C71.7614 31.7067 71.7709 31.39 71.7897 31.0763C71.7932 31.0164 71.7923 30.9511 71.7914 30.8841C71.7871 30.5901 71.7825 30.2663 72.1517 30.2484C72.5818 30.2288 72.565 30.6245 72.5521 30.9305C72.5505 30.9671 72.549 31.0024 72.5483 31.0356C72.5293 32.1287 72.5952 33.2202 72.6611 34.3121V34.3122V34.3123V34.3123V34.3124V34.3125V34.3126V34.3127V34.3127V34.3128V34.3129V34.313V34.3131V34.3131V34.3132ZM65.1596 52.66L65.1596 52.6598L65.1596 52.6596L65.1596 52.6594L65.1596 52.6592L65.1595 52.6591L65.1595 52.6589L65.1595 52.6587L65.1595 52.6585L65.1594 52.6583L65.1594 52.6581L65.1594 52.658L65.1594 52.6578L65.1594 52.6576L65.1593 52.6574C65.0564 51.8684 64.9534 51.0787 64.8398 50.2906C64.547 48.2554 64.2449 46.217 63.9332 44.1848L63.9274 44.1461C63.8882 43.8812 63.8388 43.5475 63.4579 43.5953C63.1463 43.636 63.1872 43.9402 63.2219 44.1692C63.6751 47.3679 64.1284 50.5635 64.5942 53.7622C64.6289 54.0068 64.6855 54.3455 65.0412 54.2828C65.2936 54.2395 65.2956 54.0097 65.2974 53.7984L65.2977 53.767C65.298 53.7441 65.2984 53.7215 65.2993 53.6995H65.2962C65.2501 53.3533 65.2049 53.0069 65.1597 52.6603L65.1596 52.66ZM83.1779 30.5589C83.4774 30.6009 83.4656 30.8248 83.454 31.0439C83.45 31.1195 83.446 31.1946 83.4549 31.2614H83.4581C83.3038 32.5203 83.1501 33.7781 82.9965 35.0352L82.9918 35.0739C82.7865 36.7538 82.5814 38.4325 82.3753 40.1112C82.3595 40.2398 82.3343 40.3715 82.2966 40.4938C82.2305 40.7039 82.1266 40.9014 81.8591 40.8356C81.6419 40.7823 81.601 40.5878 81.6167 40.3966C81.6482 39.9826 81.6828 39.5655 81.7331 39.1516C81.9322 37.4814 82.1339 35.8125 82.3357 34.1432L82.3364 34.137L82.3373 34.13L82.3381 34.1229L82.3392 34.1141L82.3399 34.1081C82.4462 33.2284 82.5526 32.3486 82.6586 31.4684L82.6622 31.4374L82.6642 31.4193L82.6662 31.4002C82.675 31.3196 82.6837 31.2394 82.7058 31.161C82.7178 31.1188 82.7282 31.0734 82.7389 31.0273C82.7955 30.7823 82.8574 30.5141 83.1779 30.5589ZM73.0362 50.438H72.8599V50.4301C72.8599 48.2469 72.8599 46.0607 72.8568 43.8775C72.8568 43.6235 72.8568 43.2848 72.5168 43.2629C72.1369 43.2364 72.1207 43.5588 72.1074 43.8264L72.1045 43.8806C72.0856 44.2444 72.0699 44.6113 72.1045 44.9751C72.2555 46.4959 72.2502 48.0195 72.2449 49.5422V49.5423C72.2421 50.3368 72.2393 51.131 72.2587 51.9245C72.2602 51.9788 72.2606 52.0332 72.2611 52.0876C72.2626 52.269 72.2641 52.4501 72.3028 52.6238C72.319 52.6992 72.325 52.7874 72.3311 52.8775C72.3499 53.1548 72.37 53.4502 72.6931 53.4455C73.0624 53.4403 73.0472 53.1043 73.0341 52.812C73.0311 52.7455 73.0282 52.6813 73.0299 52.6238C73.0455 52.1113 73.0422 51.5973 73.0389 51.0828V51.0826V51.0823V51.0821V51.0819V51.0816V51.0814V51.0811V51.0809V51.0806V51.0804V51.0802V51.0799C73.0376 50.865 73.0362 50.6499 73.0362 50.4349V50.438ZM37.8249 26.3712L37.825 26.3712C37.8378 26.4208 37.8498 26.4669 37.8613 26.5072L37.8582 26.5103C37.8928 26.6859 37.8928 26.8208 37.7574 26.8929C37.6064 26.9745 37.449 26.94 37.3168 26.8396C37.146 26.7112 37.0864 26.5203 37.0268 26.3291L37.0178 26.3002C36.6091 24.9942 36.2004 23.6889 35.7917 22.3837C35.382 21.0751 34.9723 19.7665 34.5626 18.4571C34.5185 18.3097 34.4745 18.1592 34.4398 18.0055C34.3989 17.8205 34.3737 17.6198 34.6004 17.5414C34.805 17.4692 34.9781 17.5915 35.0536 17.7609C35.233 18.1654 35.3999 18.5794 35.5321 18.9996C36.1034 20.8106 36.6674 22.6235 37.2311 24.4353L37.2313 24.436L37.2315 24.4367L37.2317 24.4374L37.2319 24.4381L37.2321 24.4387L37.2323 24.4394L37.2325 24.4401L37.2327 24.4408L37.233 24.4415L37.2332 24.4422L37.2334 24.4428C37.4049 24.9941 37.5764 25.5453 37.748 26.0964C37.7779 26.1897 37.8027 26.2856 37.8249 26.3712ZM91.8482 39.9401C91.8413 40.2389 91.836 40.4675 92.1424 40.4906C92.4588 40.5138 92.5128 40.2303 92.5588 39.9893C92.5627 39.9689 92.5666 39.9488 92.5705 39.9293C92.8789 38.4209 93.1843 36.9093 93.4802 35.3978C93.7257 34.1402 93.9649 32.8827 94.201 31.6252C94.245 31.39 94.2702 31.1014 93.9838 31.0262C93.6344 30.9321 93.5462 31.2332 93.4864 31.4903C93.4258 31.7453 93.3764 32.0003 93.3268 32.2564L93.3267 32.2569C93.3068 32.3597 93.2868 32.4627 93.2661 32.566L92.9996 33.913L92.9942 33.94L92.9814 34.005L92.9717 34.0538L92.9611 34.1074C92.5821 36.0228 92.2065 37.9211 91.8465 39.7317H91.8497C91.8514 39.8037 91.8498 39.8736 91.8482 39.9401ZM80.4804 52.5893C80.1318 52.5404 80.175 52.2859 80.2126 52.065C80.2279 51.9747 80.2423 51.8901 80.2286 51.8273V51.8241C80.3671 50.6717 80.5035 49.5333 80.6389 48.4033L80.6586 48.2383L80.6624 48.2067L80.668 48.1597C80.855 46.5989 81.0402 45.0532 81.2264 43.5075L81.2302 43.4759C81.2604 43.2212 81.2966 42.9156 81.623 42.9367C82.0227 42.9649 81.9913 43.3287 81.9566 43.6078C81.6324 46.3518 81.3019 49.0958 80.9557 51.8367C80.9498 51.8811 80.9454 51.9297 80.9409 51.9803C80.9143 52.2797 80.8816 52.6457 80.4804 52.5893ZM49.7377 26.8645C49.7322 26.8309 49.7267 26.797 49.7185 26.7644L49.5853 26.2126C48.9875 23.7368 48.3892 21.2586 47.7827 18.7832C47.7197 18.5292 47.6064 18.2125 47.2854 18.2846C46.9261 18.3656 47.0081 18.6359 47.0783 18.8671C47.0923 18.9135 47.1059 18.9583 47.1154 18.9996C47.6946 21.5147 48.2895 24.0266 48.8844 26.5386C48.9316 26.7393 49.0008 26.94 49.089 27.1281C49.1739 27.3069 49.3345 27.4135 49.5391 27.3633C49.772 27.3037 49.7657 27.1093 49.7437 26.9211L49.7468 26.918C49.7449 26.9079 49.7431 26.8977 49.7414 26.8874L49.7377 26.8645L49.7377 26.8645ZM89.832 51.6046C89.6303 51.546 89.6331 51.3731 89.6361 51.1811V51.1805L89.6364 51.1613L89.6368 51.1315L89.6369 51.1123L89.9552 49.4793C90.1105 48.6824 90.2672 47.8788 90.4238 47.0762C90.5417 46.4764 90.6588 45.8757 90.7759 45.275L90.7762 45.2736C90.8935 44.6721 91.0108 44.0706 91.1289 43.4698L91.1402 43.4105L91.1469 43.3742L91.147 43.3738L91.147 43.3737C91.1746 43.2256 91.2025 43.0758 91.2516 42.9367C91.3429 42.6827 91.4846 42.4067 91.7993 42.4977C92.0745 42.5748 92.0207 42.8288 91.9757 43.0417L91.9664 43.0858L91.963 43.1029C91.4625 45.687 90.9557 48.2711 90.449 50.8551C90.4175 51.0056 90.3703 51.1593 90.3073 51.3004C90.2224 51.5043 90.0807 51.6768 89.832 51.6046ZM61.1638 24.7124L61.1635 24.7097L61.1624 24.7026L61.162 24.6998L61.161 24.6928L61.1607 24.691C60.9095 22.9492 60.6609 21.2261 60.4079 19.5045C60.3701 19.2474 60.3071 18.9243 59.9609 18.9745C59.6115 19.0247 59.6524 19.3665 59.6871 19.6143C60.0365 22.1231 60.3984 24.6319 60.7636 27.1407L60.7658 27.1557C60.8031 27.4073 60.8493 27.7197 61.2042 27.6644C61.5051 27.6168 61.507 27.3564 61.5085 27.156L61.5088 27.1258L61.509 27.1084L61.5095 27.0874L61.5064 27.0842C61.3914 26.2901 61.2776 25.5013 61.1644 24.7164L61.1638 24.7124ZM72.4168 23.0247V23.0248V23.0252C72.4297 23.4897 72.4426 23.9543 72.4665 24.4186V27.5483C72.4665 27.5788 72.4674 27.6103 72.4684 27.6423L72.4685 27.6426C72.475 27.8538 72.4821 28.081 72.2115 28.1191C71.8495 28.1693 71.7992 27.8525 71.7835 27.5923C71.6292 25.1179 71.5757 22.6405 71.6198 20.1631L71.6202 20.1223C71.6219 19.9061 71.6242 19.6248 71.9377 19.6425C72.197 19.6586 72.2176 19.8895 72.2361 20.0974C72.2391 20.1318 72.2421 20.1655 72.2462 20.1976C72.3643 21.1369 72.3905 22.0804 72.4168 23.0244V23.0245V23.0246V23.0247V23.0247ZM94.0782 28.3261C94.0656 28.693 94.0908 28.9313 94.3678 28.9282C94.7391 28.9251 94.8053 28.5991 94.8619 28.3201L94.862 28.3198C95.2963 26.0964 95.7244 23.873 96.1399 21.6464C96.1451 21.6184 96.1514 21.5886 96.1578 21.5578C96.2066 21.3265 96.2679 21.0354 95.9762 20.969C95.5749 20.8765 95.4984 21.2412 95.4377 21.5307L95.4285 21.5743C95.2096 22.5992 95.0039 23.6263 94.7986 24.6519L94.6794 25.2465C94.5364 25.9631 94.3976 26.6796 94.2668 27.355C94.2018 27.6905 94.1388 28.0159 94.0782 28.3261ZM84.4464 20.3355C84.7461 20.3737 84.7199 20.5903 84.6948 20.7989C84.6848 20.8816 84.6749 20.9631 84.6856 21.0317H84.6888C84.622 21.586 84.5556 22.1392 84.4892 22.6916L84.4879 22.7026C84.2796 24.4372 84.0723 26.1637 83.8578 27.8902C83.8537 27.9214 83.8503 27.9547 83.8468 27.9889C83.8208 28.2434 83.7893 28.552 83.4203 28.4829C83.0677 28.417 83.1024 28.0376 83.1339 27.7585C83.2968 26.2972 83.4707 24.836 83.6445 23.3762L83.645 23.3718L83.6456 23.3665C83.6997 22.9121 83.7537 22.4579 83.8074 22.0039C83.8154 21.9324 83.823 21.8609 83.8305 21.7894L83.8305 21.7893L83.8306 21.7891L83.8306 21.7889C83.8588 21.5221 83.8869 21.2562 83.9365 20.9941L83.9414 20.9675L83.9494 20.9228C84.0012 20.6325 84.063 20.2863 84.4464 20.3355Z" fill="#CCCCCC"/>
<path d="M0 1.67811C0 0.751314 0.751314 0 1.67811 0H11.7467C12.6735 0 13.4249 0.751314 13.4249 1.67811C13.4249 2.6049 12.6735 3.35621 11.7467 3.35621H1.67811C0.751314 3.35621 0 2.6049 0 1.67811Z" fill="#346BD5"/>
<defs>
<clipPath id="clip0_32_174">
<rect width="47.826" height="38.5964" fill="white" transform="translate(44.4697 8.39053)"/>
</clipPath>
</defs>
</svg>
