<svg width="143" height="39" viewBox="0 0 143 39" fill="none" xmlns="http://www.w3.org/2000/svg">
<path d="M134.526 19.0667L66.7334 19.0667" stroke="#F3F3F3" stroke-width="2" stroke-linecap="round" stroke-dasharray="4 4"/>
<path d="M66.7334 6.35557V13.7704" stroke="#F3F3F3" stroke-width="2" stroke-linecap="round" stroke-dasharray="4 4"/>
<path d="M63.0259 6.35556H55.6111" stroke="#F3F3F3" stroke-width="2" stroke-linecap="round" stroke-dasharray="4 4"/>
<path d="M63.0259 30.7185H55.6111" stroke="#F3F3F3" stroke-width="2" stroke-linecap="round" stroke-dasharray="4 4"/>
<path d="M66.7334 23.3037V30.7185" stroke="#F3F3F3" stroke-width="2" stroke-linecap="round" stroke-dasharray="4 4"/>
<path d="M91.2584 3.94923C92.1487 3.46786 93.2217 3.46786 94.112 3.94923L99.4433 6.83171L104.605 10.0075C105.467 10.5378 106.004 11.4671 106.032 12.4788L106.201 18.537L106.032 24.5953C106.004 25.607 105.467 26.5363 104.605 27.0666L99.4433 30.2424L94.112 33.1248C93.2217 33.6062 92.1487 33.6062 91.2584 33.1248L85.9271 30.2424L80.7652 27.0666C79.9031 26.5363 79.3666 25.607 79.3384 24.5953L79.169 18.537L79.3384 12.4788C79.3666 11.4671 79.9031 10.5378 80.7652 10.0075L85.9271 6.83171L91.2584 3.94923Z" fill="#F3F3F3"/>
<path d="M126.214 3.94923C127.104 3.46786 128.177 3.46786 129.068 3.94923L134.399 6.83171L139.561 10.0075C140.423 10.5378 140.959 11.4671 140.988 12.4788L141.157 18.537L140.988 24.5953C140.959 25.607 140.423 26.5363 139.561 27.0666L134.399 30.2424L129.068 33.1248C128.177 33.6062 127.104 33.6062 126.214 33.1248L120.883 30.2424L115.721 27.0666C114.859 26.5363 114.322 25.607 114.294 24.5953L114.125 18.537L114.294 12.4788C114.322 11.4671 114.859 10.5378 115.721 10.0075L120.883 6.83171L126.214 3.94923Z" fill="#F3F3F3"/>
<ellipse cx="92.6853" cy="18.537" rx="10.063" ry="10.063" fill="#346BD5"/>
<ellipse cx="127.641" cy="18.537" rx="10.063" ry="10.063" fill="#346BD5"/>
<path d="M89.6816 17.8298V16.4351H95.6896V17.8298H89.6816ZM89.6816 20.7187V19.3239H95.6896V20.7187H89.6816Z" fill="white"/>
<path d="M127.314 24.4593V12.9037H128.054V24.4593H127.314ZM129.449 16.6006C129.407 16.2064 129.229 15.8994 128.916 15.6798C128.606 15.4601 128.203 15.3502 127.707 15.3502C127.358 15.3502 127.058 15.4029 126.808 15.5082C126.559 15.6136 126.368 15.7565 126.235 15.9371C126.103 16.1176 126.035 16.3237 126.032 16.5555C126.032 16.748 126.076 16.9151 126.163 17.0565C126.253 17.1979 126.375 17.3183 126.529 17.4176C126.682 17.5139 126.852 17.5952 127.039 17.6614C127.225 17.7276 127.413 17.7832 127.603 17.8284L128.47 18.045C128.819 18.1263 129.154 18.2361 129.476 18.3746C129.801 18.513 130.092 18.6875 130.347 18.8982C130.606 19.1088 130.811 19.3631 130.961 19.661C131.112 19.9589 131.187 20.308 131.187 20.7082C131.187 21.2499 131.048 21.7269 130.772 22.1391C130.495 22.5484 130.095 22.8689 129.571 23.1006C129.05 23.3293 128.42 23.4436 127.68 23.4436C126.96 23.4436 126.336 23.3323 125.806 23.1096C125.28 22.8869 124.867 22.5619 124.57 22.1346C124.275 21.7073 124.115 21.1867 124.091 20.5728H125.739C125.763 20.8948 125.862 21.1626 126.037 21.3763C126.211 21.5899 126.438 21.7494 126.718 21.8548C127.001 21.9601 127.317 22.0127 127.666 22.0127C128.03 22.0127 128.349 21.9586 128.623 21.8502C128.9 21.7389 129.117 21.5854 129.273 21.3898C129.429 21.1912 129.509 20.9595 129.512 20.6947C129.509 20.4539 129.439 20.2553 129.3 20.0989C129.162 19.9394 128.968 19.807 128.718 19.7016C128.471 19.5933 128.182 19.497 127.851 19.4127L126.799 19.1419C126.038 18.9463 125.436 18.6499 124.994 18.2527C124.554 17.8524 124.335 17.3213 124.335 16.6593C124.335 16.1146 124.482 15.6376 124.777 15.2284C125.075 14.8191 125.48 14.5016 125.991 14.2759C126.503 14.0472 127.082 13.9329 127.729 13.9329C128.385 13.9329 128.96 14.0472 129.454 14.2759C129.95 14.5016 130.34 14.8161 130.623 15.2193C130.906 15.6196 131.051 16.08 131.061 16.6006H129.449Z" fill="white"/>
<rect x="0.5" y="0.5" width="53.0222" height="13.8296" rx="1.5" fill="#F3F3F3" stroke="#346BD5" stroke-dasharray="2 2"/>
<rect x="0.5" y="23.8037" width="53.0222" height="13.8296" rx="1.5" fill="#F3F3F3" stroke="#346BD5" stroke-dasharray="2 2"/>
</svg>
