<svg width="75" height="60" viewBox="0 0 75 60" fill="none" xmlns="http://www.w3.org/2000/svg">
<g clip-path="url(#clip0_32_175)">
<path d="M74.5157 5.625V0H44.7092C42.6484 0 40.9834 1.67578 40.9834 3.75V43.6641L0.686479 54.5391C0.185824 54.668 -0.105255 55.1836 0.02282 55.6875L0.989201 59.3086C1.11728 59.8125 1.62957 60.1055 2.13023 59.9766L48.4932 47.4609C48.8076 54.4336 54.4778 60 61.4753 60C68.6824 60 74.5157 54.1289 74.5157 46.875C74.5157 39.6211 68.6824 33.75 61.4753 33.75C56.2825 33.75 51.8348 36.832 49.7391 41.25H46.5721V5.625H74.5157ZM61.4753 39.375C65.5854 39.375 68.927 42.7383 68.927 46.875C68.927 51.0117 65.5854 54.375 61.4753 54.375C57.3653 54.375 54.0237 51.0117 54.0237 46.875C54.0237 42.7383 57.3653 39.375 61.4753 39.375ZM5.84439 44.0156C6.11218 45.0117 7.13678 45.6094 8.12645 45.3398L33.3222 38.543C34.3119 38.2734 34.9057 37.2422 34.6379 36.2461L28.8512 14.5078C28.5835 13.5117 27.5589 12.9141 26.5692 13.1836L17.5807 15.6211L20.4682 26.4844L13.2727 28.418L10.3852 17.5547L1.38507 19.9805C0.395401 20.25 -0.1984 21.2813 0.0693926 22.2773L5.84439 44.0156Z" fill="#346BD5"/>
<path d="M74.5157 5.625V0H44.7092C42.6484 0 40.9834 1.67578 40.9834 3.75V43.6641L0.686479 54.5391C0.185824 54.668 -0.105255 55.1836 0.02282 55.6875L0.989201 59.3086C1.11728 59.8125 1.62957 60.1055 2.13023 59.9766L48.4932 47.4609C48.8076 54.4336 54.4778 60 61.4753 60C68.6824 60 74.5157 54.1289 74.5157 46.875C74.5157 39.6211 68.6824 33.75 61.4753 33.75C56.2825 33.75 51.8348 36.832 49.7391 41.25H46.5721V5.625H74.5157ZM61.4753 39.375C65.5854 39.375 68.927 42.7383 68.927 46.875C68.927 51.0117 65.5854 54.375 61.4753 54.375C57.3653 54.375 54.0237 51.0117 54.0237 46.875C54.0237 42.7383 57.3653 39.375 61.4753 39.375Z" fill="#CCCCCC"/>
</g>
<defs>
<clipPath id="clip0_32_175">
<rect width="74.5161" height="60" fill="white"/>
</clipPath>
</defs>
</svg>
