<svg width="141" height="60" viewBox="0 0 141 60" fill="none" xmlns="http://www.w3.org/2000/svg">
<rect x="0.5" y="0.5" width="59" height="59" rx="4.5" fill="#F3F3F3" stroke="#F3F3F3"/>
<rect x="8.72705" y="8.72723" width="42.5454" height="42.5454" rx="3" fill="white"/>
<path fill-rule="evenodd" clip-rule="evenodd" d="M34.5652 15.6681L34.9197 16.3773L35.4906 17.519L35.6828 17.5862L39.6364 18.97L39.8568 19.0471L39.9945 19.2358L45.3319 26.55L45.7768 27.1597L45.1643 27.6008L40.2222 31.159L39.673 31.5544L39.2234 31.0486L38.9525 30.7439V43.202V43.952H38.2025H21.795H21.045V43.202V30.7439L20.7741 31.0486L20.3245 31.5544L19.7753 31.159L14.8333 27.6008L14.21 27.152L14.6734 26.5395L20.2085 19.2253L20.3411 19.0501L20.5473 18.9741L24.3032 17.5904L24.5107 17.5139L24.5315 17.4827L25.3223 16.2966L25.7189 15.7016L26.3322 16.0695L30.0056 18.2736L33.8768 16.0615L34.5652 15.6681ZM28.9032 19.3615L28.1056 20.425L26.0818 17.8616L26.1736 17.7237L28.9032 19.3615ZM24.3204 19.1826L21.272 20.3057L16.333 26.8322L20.1026 29.5463L21.2344 28.273L22.545 26.7986V28.7712V42.452H37.4525V28.7712V26.7986L38.7631 28.273L39.895 29.5463L43.6753 26.8245L38.9205 20.3086L35.6978 19.1807L32.6679 23.1017L32.1183 23.813L31.517 23.1448L31.0453 22.6208V26.2014V26.9514H30.2953H29.7022H28.9522V26.2014V22.8044L28.7064 23.1116L28.1273 23.8355L27.5403 23.118L24.3204 19.1826ZM33.9327 17.7572L31.135 19.3559L32.0381 20.4396L33.9658 17.8235L33.9327 17.7572Z" fill="#346BD5"/>
<rect x="81.228" y="0.5" width="59" height="59" rx="4.5" stroke="#F3F3F3"/>
<rect x="89.4551" y="8.72723" width="42.5454" height="42.5454" rx="3" fill="#F3F3F3"/>
<path d="M108.203 42.0036L108.03 42.7335L108.747 42.9032L108.929 42.189L108.203 42.0036ZM96 39.1165L95.2536 39.0428L95.1892 39.6954L95.8273 39.8464L96 39.1165ZM110.727 32.1051L111.451 31.9091L110.706 29.1549L110.001 31.9197L110.727 32.1051ZM113.462 42.2098L112.738 42.4058L112.932 43.1212L113.65 42.9361L113.462 42.2098ZM125.455 39.1165L125.642 39.8428L126.286 39.6765L126.198 39.0167L125.455 39.1165ZM122.509 25.6227L123.233 25.4261L121.759 25.6227H122.509ZM122.509 26.1247V26.8747H123.259V26.1247H122.509ZM118.612 24.243L118.122 24.8104L118.122 24.8104L118.612 24.243ZM115.852 21.2048L115.241 21.6388L115.241 21.6388L115.852 21.2048ZM115.957 20.6307L115.535 20.011L115.535 20.011L115.957 20.6307ZM116.543 20.7337L115.932 21.1678L115.932 21.1678L116.543 20.7337ZM119.169 23.6243L118.679 24.1917L118.679 24.1917L119.169 23.6243ZM122.421 25.2981L122.392 26.0475L123.415 26.0875L123.144 25.1002L122.421 25.2981ZM119.984 17.4635L120.653 17.1227L120.422 16.6715L119.918 16.7164L119.984 17.4635ZM104.497 17.6717L104.445 18.4198L104.497 17.6717ZM101.47 17.4635L101.52 16.7152L100.937 16.6762L100.757 17.2326L101.47 17.4635ZM99.0489 25.2975L98.3285 25.0887L98.0372 26.0943L99.083 26.0467L99.0489 25.2975ZM102.286 23.6243L102.777 24.1917L102.777 24.1917L102.286 23.6243ZM104.912 20.7337L104.3 20.2996L104.3 20.2996L104.912 20.7337ZM105.498 20.6307L105.075 21.2503L105.075 21.2503L105.498 20.6307ZM105.603 21.2048L106.214 21.6388L106.214 21.6388L105.603 21.2048ZM102.843 24.243L103.333 24.8104L103.333 24.8104L102.843 24.243ZM98.9457 26.1247H98.1957V26.8747H98.9457V26.1247ZM98.9457 25.6551H99.6957L98.2249 25.4478L98.9457 25.6551ZM108.375 41.2738L96.1727 38.3867L95.8273 39.8464L108.03 42.7335L108.375 41.2738ZM110.001 31.9197L107.476 41.8182L108.929 42.189L111.454 32.2904L110.001 31.9197ZM114.186 42.0139L111.451 31.9091L110.003 32.301L112.738 42.4058L114.186 42.0139ZM125.267 38.3903L113.275 41.4836L113.65 42.9361L125.642 39.8428L125.267 38.3903ZM121.786 25.8193C122.956 30.1286 124.184 35.2893 124.711 39.2163L126.198 39.0167C125.657 34.9895 124.408 29.7524 123.233 25.4261L121.786 25.8193ZM121.759 25.6227V26.1247H123.259V25.6227H121.759ZM122.509 25.3747C121.456 25.3747 120.237 24.6557 119.103 23.6756L118.122 24.8104C119.293 25.8228 120.874 26.8747 122.509 26.8747V25.3747ZM119.103 23.6756C117.984 22.7082 117.013 21.5437 116.464 20.7707L115.241 21.6388C115.844 22.4895 116.894 23.7492 118.122 24.8104L119.103 23.6756ZM116.464 20.7707C116.577 20.9301 116.532 21.1468 116.38 21.2503L115.535 20.011C115.002 20.3747 114.862 21.1055 115.241 21.6388L116.464 20.7707ZM116.38 21.2503C116.237 21.3478 116.038 21.318 115.932 21.1678L117.155 20.2996C116.783 19.7754 116.059 19.6534 115.535 20.011L116.38 21.2503ZM115.932 21.1678C116.505 21.9758 117.511 23.1828 118.679 24.1917L119.66 23.0569C118.601 22.1418 117.673 21.03 117.155 20.2996L115.932 21.1678ZM118.679 24.1917C119.801 25.162 121.128 25.9981 122.392 26.0475L122.45 24.5487C121.729 24.5205 120.739 23.9898 119.66 23.0569L118.679 24.1917ZM119.316 17.8043C119.432 18.0318 119.745 18.9097 120.186 20.3139C120.616 21.6837 121.147 23.485 121.698 25.496L123.144 25.1002C122.59 23.0735 122.054 21.2542 121.617 19.8646C121.192 18.5092 120.839 17.4887 120.653 17.1227L119.316 17.8043ZM104.445 18.4198C110.853 18.8681 111.89 18.9377 120.051 18.2105L119.918 16.7164C111.839 17.4364 110.881 17.3664 104.549 16.9235L104.445 18.4198ZM101.42 18.2118C102.556 18.2877 103.552 18.3574 104.445 18.4198L104.549 16.9235C103.657 16.8611 102.659 16.7912 101.52 16.7152L101.42 18.2118ZM99.7693 25.5062C100.614 22.5911 101.485 19.8528 102.184 17.6943L100.757 17.2326C100.057 19.396 99.1797 22.1515 98.3285 25.0887L99.7693 25.5062ZM101.796 23.0569C100.722 23.9846 99.7361 24.5155 99.0148 24.5483L99.083 26.0467C100.341 25.9895 101.659 25.1577 102.777 24.1917L101.796 23.0569ZM104.3 20.2996C103.782 21.03 102.854 22.1418 101.796 23.0569L102.777 24.1917C103.944 23.1828 104.95 21.9758 105.524 21.1678L104.3 20.2996ZM105.92 20.011C105.396 19.6534 104.672 19.7754 104.3 20.2996L105.524 21.1678C105.417 21.318 105.218 21.3478 105.075 21.2503L105.92 20.011ZM106.214 21.6388C106.593 21.1055 106.454 20.3747 105.92 20.011L105.075 21.2503C104.923 21.1468 104.878 20.9301 104.991 20.7707L106.214 21.6388ZM103.333 24.8104C104.561 23.7492 105.611 22.4895 106.214 21.6388L104.991 20.7707C104.443 21.5437 103.471 22.7082 102.352 23.6756L103.333 24.8104ZM98.9457 26.8747C100.581 26.8747 102.162 25.8228 103.333 24.8104L102.352 23.6756C101.218 24.6557 99.9993 25.3747 98.9457 25.3747V26.8747ZM98.1957 25.6551V26.1247H99.6957V25.6551H98.1957ZM96.7464 39.1902C97.1186 35.4205 98.3424 30.4667 99.6665 25.8624L98.2249 25.4478C96.8978 30.0625 95.6402 35.1278 95.2536 39.0428L96.7464 39.1902Z" fill="#346BD5"/>
<path fill-rule="evenodd" clip-rule="evenodd" d="M71.4563 26.7273C71.4563 26.1248 70.9679 25.6364 70.3654 25.6364C69.7629 25.6364 69.2745 26.1248 69.2745 26.7273V28.3636H67.6339C67.0314 28.3636 66.543 28.8521 66.543 29.4546C66.543 30.0571 67.0314 30.5455 67.6339 30.5455H69.2745V32.1818C69.2745 32.7843 69.7629 33.2727 70.3654 33.2727C70.9679 33.2727 71.4563 32.7843 71.4563 32.1818V30.5455H73.0884C73.6909 30.5455 74.1793 30.0571 74.1793 29.4546C74.1793 28.8521 73.6909 28.3636 73.0884 28.3636H71.4563V26.7273Z" fill="#CDCDCD"/>
</svg>
