<svg width="105" height="60" viewBox="0 0 105 60" fill="none" xmlns="http://www.w3.org/2000/svg">
<g clip-path="url(#clip0_32_173)">
<path d="M76.3063 12.3598L73.2675 13.3629C73.6601 12.0843 73.6874 10.6604 73.2254 9.26088C72.0997 5.85093 68.6007 3.9276 65.4227 4.97671C62.152 6.05645 60.9059 8.64584 59.4012 15.1793C54.3025 10.8257 51.7597 9.48712 48.489 10.5669C45.311 11.616 43.6448 15.2444 44.7705 18.6544C45.2325 20.0539 46.1021 21.1817 47.1787 21.9753L44.1399 22.9785C42.0909 23.6549 40.9772 25.8662 41.6537 27.9153L44.1042 35.3383C44.3288 36.0187 45.0693 36.3917 45.7497 36.167L46.9869 35.7586L50.6626 46.8931C51.3391 48.9422 53.5503 50.0558 55.5994 49.3794L82.8171 40.3943C84.8662 39.7179 85.9798 37.5066 85.3034 35.4576L81.6276 24.323L82.8648 23.9146C83.5453 23.69 83.9182 22.9495 83.6936 22.269L81.2431 14.846C80.5667 12.797 78.3554 11.6833 76.3063 12.3598ZM61.6932 16.8752C63.3944 9.17061 64.4379 8.0458 66.2395 7.45105C68.0489 6.85374 70.0746 8.02864 70.751 10.0777C71.4274 12.1268 70.4994 14.2768 68.69 14.8741L61.615 17.2097L61.6932 16.8752ZM49.3058 13.0412C51.1151 12.4439 52.6155 12.7289 58.5693 17.9064L58.8236 18.1312L51.7485 20.4668C49.9392 21.0641 47.9135 19.8892 47.2371 17.8401C46.5684 15.7885 47.4964 13.6385 49.3058 13.0412ZM63.4427 44.0462L54.7825 46.9051C54.1021 47.1297 53.3616 46.7568 53.137 46.0763L49.4612 34.9418L59.3586 31.6745L63.4427 44.0462ZM58.5418 29.2001L46.1701 33.2843L44.128 27.0984C43.9034 26.418 44.2763 25.6775 44.9568 25.4528L56.0913 21.7771L58.5418 29.2001ZM70.8657 41.5957L65.9171 43.2293L58.5656 20.9603L63.5143 19.3267L70.8657 41.5957ZM82.829 36.2744C83.0537 36.9548 82.6807 37.6953 82.0003 37.92L73.3401 40.7789L69.256 28.4072L79.1533 25.1399L82.829 36.2744ZM80.8108 21.8487L68.4391 25.9328L65.9886 18.5098L77.1232 14.8341C77.8036 14.6095 78.5441 14.9824 78.7688 15.6629L80.8108 21.8487Z" fill="#346BD5"/>
</g>
<path fill-rule="evenodd" clip-rule="evenodd" d="M20.2967 2.69401L24.068 14.7621C23.7274 14.9589 23.7012 15.357 23.9033 16.0806C24.0324 16.5456 24.1776 17.0046 24.3229 17.4638L24.323 17.464C24.3897 17.6748 24.4564 17.8857 24.5215 18.0971C24.743 18.8123 24.9641 19.5274 25.1851 20.2425L25.1854 20.2434L25.1857 20.2444L25.186 20.2453L25.1863 20.2462L25.1866 20.2471L25.1868 20.248L25.1871 20.2489L25.1874 20.2499L25.1877 20.2508L25.188 20.2517L25.1883 20.2526L25.1886 20.2535L25.1888 20.2544L25.1891 20.2553L25.1894 20.2563L25.1897 20.2572L25.19 20.2581L25.1903 20.259L25.1906 20.2599L25.1908 20.2608L25.1909 20.261C25.7757 22.1532 26.3604 24.0449 26.9534 25.9349C27.1543 26.5727 27.8666 26.9447 28.4408 26.6852C28.916 26.4727 28.7562 26.1463 28.6141 25.856L28.6141 25.856C28.5723 25.7706 28.532 25.6882 28.5099 25.6129C28.0042 23.9132 27.4822 22.217 26.9603 20.5207L26.9602 20.5205C26.6239 19.4275 26.2875 18.3345 25.9556 17.2405C25.6951 16.3808 25.7955 16.2463 26.6647 16.2776C27.6327 16.3121 28.6008 16.3681 29.5672 16.4239L29.5673 16.4239C29.8258 16.4389 30.0842 16.4538 30.3424 16.4683C32.0211 16.5645 33.6998 16.6628 35.3785 16.761L35.3809 16.7612C37.9 16.9086 40.4191 17.0561 42.9382 17.1967C44.4949 17.2841 46.0523 17.3652 47.6097 17.4463C49.3393 17.5363 51.0689 17.6264 52.7977 17.7251C55.7698 17.8939 58.742 18.0681 61.7142 18.2423L61.7173 18.2425C64.6905 18.4168 67.6638 18.5911 70.637 18.7599C72.334 18.8575 74.0319 18.9473 75.7298 19.037L75.7304 19.037C77.2409 19.1168 78.7513 19.1967 80.2611 19.282C83.143 19.4433 86.0263 19.6101 88.9091 19.777L88.9104 19.7771C90.3307 19.8593 91.7508 19.9415 93.1707 20.023C94.1312 20.0785 95.092 20.1325 96.053 20.1866C97.9615 20.2941 99.8705 20.4015 101.778 20.5201C102.71 20.5795 102.807 20.7108 102.65 21.6455C102.449 22.834 102.24 24.0208 102.031 25.2076L102.031 25.208L102.031 25.2084L102.031 25.2088L102.031 25.2092L102.03 25.2096L102.03 25.2099L102.03 25.2103L102.03 25.2107L102.03 25.2111L102.03 25.2116L102.03 25.2125L102.03 25.2133L102.03 25.2141L102.03 25.2149L102.029 25.2157L102.029 25.2166L102.029 25.2174L102.029 25.2182L102.029 25.219L102.029 25.2199L102.029 25.2207L102.028 25.2215L102.028 25.2223L102.028 25.2232L102.028 25.2241L102.028 25.2249L102.028 25.2256L102.028 25.2262L102.028 25.2268L102.027 25.2274L102.027 25.2281L102.027 25.2287L102.027 25.2293L102.027 25.2299L102.027 25.2305L102.027 25.2312L102.027 25.2318L102.027 25.2324L102.026 25.233L102.026 25.2337L102.026 25.2343L102.026 25.2349L102.026 25.2355L102.026 25.2362L102.026 25.2368L102.026 25.2374L102.025 25.238L102.025 25.2387L102.025 25.2393L102.025 25.2399C101.838 26.2995 101.652 27.3593 101.471 28.4204C101.329 29.2457 101.756 29.599 102.55 29.3489C102.957 29.2223 103.014 28.8889 103.069 28.5612C103.074 28.5329 103.079 28.5047 103.083 28.4766C103.567 25.7848 104.047 23.093 104.518 20.3981C104.681 19.4759 104.373 19.0663 103.432 19.01C101.353 18.8853 99.272 18.7714 97.1909 18.6574L97.1902 18.6574L97.1895 18.6574L97.1888 18.6573L97.1881 18.6573L97.1874 18.6572L97.1866 18.6572L97.1859 18.6572L97.1852 18.6571L97.1845 18.6571L97.1838 18.657L97.1831 18.657L97.1824 18.657L97.1817 18.6569L97.181 18.6569L97.1803 18.6568L97.1796 18.6568L97.1788 18.6568L97.1781 18.6567L97.1774 18.6567L97.1767 18.6566L97.176 18.6566L97.1753 18.6566L97.1746 18.6565L97.1739 18.6565L97.1732 18.6564C96.2857 18.6078 95.3981 18.5592 94.5106 18.5098C93.4669 18.453 92.4229 18.397 91.3788 18.3409L91.3769 18.3408L91.3751 18.3407L91.3732 18.3406L91.3713 18.3405L91.3694 18.3404L91.3676 18.3403L91.3657 18.3402L91.3638 18.3401L91.3619 18.34L91.36 18.3399L91.3582 18.3398L91.3563 18.3397L91.3544 18.3396L91.3525 18.3395L91.3507 18.3394L91.3488 18.3392L91.3474 18.3392C89.2971 18.2291 87.2464 18.119 85.1971 18.0033C83.0319 17.8814 80.8674 17.7563 78.703 17.6313C76.5386 17.5062 74.3742 17.3812 72.2091 17.2593C70.7406 17.177 69.272 17.0988 67.8035 17.0205C66.0901 16.9292 64.3768 16.8379 62.6634 16.7403C59.8337 16.5801 57.004 16.4152 54.1738 16.2503L54.1731 16.2502L54.1724 16.2502L54.1717 16.2501L54.171 16.2501L54.1703 16.2501L54.1696 16.25L54.1689 16.25L54.1683 16.2499L54.1676 16.2499L54.1669 16.2499L54.1662 16.2498L54.1655 16.2498L54.1648 16.2497L54.1641 16.2497L54.1635 16.2497L54.1628 16.2496L54.1621 16.2496L54.1614 16.2495L54.1607 16.2495L54.16 16.2495L54.1593 16.2494L54.1586 16.2494L54.158 16.2493L54.1573 16.2493L54.1566 16.2493C51.8548 16.1151 49.5526 15.9809 47.2498 15.8493C45.7212 15.7623 44.1926 15.6785 42.6644 15.5947L42.6642 15.5946L42.6638 15.5946L42.6634 15.5946L42.663 15.5946L42.6626 15.5946L42.6622 15.5945L42.6618 15.5945L42.6614 15.5945L42.661 15.5945L42.6606 15.5944L42.6602 15.5944L42.6598 15.5944L42.6594 15.5944L42.659 15.5944L42.6586 15.5943L42.6582 15.5943L42.6578 15.5943L42.6574 15.5943L42.657 15.5942L42.6566 15.5942L42.6562 15.5942L42.6558 15.5942L42.6554 15.5941L42.655 15.5941L42.6546 15.5941L42.6542 15.5941C41.1082 15.5093 39.5627 15.4245 38.0179 15.3366C35.0349 15.1645 32.0519 14.9876 29.0261 14.8081L29.0246 14.808C27.9475 14.7441 26.8649 14.6799 25.7749 14.6155L21.7153 1.62477C21.7003 1.57285 21.6804 1.52301 21.6561 1.47578C21.5902 1.34694 21.4936 1.24064 21.3783 1.16328C21.296 1.10783 21.2033 1.06663 21.1037 1.04323C21.0346 1.02685 20.9629 1.01918 20.8904 1.02106H8.78276C8.32079 1.02106 7.94629 1.39556 7.94629 1.85753C7.94629 2.31951 8.32079 2.69401 8.78276 2.69401H20.2967ZM44.3189 59.3338C43.0296 59.4772 41.739 59.6142 40.4244 59.7538C39.6754 59.8334 38.9185 59.9137 38.1497 59.9966V59.9997C37.6068 60.0122 37.3181 59.637 37.1487 59.0805C36.6387 57.4132 36.1228 55.7472 35.6071 54.0817L35.607 54.0816L35.607 54.0815L35.607 54.0814L35.607 54.0813L35.6069 54.0812L35.6069 54.0811L35.6069 54.081L35.6066 54.0803C35.3673 53.3074 35.128 52.5346 34.8893 51.7617C34.7395 51.2763 34.5888 50.7911 34.4382 50.3059C33.9863 48.8504 33.5345 47.3949 33.1038 45.9342C33.0825 45.8618 33.0492 45.7839 33.0148 45.7037C32.8771 45.3823 32.7227 45.022 33.2576 44.8119C33.9103 44.5586 34.4249 44.8244 34.6414 45.5215C35.5273 48.367 36.4048 51.2145 37.2825 54.0624L37.2834 54.0652L37.8955 56.0511C37.9928 56.3762 38.0963 56.6983 38.1999 57.0203L38.2045 57.0344C38.6267 58.3366 38.6315 58.3516 39.9791 58.1989C43.5584 57.7961 47.1369 57.3909 50.7154 56.9858L50.7322 56.9839C54.3136 56.5784 57.895 56.1729 61.4773 55.7697C64.8004 55.3961 68.1243 55.0249 71.4481 54.6536C74.772 54.2824 78.0959 53.9111 81.419 53.5375C82.8864 53.3727 84.354 53.2063 85.8218 53.0399L85.8288 53.0391L85.8358 53.0383L85.8428 53.0375L85.8434 53.0374L85.844 53.0373L85.8447 53.0373L85.8453 53.0372L85.846 53.0371L85.8466 53.0371L85.8472 53.037L85.8479 53.0369L85.8485 53.0369L85.8492 53.0368L85.8498 53.0367L85.8504 53.0367L85.8511 53.0366L85.8517 53.0365L85.8524 53.0365L85.853 53.0364L85.8536 53.0363L85.8551 53.0361C89.3608 52.6386 92.8677 52.2409 96.3745 51.8649C97.0931 51.7868 97.4132 51.5335 97.5324 50.7988C97.8148 49.051 98.1297 47.3091 98.4446 45.5671L98.4447 45.5665L98.4448 45.566L98.4449 45.5654L98.4449 45.5649L98.445 45.5643L98.4451 45.5638L98.4452 45.5632L98.4453 45.5627L98.4454 45.5621L98.4455 45.5616L98.4456 45.561L98.4457 45.5605L98.4458 45.5599L98.4459 45.5594L98.446 45.5588L98.446 45.5583L98.4461 45.5577L98.4462 45.5572C98.5893 44.766 98.7324 43.9748 98.8724 43.183L98.8749 43.169C98.9492 42.752 99.0197 42.3568 99.5627 42.2795C100.303 42.1732 100.633 42.4389 100.504 43.1768C100.209 44.8774 99.9038 46.5761 99.5988 48.2744L99.5985 48.2762L99.5982 48.2782L99.5977 48.2807L99.5973 48.2831L99.5968 48.2856L99.5964 48.288L99.596 48.2905L99.5955 48.2929L99.5949 48.2965C99.3534 49.6412 99.112 50.9857 98.8755 52.3307C98.7562 53.0185 98.3201 53.2624 97.6768 53.3343C94.6117 53.6696 91.5466 54.0157 88.4815 54.3618L88.4808 54.3619L88.48 54.3619L88.4793 54.362L88.4786 54.3621L88.4778 54.3622L88.4771 54.3623L88.4764 54.3623L88.4756 54.3624L88.4749 54.3625L88.4742 54.3626L88.4734 54.3627L88.4727 54.3627L88.472 54.3628L88.4713 54.3629L88.4705 54.363L88.4698 54.3631L88.4691 54.3631L88.4683 54.3632L88.4676 54.3633L88.4669 54.3634L88.4661 54.3635L88.4654 54.3635L88.4647 54.3636L88.4639 54.3637L88.4632 54.3638L86.6155 54.5723C84.4346 54.8178 82.2537 55.0647 80.0728 55.3117C77.8919 55.5587 75.7111 55.8057 73.5302 56.0511C70.9337 56.3424 68.3373 56.6322 65.7412 56.922L65.729 56.9234C62.9797 57.2303 60.2308 57.5371 57.4826 57.8456C55.6136 58.0561 53.7439 58.2683 51.8742 58.4804L51.8709 58.4808C49.3533 58.7665 46.8356 59.0522 44.3189 59.3338ZM101.213 30.7024V30.7214H103.018C103.055 30.7214 103.095 30.7231 103.135 30.7249L103.135 30.7249C103.366 30.7354 103.617 30.7466 103.617 30.4244C103.617 30.0974 103.305 30.0753 103.049 30.0572L103.024 30.0554L102.806 30.0406L102.632 30.0287C101.929 29.9804 101.226 29.9322 100.52 29.9085C99.0366 29.8586 97.5528 29.8125 96.069 29.7663L96.0676 29.7663L96.0661 29.7662L96.0647 29.7662L96.0632 29.7661L96.0618 29.7661L96.0603 29.766L96.0589 29.766L96.0575 29.7659L96.056 29.7659L96.0546 29.7659L96.0531 29.7658L96.0517 29.7658L96.0502 29.7657L96.0488 29.7657L96.0474 29.7656L96.0459 29.7656L96.0445 29.7655L96.043 29.7655L96.0416 29.7654L96.0402 29.7654L96.0387 29.7654L96.0373 29.7653L96.0358 29.7653L96.0344 29.7652C93.9008 29.6988 91.7669 29.6324 89.6342 29.5552C86.0718 29.4269 82.5094 29.2914 78.947 29.1559L78.9446 29.1558C75.8271 29.0373 72.7096 28.9187 69.592 28.8049C68.0756 28.7496 66.5591 28.7007 65.0429 28.6518H65.0429H65.0428H65.0428H65.0427H65.0427H65.0426H65.0426H65.0425H65.0425H65.0424H65.0424H65.0424H65.0423H65.0423H65.0422H65.0422H65.0422H65.0421H65.0421H65.0421H65.042H65.042H65.042H65.0419C63.2171 28.5929 61.3928 28.5341 59.5694 28.4641C56.0944 28.3311 52.6194 28.1933 49.1439 28.0555L49.1435 28.0555L49.1431 28.0554L49.1426 28.0554L49.1422 28.0554L49.1418 28.0554L49.1413 28.0554L49.1409 28.0554L49.1404 28.0553L49.14 28.0553L49.1396 28.0553L49.1391 28.0553L49.1387 28.0553L49.1383 28.0553L49.1378 28.0552L49.1374 28.0552L49.137 28.0552L49.1365 28.0552L49.1361 28.0552L49.1357 28.0552L49.1352 28.0551L49.1348 28.0551L49.1344 28.0551L49.1339 28.0551L49.1335 28.0551C46.323 27.9436 43.5123 27.8322 40.7008 27.7232C36.6309 27.5669 32.5578 27.4168 28.4879 27.273C27.8352 27.2511 27.1825 27.2605 26.5298 27.273C26.3133 27.2761 26.0905 27.3605 26.0936 27.6263C26.0936 27.8858 26.3164 27.9545 26.5329 27.9858C26.6636 28.0044 26.7988 28.0094 26.9308 28.0144H26.9309L27.0005 28.0171C31.0987 28.1546 35.1937 28.2922 39.2919 28.4579C42.0308 28.5673 44.7697 28.6644 47.5087 28.7616L47.5088 28.7616L47.5088 28.7616L47.5089 28.7616L47.509 28.7616L47.5091 28.7616L47.5092 28.7616L47.5093 28.7616L47.5094 28.7616L47.5095 28.7616L47.5096 28.7616L47.5097 28.7616L47.5098 28.7616L47.5098 28.7616L47.5099 28.7616L47.51 28.7617L47.5101 28.7617L47.5102 28.7617L47.5103 28.7617L47.5104 28.7617L47.5105 28.7617L47.5106 28.7617L47.5107 28.7617L47.5108 28.7617L47.5109 28.7617C49.1549 28.82 50.799 28.8784 52.4431 28.9393C53.9491 28.9947 55.4555 29.0477 56.9621 29.1007L56.9631 29.1008L56.9638 29.1008C59.7104 29.1975 62.4578 29.2941 65.2052 29.4052C67.6604 29.5057 70.1163 29.5803 72.5723 29.6549C75.2328 29.7358 77.8933 29.8166 80.5529 29.9304C81.4051 29.9672 82.2582 29.9906 83.1113 30.014L83.1114 30.014L83.1115 30.014L83.1116 30.014L83.1117 30.014L83.1118 30.014L83.1119 30.014L83.1121 30.014L83.1122 30.0141L83.1123 30.0141L83.1124 30.0141L83.1125 30.0141L83.1126 30.0141L83.1127 30.0141L83.1129 30.0141L83.113 30.0141L83.1131 30.0141L83.1132 30.0141L83.1133 30.0141L83.1134 30.0141L83.1135 30.0141L83.1137 30.0141L83.1138 30.0141L83.1139 30.0141L83.114 30.0141C83.8526 30.0344 84.5911 30.0546 85.3289 30.0836C88.8596 30.219 92.3902 30.3573 95.9208 30.4955C97.685 30.5646 99.4491 30.6336 101.213 30.7024ZM36.3548 43.9834C35.9314 43.9927 35.5092 44.0305 35.0867 44.0684H35.0867H35.0867H35.0866H35.0866H35.0866H35.0865H35.0865H35.0865H35.0864H35.0864H35.0863H35.0863H35.0863H35.0862H35.0862H35.0862H35.0861H35.0861H35.0861H35.086H35.086H35.086H35.0859C34.519 44.1192 33.9516 44.1701 33.38 44.1522C33.2169 44.1522 33.0536 44.1529 32.8901 44.1536H32.8897H32.8894H32.8891H32.8888H32.8884H32.8881H32.8878H32.8874H32.8871H32.8868H32.8864H32.8861H32.8858H32.8854H32.8851H32.8848H32.8844H32.8841H32.8838H32.8834H32.8831H32.8828H32.8824C32.5534 44.155 32.2239 44.1564 31.8957 44.1522C31.849 44.1516 31.7991 44.1548 31.7485 44.1581C31.5268 44.1723 31.2919 44.1873 31.2587 43.8896C31.2219 43.5591 31.5027 43.5323 31.7424 43.5095C31.7679 43.507 31.7931 43.5046 31.8173 43.5019L31.9052 43.4918L31.9053 43.4918C32.369 43.4387 32.8353 43.3853 33.3015 43.3706C34.6724 43.3249 36.0433 43.2831 37.4141 43.2413C39.699 43.1717 41.9838 43.1021 44.2687 43.0142C47.4431 42.8908 50.6174 42.7555 53.7923 42.6202C56.4895 42.5053 59.187 42.3903 61.8852 42.2826C63.6181 42.2145 65.3509 42.1582 67.0838 42.1019C68.6929 42.0496 70.3019 41.9973 71.911 41.9356C75.3081 41.8062 78.7052 41.6704 82.1023 41.5346L82.1027 41.5346L82.1032 41.5346L82.1037 41.5346L82.1042 41.5345L82.1047 41.5345L82.1051 41.5345L82.1056 41.5345L82.1061 41.5344L82.1066 41.5344L82.1071 41.5344L82.1075 41.5344L82.108 41.5344L82.1085 41.5343L82.109 41.5343L82.1095 41.5343L82.1099 41.5343L82.1104 41.5342L82.1109 41.5342L82.1114 41.5342L82.1119 41.5342L82.1124 41.5341L82.1128 41.5341L82.1133 41.5341C85.0293 41.4175 87.9452 41.301 90.8611 41.1884C93.2907 41.0945 95.722 41.0112 98.1537 40.9278C98.9602 40.9002 99.7666 40.8725 100.573 40.8445C100.73 40.8383 100.887 40.832 101.044 40.8476C101.081 40.8513 101.119 40.8536 101.159 40.8559C101.391 40.8698 101.646 40.885 101.662 41.179C101.683 41.5696 101.334 41.5849 101.058 41.5971L101.038 41.598C100.333 41.632 99.6279 41.6472 98.9227 41.6623H98.9226C98.1397 41.6791 97.3564 41.6959 96.5722 41.7386C94.4874 41.853 92.4001 41.9144 90.3126 41.9759L90.312 41.976L90.3113 41.976L90.3107 41.976L90.31 41.976L90.3094 41.976L90.3088 41.9761L90.3081 41.9761L90.3075 41.9761L90.3068 41.9761L90.3062 41.9762L90.3056 41.9762L90.3049 41.9762L90.3043 41.9762L90.3036 41.9763L90.303 41.9763L90.3024 41.9763L90.3017 41.9763L90.3011 41.9763L90.3004 41.9764L90.2998 41.9764L90.2991 41.9764L90.2985 41.9764L90.2979 41.9765C89.0222 42.014 87.7464 42.0515 86.4711 42.1013C83.8654 42.2008 81.2597 42.3107 78.6535 42.4206L78.653 42.4206L78.6525 42.4206L78.652 42.4207L78.6515 42.4207L78.651 42.4207L78.6505 42.4207L78.65 42.4208L78.6495 42.4208L78.649 42.4208L78.6485 42.4208L78.6479 42.4208L78.6474 42.4209L78.6469 42.4209L78.6464 42.4209L78.6459 42.4209L78.6454 42.421L78.6449 42.421L78.6444 42.421L78.6439 42.421L78.6434 42.4211L78.6429 42.4211L78.6424 42.4211L78.6419 42.4211C76.5033 42.5113 74.3644 42.6015 72.2248 42.6859C71.4821 42.7155 70.7402 42.7412 69.9987 42.7669C69.2521 42.7928 68.5058 42.8187 67.7595 42.8485C64.6859 42.9707 61.6116 43.0725 58.5376 43.1743C55.2407 43.2835 51.9441 43.3926 48.6493 43.5269C47.6867 43.5658 46.7243 43.6067 45.7619 43.6476L45.7597 43.6477L45.7574 43.6478L45.7552 43.6479L45.7529 43.648L45.7507 43.6481L45.7484 43.6482L45.7461 43.6482L45.7439 43.6483L45.7416 43.6484L45.7393 43.6485L45.7368 43.6486L45.7343 43.6487L45.7318 43.6488L45.7293 43.6489L45.7267 43.649L45.7242 43.6491L45.7217 43.6492L45.7192 43.6493L45.7166 43.6494L45.7141 43.6495L45.7116 43.6497L45.709 43.6498L45.7065 43.6499C42.5901 43.7821 39.4742 43.9144 36.3548 43.9834ZM28.6417 28.6861C27.9639 28.5798 27.8477 28.8987 28.036 29.5052C28.7211 31.7057 29.3982 33.9093 30.0754 36.1127L30.0756 36.1134L30.0758 36.114L30.076 36.1147L30.0762 36.1154L30.0764 36.1161L30.0767 36.1168L30.0769 36.1175L30.0771 36.1182L30.0773 36.1189L30.0775 36.1196L30.0777 36.1203L30.078 36.121L30.0782 36.1217L30.0784 36.1224L30.0786 36.1231L30.0788 36.1238L30.0791 36.1245L30.0793 36.1252L30.0795 36.1259L30.0797 36.1266L30.0799 36.1273L30.0801 36.128C30.3567 37.0281 30.6333 37.9282 30.9104 38.828C31.0255 39.2011 31.1381 39.5748 31.2507 39.9486C31.4759 40.6962 31.7012 41.4437 31.9459 42.1857C32.1373 42.7672 32.7618 43.0236 33.3392 42.7891C33.8138 42.5964 33.6841 42.2705 33.5672 41.9766C33.5418 41.9129 33.5171 41.8508 33.4992 41.7918C32.9183 39.89 32.3328 37.9896 31.7472 36.089L31.7469 36.088L31.7467 36.0875C31.0608 33.8611 30.3747 31.6345 29.696 29.4052C29.5297 28.8643 29.2253 28.6204 28.6448 28.6861H28.6417ZM101.85 31.3247C102.315 31.3591 102.534 31.5186 102.478 32.0032H102.484L101.449 37.837C101.398 38.1183 101.351 38.3997 101.303 38.6811C101.255 38.9624 101.207 39.2438 101.157 39.5252C101.097 39.8535 100.94 40.0911 100.586 40.188C99.5784 40.4662 99.3681 40.2818 99.5533 39.2532C99.6449 38.7427 99.737 38.2321 99.829 37.7215L99.8322 37.7039L99.8354 37.6861C100.161 35.8822 100.486 34.0774 100.793 32.2689C100.899 31.6405 101.132 31.2716 101.85 31.3247ZM37.947 29.5912L37.947 29.5912C37.9625 29.6683 37.9802 29.7563 38.0085 29.8429L38.0094 29.8458C39.2737 33.8653 40.538 37.8848 41.8117 41.9012C41.8188 41.9236 41.826 41.9469 41.8333 41.9706C41.9186 42.248 42.0239 42.5904 42.4142 42.4233C42.7467 42.2805 42.6413 41.9845 42.5475 41.7214C42.5325 41.6791 42.5177 41.6377 42.5052 41.598C41.2908 37.7244 40.0701 33.854 38.8494 29.9835C38.771 29.7366 38.68 29.4896 38.5639 29.2613C38.476 29.0925 38.3097 28.9894 38.1057 29.0706C37.93 29.1394 37.9143 29.2989 37.9269 29.499V29.4958C37.9336 29.5247 37.9401 29.5569 37.947 29.5912ZM49.5907 30.1961C49.5772 30.1422 49.5717 30.0868 49.5663 30.0308L49.5621 29.9899L49.5593 29.9648H49.5624L49.562 29.9529C49.5557 29.771 49.5484 29.5605 49.7695 29.5177C50.0676 29.4583 50.1869 29.699 50.2465 29.9273C50.5352 31.034 50.8176 32.1439 51.0843 33.2568C51.5017 34.9984 51.9134 36.7414 52.3251 38.4848L52.3254 38.4862L52.3258 38.4876L52.3261 38.489L52.3264 38.4903L52.3268 38.4917L52.3271 38.4931L52.3274 38.4945L52.3278 38.4959L52.3281 38.4973L52.3284 38.4986L52.3288 38.5L52.3291 38.5014L52.3294 38.5028L52.3297 38.5042L52.3301 38.5056L52.3304 38.507L52.3307 38.5083L52.3311 38.5097L52.3324 38.5152L52.3336 38.5206C52.5289 39.3473 52.7241 40.1741 52.9201 41.0008C52.9272 41.0334 52.9357 41.0661 52.9442 41.0988L52.9443 41.0989C52.9619 41.1665 52.9796 41.2346 52.9859 41.3041C52.9914 41.3574 53.0034 41.4146 53.0156 41.4725C53.0598 41.6828 53.1062 41.9036 52.8479 41.9919C52.4776 42.1201 52.3427 41.7855 52.2768 41.5073C51.6017 38.6812 50.932 35.8552 50.2623 33.0292L50.2608 33.0231C50.0375 32.0808 49.8142 31.1384 49.5907 30.1961ZM46.9618 55.8629C46.9499 55.8121 46.9381 55.7614 46.9234 55.7135C46.6401 54.815 46.3569 53.9164 46.0738 53.0179C45.2249 50.3243 44.376 47.6306 43.5219 44.9369L43.5119 44.9056C43.429 44.6433 43.3225 44.3069 42.9696 44.4211C42.6357 44.5301 42.7339 44.8176 42.8165 45.0594L42.8281 45.0936L42.8369 45.1199L42.8459 45.1476L42.8503 45.162C43.9549 48.7104 45.0657 52.2557 46.1766 55.801C46.2142 55.9229 46.2676 56.048 46.3366 56.1543C46.4402 56.3168 46.5845 56.4294 46.7948 56.3356C46.9642 56.2606 46.9862 56.1043 46.9799 55.9417V55.9386C46.9736 55.9136 46.9677 55.8882 46.9618 55.8629ZM62.5756 41.0852C62.2298 38.742 61.8854 36.3987 61.5442 34.0769L61.5407 34.0532C61.3659 32.864 61.192 31.6805 61.0191 30.5056V30.5025C61.0237 30.4306 61.0195 30.3576 61.0155 30.2877C61.003 30.0718 60.9922 29.8853 61.2482 29.8522C61.5683 29.8116 61.7001 30.0961 61.744 30.3556C61.9134 31.356 62.0703 32.3596 62.2147 33.3631C62.5693 35.8361 62.9145 38.309 63.2596 40.782C63.2816 40.9383 63.3004 41.0915 63.3098 41.2478C63.3193 41.4416 63.2753 41.623 63.0557 41.673C62.8329 41.7199 62.7199 41.5729 62.6509 41.3885C62.6163 41.2916 62.5912 41.1884 62.5756 41.0852ZM56.1452 54.82V54.82C56.1315 54.7418 56.1179 54.664 56.0988 54.588L55.8788 53.6536C55.177 50.6725 54.4747 47.6893 53.7673 44.7087C53.7328 44.5586 53.6763 44.4086 53.6041 44.271C53.5288 44.1272 53.4002 44.024 53.2244 44.0584C52.9985 44.1053 52.9514 44.2804 52.9671 44.4773C52.9797 44.6305 53.0142 44.7868 53.0518 44.9369C53.2621 45.8311 53.4719 46.7255 53.6816 47.6201C54.173 49.7156 54.6645 51.8118 55.1637 53.9064C55.261 54.3097 55.3928 54.7068 55.5434 55.0944C55.6124 55.2726 55.7881 55.3727 55.9953 55.2945C56.1724 55.2287 56.1657 55.0685 56.1593 54.9151L56.1584 54.8944C56.1539 54.8696 56.1496 54.8449 56.1453 54.8202L56.1452 54.82ZM72.3252 31.1247C72.3062 32.2148 72.3719 33.3033 72.4376 34.3923C72.5021 35.4613 72.5667 36.5307 72.5511 37.6025H72.548V40.5694C72.5483 40.5928 72.5493 40.6171 72.5508 40.6418L72.5522 40.666L72.5545 40.7002L72.5546 40.7009L72.5546 40.7015C72.5701 40.9295 72.5869 41.1764 72.2938 41.2103C71.9167 41.2569 71.8936 40.9318 71.8745 40.6621L71.8744 40.6616C71.873 40.6419 71.8717 40.6226 71.8702 40.6038C71.776 39.3313 71.7039 38.062 71.7039 36.7834C71.7045 36.4808 71.7075 36.1781 71.7104 35.8754V35.8752V35.875V35.8748V35.8747V35.8745V35.8744C71.7228 34.6166 71.7351 33.3578 71.5784 32.1032C71.5407 31.7937 71.5501 31.4779 71.5689 31.1653C71.5724 31.1056 71.5715 31.0404 71.5706 30.9737C71.5664 30.6805 71.5617 30.3578 71.9298 30.3399C72.3586 30.3204 72.3419 30.7148 72.3289 31.0199V31.02V31.0202V31.0203L72.3264 31.0827L72.3258 31.1003L72.3252 31.1247ZM64.9591 52.6817L64.9591 52.6816L64.9591 52.6815L64.9591 52.6815L64.9591 52.6814L64.9591 52.6813L64.9591 52.6813L64.959 52.6812L64.959 52.6811L64.959 52.6811L64.959 52.681L64.959 52.6809L64.959 52.6809L64.959 52.6808L64.959 52.6807C64.8563 51.8939 64.7536 51.1064 64.6403 50.3205C64.3485 48.2915 64.0473 46.2594 63.7366 44.2335L63.7308 44.1948C63.6917 43.9307 63.6425 43.5981 63.2628 43.6457C62.9521 43.6864 62.9929 43.9896 63.0274 44.2178C63.4793 47.4067 63.9312 50.5925 64.3956 53.7814C64.4301 54.0252 64.4866 54.3629 64.8412 54.3003C65.0928 54.2572 65.0948 54.0281 65.0966 53.8175C65.0969 53.7838 65.0972 53.7507 65.0985 53.7188H65.0953C65.0494 53.374 65.0044 53.0288 64.9594 52.6836L64.9593 52.6832L64.9593 52.6828L64.9592 52.6824L64.9592 52.6821L64.9591 52.6817ZM82.9221 30.6495C83.2207 30.6913 83.2089 30.9145 83.1973 31.1329C83.1933 31.2083 83.1894 31.2832 83.1982 31.3498H83.2014C83.0457 32.6202 82.8906 33.8895 82.7356 35.1581L82.7328 35.181C82.5294 36.8455 82.3262 38.5089 82.1219 40.1723C82.1062 40.3005 82.0811 40.4318 82.0435 40.5538C81.9776 40.7632 81.874 40.9602 81.6073 40.8945C81.3908 40.8414 81.35 40.6475 81.3657 40.4568C81.397 40.0442 81.4316 39.6284 81.4818 39.2157C81.6809 37.5445 81.8828 35.8746 82.0846 34.2044L82.0857 34.1954L82.0866 34.1879C82.1926 33.3108 82.2987 32.4336 82.4043 31.5561C82.4071 31.5335 82.4095 31.5108 82.412 31.4882C82.4207 31.4078 82.4294 31.3278 82.4514 31.2497C82.4633 31.2076 82.4738 31.1624 82.4844 31.1164C82.5408 30.8721 82.6026 30.6047 82.9221 30.6495ZM72.8116 50.4674H72.6359V50.4595C72.6359 48.2831 72.6359 46.1035 72.6327 43.9271C72.6327 43.6739 72.6327 43.3362 72.2938 43.3143C71.915 43.288 71.8989 43.6093 71.8856 43.8762L71.8827 43.9302C71.8639 44.2929 71.8482 44.6587 71.8827 45.0213C72.0333 46.5375 72.028 48.0565 72.0227 49.5746V49.5746V49.5747V49.5748V49.5749V49.575V49.5751V49.5752V49.5753V49.5754V49.5755V49.5756V49.5756C72.0199 50.3673 72.0171 51.1587 72.0365 51.9493C72.0379 52.0034 72.0384 52.0577 72.0388 52.1119C72.0403 52.2928 72.0418 52.4733 72.0804 52.6465C72.0966 52.7216 72.1026 52.8096 72.1087 52.8994C72.1274 53.1758 72.1474 53.4703 72.4695 53.4656C72.8377 53.4605 72.8226 53.1254 72.8094 52.8341C72.8064 52.7678 72.8036 52.7038 72.8053 52.6465C72.8208 52.1356 72.8176 51.6231 72.8143 51.1102V51.1099V51.1097V51.1094V51.1092V51.109V51.1087V51.1085V51.1082V51.108V51.1078V51.1075V51.1073C72.8129 50.893 72.8116 50.6787 72.8116 50.4643V50.4674ZM37.7086 26.4746L37.7086 26.4746C37.7214 26.524 37.7334 26.5701 37.7449 26.6102L37.7417 26.6133C37.7763 26.7884 37.7763 26.9228 37.6413 26.9947C37.4907 27.076 37.3338 27.0416 37.202 26.9416C37.0317 26.8136 36.9724 26.6233 36.9129 26.4327L36.9039 26.4039C36.4961 25.1006 36.0883 23.7981 35.6805 22.4955C35.2724 21.1922 34.8644 19.8889 34.4563 18.5848C34.4124 18.4379 34.3684 18.2878 34.3339 18.1346C34.2931 17.9502 34.268 17.7501 34.4939 17.6719C34.6979 17.6 34.8705 17.722 34.9458 17.8908C35.1247 18.2941 35.291 18.7068 35.4228 19.1257C35.9928 20.9325 36.5555 22.7411 37.1178 24.5488L37.1179 24.5491L37.118 24.5494L37.1181 24.5496L37.1182 24.5499L37.1182 24.5502L37.1183 24.5505L37.1184 24.5507L37.1185 24.551L37.1186 24.5513L37.1187 24.5516L37.1188 24.5518C37.2898 25.1016 37.4608 25.6512 37.6319 26.2006C37.6617 26.2937 37.6865 26.3892 37.7086 26.4746ZM91.5658 40.0018C91.5589 40.2996 91.5536 40.5276 91.859 40.5506C92.1744 40.5737 92.2283 40.2911 92.2742 40.0508C92.278 40.0305 92.2819 40.0105 92.2858 39.991C92.5933 38.4872 92.8977 36.9803 93.1926 35.4734C93.4374 34.2198 93.6759 32.9661 93.9112 31.7124C93.9552 31.4779 93.9803 31.1903 93.6947 31.1153C93.3464 31.0215 93.2585 31.3216 93.1989 31.578C93.1385 31.8324 93.0892 32.0868 93.0397 32.3423C93.0198 32.4448 92.9999 32.5474 92.9793 32.6503L92.7177 33.9722L92.7146 33.988L92.7122 33.9998L92.7122 34L92.7108 34.0073C92.3209 35.9777 91.9342 37.9324 91.564 39.794H91.5672C91.5689 39.8652 91.5673 39.9345 91.5658 40.0003V40.0006V40.0009V40.0011V40.0013V40.0016V40.0018ZM80.2329 52.6121C79.8854 52.5633 79.9284 52.3096 79.9659 52.0894C79.9811 51.9994 79.9955 51.915 79.9818 51.8524V51.8493C80.1286 50.6278 80.2731 49.4222 80.4164 48.2256L80.4204 48.192L80.4234 48.1674L80.4293 48.1179C80.6125 46.5884 80.7941 45.0733 80.9766 43.5582L80.9803 43.5267C81.0105 43.2728 81.0466 42.9682 81.3719 42.9892C81.7705 43.0173 81.7391 43.38 81.7046 43.6582C81.3814 46.3938 81.0519 49.1294 80.7067 51.8618C80.7008 51.906 80.6965 51.9545 80.692 52.0049C80.6654 52.3034 80.6329 52.6683 80.2329 52.6121ZM49.5847 26.9664C49.5792 26.9329 49.5737 26.8991 49.5656 26.8666L49.4324 26.3152C48.8366 23.8474 48.2403 21.3774 47.6357 18.91C47.573 18.6567 47.46 18.341 47.1399 18.4129C46.7818 18.4936 46.8636 18.7631 46.9335 18.9936C46.9475 19.0398 46.961 19.0845 46.9705 19.1257C47.5478 21.6327 48.1408 24.1366 48.7338 26.6405L48.734 26.6415C48.7811 26.8415 48.8501 27.0416 48.938 27.2292C49.0227 27.4074 49.1827 27.5137 49.3867 27.4637C49.6189 27.4043 49.6126 27.2105 49.5907 27.0229L49.5938 27.0198C49.5905 27.0023 49.5876 26.9844 49.5847 26.9664ZM89.5558 51.6304C89.3547 51.572 89.3574 51.3997 89.3604 51.2082L89.361 51.1671L89.3612 51.1396L89.6839 49.4841C89.837 48.6987 89.9913 47.9068 90.1457 47.116C90.2632 46.5179 90.38 45.919 90.4968 45.3202L90.4996 45.3057C90.6157 44.7105 90.7317 44.1152 90.8486 43.5207C90.8547 43.4889 90.8607 43.457 90.8667 43.4249C90.8942 43.2772 90.922 43.1279 90.971 42.9892C91.062 42.736 91.2032 42.4608 91.517 42.5515C91.7913 42.6284 91.7377 42.8816 91.6928 43.0939L91.6869 43.122L91.6801 43.1549C91.1812 45.731 90.676 48.3071 90.1708 50.8832C90.1394 51.0333 90.0923 51.1865 90.0296 51.3272C89.9449 51.5304 89.8036 51.7023 89.5558 51.6304ZM60.9758 24.8216L60.9755 24.8191C60.724 23.076 60.4753 21.3518 60.2221 19.629C60.1844 19.3727 60.1217 19.0507 59.7765 19.1007C59.4282 19.1507 59.469 19.4915 59.5035 19.7385C59.8518 22.2396 60.2127 24.7406 60.5767 27.2417L60.5789 27.2567C60.616 27.5075 60.6622 27.819 61.016 27.7638C61.316 27.7163 61.3179 27.4567 61.3194 27.257V27.2568C61.3195 27.2331 61.3197 27.2102 61.3204 27.1886L61.3172 27.1854C61.2054 26.4131 61.0947 25.646 60.9846 24.8825L60.9837 24.8764L60.9818 24.8628L60.9777 24.8343L60.9758 24.8216ZM72.194 23.1385V23.1385V23.1389C72.2069 23.602 72.2198 24.0652 72.2436 24.528V27.6481C72.2436 27.6786 72.2446 27.7102 72.2456 27.7421C72.2521 27.9526 72.2592 28.1791 71.9894 28.2171C71.6286 28.2672 71.5784 27.9514 71.5627 27.6919C71.4089 25.2252 71.3556 22.7554 71.3995 20.2856L71.3999 20.2449C71.4016 20.0294 71.4039 19.749 71.7164 19.7666C71.9749 19.7827 71.9954 20.0129 72.0139 20.2201C72.017 20.2544 72.02 20.288 72.024 20.32C72.1417 21.2564 72.1679 22.197 72.194 23.1381V23.1382V23.1383V23.1384V23.1385ZM93.7889 28.4235C93.7763 28.7893 93.8014 29.0269 94.0776 29.0238C94.4477 29.0206 94.5137 28.6957 94.5702 28.4175L94.5702 28.4172C95.0033 26.2006 95.43 23.9841 95.8442 21.7643C95.8494 21.7365 95.8556 21.7069 95.8621 21.6762L95.8621 21.6761C95.9107 21.4455 95.9718 21.1553 95.6811 21.0891C95.2809 20.9968 95.2047 21.3603 95.1442 21.649L95.135 21.6924C94.9169 22.7138 94.7119 23.7373 94.5073 24.7593L94.3882 25.3534C94.2457 26.0673 94.1075 26.7811 93.9771 27.4541L93.9759 27.4605C93.9115 27.7932 93.849 28.1158 93.7889 28.4235ZM84.1867 20.4575C84.4855 20.4956 84.4594 20.7115 84.4343 20.9194C84.4243 21.0019 84.4145 21.0832 84.4252 21.1516H84.4283C84.3618 21.7037 84.2956 22.2548 84.2295 22.8051L84.2292 22.8082L84.2282 22.8162L84.2277 22.8202C84.0202 24.5485 83.8136 26.2687 83.5999 27.9889C83.5958 28.0201 83.5924 28.0532 83.5889 28.0873C83.563 28.3411 83.5316 28.6487 83.1637 28.5798C82.8123 28.5142 82.8468 28.1359 82.8782 27.8576C83.0406 26.4012 83.2139 24.9448 83.3871 23.4898L83.3875 23.4863L83.3879 23.4828C83.442 23.0287 83.496 22.5746 83.5497 22.1208C83.555 22.0733 83.5601 22.0258 83.5651 21.9784L83.5727 21.9069L83.5727 21.9068L83.5727 21.9066L83.5728 21.9065C83.6009 21.6405 83.6289 21.3753 83.6783 21.1141C83.6827 21.0909 83.6869 21.0671 83.6913 21.043C83.7429 20.7535 83.8044 20.4085 84.1867 20.4575Z" fill="#CCCCCC"/>
<path d="M0 1.85749C0 0.933543 0.749003 0.18454 1.67295 0.18454H11.7106C12.6346 0.18454 13.3836 0.933543 13.3836 1.85749C13.3836 2.78143 12.6346 3.53043 11.7106 3.53043H1.67295C0.749003 3.53043 0 2.78143 0 1.85749Z" fill="#346BD5"/>
<defs>
<clipPath id="clip0_32_173">
<rect width="41.6908" height="41.6908" fill="white" transform="translate(36.7529 13.0692) rotate(-18.269)"/>
</clipPath>
</defs>
</svg>
