<svg width="114" height="60" viewBox="0 0 114 60" fill="none" xmlns="http://www.w3.org/2000/svg">
<path d="M47.9501 1.40898C48.1586 0.630823 48.9585 0.169028 49.7366 0.377536L76.0376 7.42487C76.8158 7.63337 77.2776 8.43322 77.0691 9.21138C76.8605 9.98954 76.0607 10.4513 75.2825 10.2428L48.9815 3.1955C48.2034 2.98699 47.7416 2.18714 47.9501 1.40898Z" fill="#346BD5"/>
<path d="M37.3788 40.8605C37.5873 40.0823 38.3872 39.6205 39.1653 39.829L65.4663 46.8763C66.2445 47.0848 66.7063 47.8847 66.4978 48.6629C66.2893 49.441 65.4894 49.9028 64.7113 49.6943L38.4103 42.647C37.6321 42.4385 37.1703 41.6386 37.3788 40.8605Z" fill="#346BD5"/>
<path fill-rule="evenodd" clip-rule="evenodd" d="M50.8936 1.69444C51.4124 1.83345 51.7203 2.36669 51.5813 2.88546C50.6896 6.21324 50.0847 8.51052 50.2627 10.8829C50.4375 13.2138 51.3843 15.7194 53.8667 19.345L53.0643 19.8944L53.8667 19.345C54.7167 20.5865 55.3256 21.5959 55.6649 22.4411C56.0062 23.2915 56.1372 24.1318 55.7959 24.9245C55.4716 25.6777 54.808 26.1681 54.1402 26.5558C53.6172 26.8595 52.9602 27.1702 52.2386 27.5114C52.0295 27.6103 51.815 27.7117 51.5968 27.8163L51.5635 27.8322L51.5291 27.8456C43.5897 30.9336 41.7631 37.6883 41.2866 41.274C41.2159 41.8064 40.7269 42.1807 40.1945 42.1099C39.6621 42.0392 39.2879 41.5502 39.3587 41.0178C39.8719 37.1555 41.8997 29.5219 50.7894 26.0465C51.0288 25.9319 51.2537 25.8255 51.465 25.7255C52.1656 25.394 52.7182 25.1325 53.1636 24.8739C53.7564 24.5297 53.9452 24.3047 54.0095 24.1553C54.0569 24.0454 54.1129 23.7959 53.8599 23.1656C53.6049 22.5303 53.1002 21.6682 52.2619 20.4438C49.6791 16.6716 48.5337 13.8345 48.3232 11.0284C48.1182 8.29441 48.8166 5.68813 49.6737 2.4902C49.6833 2.45423 49.693 2.41818 49.7026 2.38206C49.8416 1.86329 50.3749 1.55543 50.8936 1.69444Z" fill="#346BD5"/>
<path fill-rule="evenodd" clip-rule="evenodd" d="M74.4501 8.00627C73.9313 7.86727 73.3981 8.17514 73.2591 8.69391C72.3674 12.0217 71.7426 14.3136 70.4023 16.2792C69.0855 18.2103 67.0127 19.9069 63.0501 21.8056L63.4703 22.6826L63.0501 21.8056C61.6932 22.4557 60.6612 23.0254 59.9448 23.5878C59.224 24.1536 58.6904 24.8158 58.5896 25.673C58.4939 26.4874 58.8234 27.2439 59.2078 27.9136C59.5089 28.4381 59.9225 29.0356 60.3769 29.6919C60.5085 29.8821 60.6435 30.0772 60.7803 30.2769L60.8011 30.3073L60.8242 30.3361C66.1559 36.9801 64.3604 43.7431 62.9802 47.0867C62.7753 47.5832 63.0116 48.1517 63.5081 48.3566C64.0045 48.5616 64.5731 48.3253 64.778 47.8288C66.2647 44.2273 68.3254 36.6026 62.3644 29.1479C62.2143 28.9289 62.0728 28.7244 61.9397 28.5321C61.4988 27.8947 61.151 27.392 60.8945 26.9453C60.5533 26.3508 60.5022 26.0616 60.5212 25.9C60.5352 25.7811 60.6114 25.5371 61.1457 25.1177C61.6842 24.695 62.5523 24.2008 63.8905 23.5596C68.0134 21.5841 70.4238 19.6999 72.0092 17.3749C73.5538 15.1098 74.252 12.5034 75.1088 9.30542C75.1184 9.26945 75.1281 9.2334 75.1377 9.19728C75.2767 8.67851 74.9689 8.14527 74.4501 8.00627Z" fill="#346BD5"/>
<path d="M43.8954 39.083C44.8684 35.4516 48.6011 33.2965 52.2325 34.2696L56.9291 35.528C60.5605 36.501 62.7155 40.2337 61.7425 43.8651L43.8954 39.083Z" fill="#404040"/>
<path d="M57.626 29.1707C57.4175 29.9489 56.6176 30.4107 55.8395 30.2022C55.0613 29.9937 54.5995 29.1938 54.808 28.4157C55.0165 27.6375 55.8164 27.1757 56.5945 27.3842C57.3727 27.5927 57.8345 28.3926 57.626 29.1707Z" fill="#404040"/>
<path d="M0 52.7066C0 51.3639 1.08846 50.2754 2.43114 50.2754H113.777V55.1377H2.43115C1.08846 55.1377 0 54.0492 0 52.7066V52.7066Z" fill="#CCCCCC"/>
<rect x="3.41748" y="54.6653" width="109.86" height="4.83474" stroke="#CCCCCC"/>
<path fill-rule="evenodd" clip-rule="evenodd" d="M101.622 17.2119H113.777V49.303H84.6035V39.0922H89.7393C89.786 38.9505 89.8334 38.8055 89.8819 38.6573L89.8821 38.6566L89.8821 38.6566C90.0908 38.0183 90.3181 37.323 90.5839 36.5996C90.2149 36.4615 89.9523 36.1057 89.9523 35.6886C89.9523 35.1515 90.3876 34.7161 90.9247 34.7161C91.0646 34.7161 91.1976 34.7457 91.3178 34.7988C91.6416 34.0877 92.0147 33.3726 92.4539 32.6781C92.1248 32.5223 91.8972 32.1871 91.8972 31.7988C91.8972 31.2617 92.3325 30.8263 92.8696 30.8263C93.1502 30.8263 93.4031 30.9452 93.5806 31.1353C94.0382 30.5925 94.5496 30.0748 95.1237 29.5925C94.9335 29.415 94.8145 29.1621 94.8145 28.8814C94.8145 28.3443 95.2499 27.9089 95.787 27.9089C96.1811 27.9089 96.5205 28.1434 96.6732 28.4804C97.3259 28.0826 98.0426 27.7252 98.8313 27.4171C98.7505 27.2754 98.7044 27.1113 98.7044 26.9365C98.7044 26.3994 99.1397 25.964 99.6768 25.964C100.179 25.964 100.593 26.3449 100.644 26.8337C100.96 26.7518 101.286 26.6768 101.622 26.6092V17.2119ZM103.566 19.1568V28.2537L102.746 28.3833C98.3948 29.0702 95.9517 31.0263 94.3976 33.265C93.0777 35.1663 92.3864 37.2706 91.7582 39.1829L91.7582 39.183C91.6235 39.593 91.4917 39.9943 91.3572 40.3827L91.1307 41.0371H86.5484V47.3581H111.832V19.1568H103.566Z" fill="#CCCCCC"/>
</svg>
