<svg width="113" height="61" viewBox="0 0 113 61" fill="none" xmlns="http://www.w3.org/2000/svg">
<path d="M8.28051 1C7.8904 6.27851 10.9723 17.3634 26.4207 19.4748C45.7313 22.114 54.5089 19.4748 54.5089 25.4131C54.5089 30.1638 54.5089 36.5741 54.5089 37.5638H20.5691C14.3273 37.1239 1.72662 37.8937 1.25848 44.4919C0.790347 51.09 1.06343 46.9983 1.25848 53.0466C1.06343 55.136 2.66288 59.3148 10.6212 59.3148C18.5795 59.3148 27.201 59.3148 30.5169 59.3148C35.1983 59.6447 44.0929 58.8529 42.2203 53.0466C40.3478 47.2402 41.4401 50.7486 42.2203 48.7692H111.27" stroke="#F3F3F3" stroke-width="2" stroke-linecap="round" stroke-dasharray="4 4"/>
<path d="M11.6989 5.06074C12.6083 4.5527 13.716 4.5527 14.6254 5.06074L18.5135 7.23304L22.3486 9.67115C23.1903 10.2063 23.7111 11.1247 23.738 12.1217L23.8649 16.8108L23.738 21.4999C23.7111 22.4969 23.1903 23.4154 22.3486 23.9505L18.5135 26.3886L14.6254 28.5609C13.716 29.0689 12.6083 29.0689 11.6989 28.5609L7.81081 26.3886L3.9757 23.9505C3.13398 23.4154 2.61325 22.4969 2.58629 21.4999L2.45946 16.8108L2.58629 12.1217C2.61325 11.1247 3.13398 10.2063 3.9757 9.67115L7.81081 7.23304L11.6989 5.06074Z" fill="#F3F3F3"/>
<path d="M34.8434 5.01469C35.7337 4.53332 36.8067 4.53332 37.697 5.01469L41.7999 7.23304L45.7725 9.67708C46.6346 10.2074 47.1711 11.1367 47.1994 12.1484L47.3297 16.8108L47.1994 21.4732C47.1711 22.4849 46.6346 23.4142 45.7725 23.9445L41.7999 26.3886L37.697 28.6069C36.8067 29.0883 35.7337 29.0883 34.8434 28.6069L30.7405 26.3886L26.7679 23.9445C25.9058 23.4142 25.3693 22.4849 25.3411 21.4732L25.2107 16.8108L25.3411 12.1484C25.3693 11.1367 25.9058 10.2074 26.7679 9.67708L30.7405 7.23304L34.8434 5.01469Z" fill="#F3F3F3"/>
<path d="M23.4923 25.285C24.3826 24.8036 25.4556 24.8036 26.346 25.285L30.4489 27.5033L34.4215 29.9474C35.2835 30.4777 35.82 31.407 35.8483 32.4187L35.9786 37.0811L35.8483 41.7435C35.82 42.7552 35.2835 43.6845 34.4215 44.2148L30.4489 46.6589L26.346 48.8772C25.4556 49.3586 24.3826 49.3586 23.4923 48.8772L19.3894 46.6589L15.4168 44.2148C14.5548 43.6845 14.0183 42.7552 13.99 41.7435L13.8597 37.0811L13.99 32.4187C14.0183 31.407 14.5548 30.4777 15.4168 29.9474L19.3894 27.5033L23.4923 25.285Z" fill="#F3F3F3"/>
<path d="M62.411 36.6363C63.3013 36.1549 64.3743 36.1549 65.2647 36.6363L69.3676 38.8547L73.3402 41.2987C74.2022 41.8291 74.7387 42.7583 74.767 43.77L74.8973 48.4324L74.767 53.0948C74.7387 54.1065 74.2022 55.0358 73.3402 55.5662L69.3676 58.0102L65.2647 60.2286C64.3743 60.7099 63.3013 60.7099 62.411 60.2286L58.3081 58.0102L54.3355 55.5662C53.4735 55.0358 52.937 54.1065 52.9087 53.0948L52.7784 48.4324L52.9087 43.77C52.937 42.7583 53.4735 41.8291 54.3355 41.2987L58.3081 38.8547L62.411 36.6363Z" fill="#F3F3F3"/>
<path d="M94.8434 36.6363C95.7337 36.1549 96.8067 36.1549 97.697 36.6363L101.8 38.8547L105.773 41.2987C106.635 41.8291 107.171 42.7583 107.199 43.77L107.33 48.4324L107.199 53.0948C107.171 54.1065 106.635 55.0358 105.773 55.5662L101.8 58.0102L97.697 60.2286C96.8067 60.7099 95.7337 60.7099 94.8434 60.2286L90.7405 58.0102L86.7679 55.5662C85.9058 55.0358 85.3693 54.1065 85.3411 53.0948L85.2107 48.4324L85.3411 43.77C85.3693 42.7583 85.9058 41.8291 86.7679 41.2987L90.7405 38.8547L94.8434 36.6363Z" fill="#F3F3F3"/>
<ellipse cx="13.5674" cy="16.8108" rx="7.7027" ry="7.7027" fill="#346BD5"/>
<ellipse cx="36.2701" cy="16.8108" rx="7.7027" ry="7.7027" fill="#346BD5"/>
<ellipse cx="24.919" cy="37.0811" rx="7.7027" ry="7.7027" fill="#346BD5"/>
<ellipse cx="63.838" cy="48.4324" rx="7.7027" ry="7.7027" fill="#346BD5"/>
<path d="M61.5388 47.8911V46.8235H66.1376V47.8911H61.5388ZM61.5388 50.1024V49.0348H66.1376V50.1024H61.5388Z" fill="white"/>
<ellipse cx="96.2703" cy="48.4324" rx="7.7027" ry="7.7027" fill="#346BD5"/>
<path d="M96.0202 52.9656V44.1204H96.5869V52.9656H96.0202ZM97.6545 46.9502C97.6222 46.6484 97.4863 46.4135 97.2468 46.2453C97.0095 46.0772 96.7009 45.9931 96.3208 45.9931C96.0536 45.9931 95.8244 46.0334 95.6332 46.114C95.442 46.1946 95.2958 46.3041 95.1944 46.4423C95.0931 46.5805 95.0412 46.7383 95.0389 46.9156C95.0389 47.063 95.0723 47.1909 95.1391 47.2991C95.2082 47.4074 95.3015 47.4995 95.419 47.5756C95.5365 47.6493 95.6666 47.7115 95.8094 47.7621C95.9523 47.8128 96.0962 47.8554 96.2413 47.89L96.9047 48.0558C97.1719 48.118 97.4288 48.2021 97.6752 48.308C97.924 48.414 98.1463 48.5476 98.3421 48.7088C98.5402 48.8701 98.6968 49.0647 98.812 49.2928C98.9271 49.5208 98.9847 49.788 98.9847 50.0944C98.9847 50.509 98.8788 50.8741 98.6669 51.1896C98.4549 51.5029 98.1486 51.7482 97.7478 51.9256C97.3493 52.1007 96.8667 52.1882 96.3001 52.1882C95.7496 52.1882 95.2716 52.103 94.8662 51.9325C94.4631 51.7621 94.1475 51.5133 93.9195 51.1862C93.6937 50.8591 93.5717 50.4606 93.5532 49.9907H94.8144C94.8328 50.2372 94.9088 50.4422 95.0424 50.6057C95.176 50.7693 95.3499 50.8914 95.5641 50.972C95.7806 51.0526 96.0225 51.0929 96.2897 51.0929C96.5684 51.0929 96.8126 51.0514 97.0222 50.9685C97.2341 50.8833 97.4 50.7658 97.5197 50.6161C97.6395 50.4641 97.7006 50.2867 97.7029 50.084C97.7006 49.8997 97.6464 49.7477 97.5405 49.6279C97.4345 49.5058 97.2859 49.4045 97.0948 49.3239C96.9059 49.2409 96.6847 49.1672 96.4314 49.1027L95.6263 48.8954C95.0435 48.7457 94.5829 48.5188 94.2443 48.2148C93.908 47.9084 93.7398 47.5018 93.7398 46.9951C93.7398 46.5782 93.8527 46.2131 94.0784 45.8998C94.3064 45.5865 94.6163 45.3435 95.0078 45.1708C95.3994 44.9957 95.8428 44.9082 96.3381 44.9082C96.8402 44.9082 97.2802 44.9957 97.658 45.1708C98.038 45.3435 98.3363 45.5842 98.5528 45.8929C98.7694 46.1992 98.8811 46.5517 98.888 46.9502H97.6545Z" fill="white"/>
</svg>
