<svg width="110" height="60" viewBox="0 0 110 60" fill="none" xmlns="http://www.w3.org/2000/svg">
<path d="M108.529 30L54.7058 30" stroke="#F3F3F3" stroke-width="2" stroke-linecap="round" stroke-dasharray="4 4"/>
<path d="M11.8084 5.18321C12.6987 4.70184 13.7717 4.70184 14.662 5.18321L17.5058 6.72077L20.2592 8.41476C21.1212 8.94511 21.6578 9.87437 21.686 10.8861L21.7764 14.1176L21.686 17.3492C21.6578 18.3609 21.1212 19.2902 20.2592 19.8205L17.5058 21.5145L14.662 23.0521C13.7717 23.5334 12.6987 23.5334 11.8083 23.0521L8.96459 21.5145L6.21115 19.8205C5.34911 19.2902 4.8126 18.3609 4.78432 17.3492L4.694 14.1176L4.78432 10.8861C4.8126 9.87437 5.34911 8.94511 6.21115 8.41476L8.96459 6.72077L11.8084 5.18321Z" fill="#F3F3F3"/>
<path d="M11.8084 36.9479C12.6987 36.4666 13.7717 36.4666 14.662 36.9479L17.5058 38.4855L20.2592 40.1795C21.1212 40.7098 21.6578 41.6391 21.686 42.6508L21.7764 45.8824L21.686 49.1139C21.6578 50.1256 21.1212 51.0549 20.2592 51.5852L17.5058 53.2792L14.662 54.8168C13.7717 55.2982 12.6987 55.2982 11.8083 54.8168L8.96459 53.2792L6.21115 51.5852C5.34911 51.0549 4.8126 50.1256 4.78432 49.1139L4.694 45.8824L4.78432 42.6508C4.8126 41.6391 5.34911 40.7098 6.21115 40.1795L8.96459 38.4855L11.8084 36.9479Z" fill="#F3F3F3"/>
<path d="M29.4556 5.18321C30.3459 4.70184 31.4189 4.70184 32.3092 5.18321L35.153 6.72077L37.9064 8.41476C38.7685 8.94511 39.305 9.87437 39.3333 10.8861L39.4236 14.1176L39.3333 17.3492C39.305 18.3609 38.7685 19.2902 37.9064 19.8205L35.153 21.5145L32.3092 23.0521C31.4189 23.5334 30.3459 23.5334 29.4556 23.0521L26.6118 21.5145L23.8584 19.8205C22.9963 19.2902 22.4598 18.3609 22.4315 17.3492L22.3412 14.1176L22.4315 10.8861C22.4598 9.87437 22.9963 8.94511 23.8584 8.41476L26.6118 6.72077L29.4556 5.18321Z" fill="#F3F3F3"/>
<path d="M29.4556 36.9479C30.3459 36.4666 31.4189 36.4666 32.3092 36.9479L35.153 38.4855L37.9064 40.1795C38.7685 40.7098 39.305 41.6391 39.3333 42.6508L39.4236 45.8824L39.3333 49.1139C39.305 50.1256 38.7685 51.0549 37.9064 51.5852L35.153 53.2792L32.3092 54.8168C31.4189 55.2982 30.3459 55.2982 29.4556 54.8168L26.6118 53.2792L23.8584 51.5852C22.9963 51.0549 22.4598 50.1256 22.4315 49.1139L22.3412 45.8824L22.4315 42.6508C22.4598 41.6391 22.9963 40.7098 23.8584 40.1795L26.6118 38.4855L29.4556 36.9479Z" fill="#F3F3F3"/>
<path d="M20.6321 21.0656C21.5224 20.5842 22.5954 20.5842 23.4857 21.0656L26.3295 22.6031L29.0829 24.2971C29.945 24.8275 30.4815 25.7567 30.5098 26.7685L30.6001 30L30.5098 33.2315C30.4815 34.2433 29.945 35.1725 29.0829 35.7029L26.3295 37.3969L23.4857 38.9344C22.5954 39.4158 21.5224 39.4158 20.6321 38.9344L17.7883 37.3969L15.0349 35.7029C14.1728 35.1725 13.6363 34.2433 13.6081 33.2315L13.5177 30L13.6081 26.7684C13.6363 25.7567 14.1728 24.8275 15.0349 24.2971L17.7883 22.6031L20.6321 21.0656Z" fill="#F3F3F3"/>
<path d="M39.1614 21.0656C40.0517 20.5842 41.1247 20.5842 42.015 21.0656L44.8588 22.6031L47.6122 24.2971C48.4743 24.8275 49.0108 25.7567 49.0391 26.7685L49.1294 30L49.0391 33.2315C49.0108 34.2433 48.4743 35.1725 47.6122 35.7029L44.8588 37.3969L42.015 38.9344C41.1247 39.4158 40.0517 39.4158 39.1614 38.9344L36.3176 37.3969L33.5642 35.7029C32.7021 35.1725 32.1656 34.2433 32.1373 33.2315L32.047 30L32.1373 26.7684C32.1656 25.7567 32.7021 24.8275 33.5642 24.2971L36.3176 22.6031L39.1614 21.0656Z" fill="#F3F3F3"/>
<path d="M73.5732 21.0656C74.4636 20.5842 75.5366 20.5842 76.4269 21.0656L79.2707 22.6031L82.0241 24.2971C82.8861 24.8275 83.4227 25.7567 83.4509 26.7685L83.5412 30L83.4509 33.2315C83.4227 34.2433 82.8861 35.1725 82.0241 35.7029L79.2707 37.3969L76.4269 38.9344C75.5366 39.4158 74.4636 39.4158 73.5732 38.9344L70.7295 37.3969L67.976 35.7029C67.114 35.1725 66.5775 34.2433 66.5492 33.2315L66.4589 30L66.5492 26.7684C66.5775 25.7567 67.114 24.8275 67.976 24.2971L70.7295 22.6031L73.5732 21.0656Z" fill="#F3F3F3"/>
<path d="M97.3967 21.0656C98.287 20.5842 99.3601 20.5842 100.25 21.0656L103.094 22.6031L105.848 24.2971C106.71 24.8275 107.246 25.7567 107.274 26.7685L107.365 30L107.274 33.2315C107.246 34.2433 106.71 35.1725 105.848 35.7029L103.094 37.3969L100.25 38.9344C99.3601 39.4158 98.287 39.4158 97.3967 38.9344L94.553 37.3969L91.7995 35.7029C90.9375 35.1725 90.401 34.2433 90.3727 33.2315L90.2824 30L90.3727 26.7684C90.401 25.7567 90.9375 24.8275 91.7995 24.2971L94.553 22.6031L97.3967 21.0656Z" fill="#F3F3F3"/>
<circle cx="13.2353" cy="14.1176" r="6.17647" fill="#346BD5"/>
<circle cx="13.2353" cy="45.8823" r="6.17647" fill="#346BD5"/>
<circle cx="30.8823" cy="14.1176" r="6.17647" fill="#346BD5"/>
<circle cx="30.8823" cy="45.8823" r="6.17647" fill="#346BD5"/>
<circle cx="22.0588" cy="30" r="6.17647" fill="#346BD5"/>
<circle cx="40.5883" cy="30" r="6.17647" fill="#346BD5"/>
<circle cx="75" cy="30" r="6.17647" fill="#346BD5"/>
<circle cx="98.8234" cy="30" r="6.17647" fill="#346BD5"/>
<path d="M72.7065 29.2762V28.2112H77.2941V29.2762H72.7065ZM72.7065 31.4821V30.4171H77.2941V31.4821H72.7065Z" fill="white"/>
<path d="M98.574 34.4118V25.5882H99.1392V34.4118H98.574ZM100.204 28.4111C100.172 28.1101 100.037 27.8757 99.7976 27.7079C99.5609 27.5402 99.253 27.4563 98.8738 27.4563C98.6073 27.4563 98.3787 27.4965 98.1879 27.577C97.9972 27.6574 97.8513 27.7665 97.7502 27.9044C97.6491 28.0423 97.5974 28.1997 97.5951 28.3766C97.5951 28.5237 97.6284 28.6512 97.6951 28.7592C97.764 28.8672 97.8571 28.9591 97.9743 29.0349C98.0914 29.1084 98.2213 29.1705 98.3637 29.221C98.5062 29.2716 98.6498 29.3141 98.7946 29.3486L99.4563 29.514C99.7229 29.576 99.9791 29.6599 100.225 29.7656C100.473 29.8713 100.695 30.0046 100.89 30.1654C101.088 30.3263 101.244 30.5204 101.359 30.7479C101.474 30.9754 101.531 31.2419 101.531 31.5476C101.531 31.9612 101.426 32.3254 101.214 32.6402C101.003 32.9527 100.697 33.1974 100.297 33.3743C99.8998 33.5489 99.4184 33.6363 98.8532 33.6363C98.304 33.6363 97.8272 33.5512 97.4228 33.3812C97.0207 33.2112 96.7059 32.963 96.4784 32.6367C96.2532 32.3104 96.1314 31.9129 96.113 31.4442H97.3711C97.3895 31.69 97.4653 31.8945 97.5986 32.0577C97.7318 32.2208 97.9053 32.3426 98.119 32.423C98.335 32.5034 98.5763 32.5436 98.8428 32.5436C99.1208 32.5436 99.3644 32.5023 99.5735 32.4196C99.7849 32.3346 99.9504 32.2174 100.07 32.068C100.189 31.9164 100.25 31.7394 100.253 31.5372C100.25 31.3534 100.196 31.2017 100.091 31.0823C99.9848 30.9605 99.8366 30.8594 99.6459 30.7789C99.4575 30.6962 99.2369 30.6227 98.9841 30.5584L98.1811 30.3516C97.5997 30.2022 97.1402 29.9759 96.8024 29.6726C96.4669 29.3669 96.2992 28.9614 96.2992 28.4559C96.2992 28.04 96.4118 27.6758 96.6369 27.3633C96.8644 27.0508 97.1735 26.8084 97.5641 26.636C97.9547 26.4614 98.397 26.3741 98.8911 26.3741C99.392 26.3741 99.8309 26.4614 100.208 26.636C100.587 26.8084 100.884 27.0485 101.1 27.3564C101.316 27.662 101.428 28.0135 101.435 28.4111H100.204Z" fill="white"/>
<path fill-rule="evenodd" clip-rule="evenodd" d="M2.8406 59.9328L3.18308 58.2017C3.29367 58.2235 3.4093 58.2353 3.52941 58.2353H4.42874V60H3.52941C3.2937 60 3.06338 59.9769 2.8406 59.9328ZM49.3948 60V58.2353H50.2941C50.4142 58.2353 50.5299 58.2235 50.6404 58.2017L50.9829 59.9328C50.7601 59.9769 50.5298 60 50.2941 60H49.3948ZM52.2551 59.4055L51.2734 57.9391C51.4666 57.8098 51.6333 57.643 51.7626 57.4498L53.2291 58.4316C52.9714 58.8165 52.64 59.1479 52.2551 59.4055ZM53.8235 4.41176H52.0588V3.52941C52.0588 3.4093 52.0471 3.29367 52.0252 3.18308L53.7563 2.8406C53.8004 3.06338 53.8235 3.2937 53.8235 3.52941V4.41176ZM53.2291 1.56842L51.7626 2.55016C51.6333 2.35695 51.4666 2.19024 51.2734 2.06089L52.2551 0.594475C52.64 0.852151 52.9714 1.18353 53.2291 1.56842ZM4.42873 0H3.52941C3.2937 0 3.06338 0.0231068 2.8406 0.0671789L3.18308 1.79833C3.29367 1.77646 3.4093 1.76471 3.52941 1.76471H4.42873V0ZM1.56842 0.594475L2.55016 2.06089C2.35695 2.19024 2.19024 2.35695 2.06089 2.55016L0.594475 1.56842C0.852151 1.18353 1.18353 0.85215 1.56842 0.594475ZM0 55.5882H1.76471V56.4706C1.76471 56.5907 1.77646 56.7063 1.79833 56.8169L0.0671789 57.1594C0.0231068 56.9366 0 56.7063 0 56.4706V55.5882ZM1.56841 59.4055L2.55016 57.9391C2.35695 57.8098 2.19024 57.643 2.06089 57.4498L0.594475 58.4316C0.85215 58.8165 1.18353 59.1479 1.56841 59.4055ZM0 53.8235H1.76471V52.0588H0V53.8235ZM0 50.2941H1.76471V48.5294H0V50.2941ZM0 46.7647H1.76471V45H0V46.7647ZM0 43.2353H1.76471V41.4706H0V43.2353ZM0 39.7059H1.76471V37.9412H0V39.7059ZM0 36.1765H1.76471V34.4118H0V36.1765ZM0 32.6471H1.76471V30.8824H0V32.6471ZM0 29.1176H1.76471V27.3529H0V29.1176ZM0 25.5882H1.76471V23.8235H0V25.5882ZM0 22.0588H1.76471V20.2941H0V22.0588ZM0 18.5294H1.76471V16.7647H0V18.5294ZM0 15H1.76471V13.2353H0V15ZM0 11.4706H1.76471V9.70588H0V11.4706ZM0 7.94118H1.76471V6.17647H0V7.94118ZM0 4.41176H1.76471V3.52941C1.76471 3.4093 1.77646 3.29367 1.79833 3.18308L0.067179 2.8406C0.0231069 3.06338 0 3.2937 0 3.52941V4.41176ZM6.22738 0V1.76471H8.02602V0H6.22738ZM9.82466 0V1.76471H11.6233V0H9.82466ZM13.4219 0V1.76471H15.2206V0H13.4219ZM17.0192 0V1.76471H18.8179V0H17.0192ZM20.6165 0V1.76471H22.4152V0H20.6165ZM24.2138 0V1.76471H26.0124V0H24.2138ZM27.8111 0V1.76471H29.6097V0H27.8111ZM31.4084 0V1.76471H33.207V0H31.4084ZM35.0057 0V1.76471H36.8043V0H35.0057ZM38.6029 0V1.76471H40.4016V0H38.6029ZM42.2002 0V1.76471H43.9989V0H42.2002ZM45.7975 0V1.76471H47.5961V0H45.7975ZM49.3948 0V1.76471H50.2941C50.4142 1.76471 50.5299 1.77646 50.6404 1.79833L50.9829 0.0671788C50.7601 0.0231068 50.5298 0 50.2941 0H49.3948ZM53.8235 6.17647H52.0588V7.94118H53.8235V6.17647ZM53.8235 9.70588H52.0588V11.4706H53.8235V9.70588ZM53.8235 13.2353H52.0588V15H53.8235V13.2353ZM53.8235 16.7647H52.0588V18.5294H53.8235V16.7647ZM53.8235 20.2941H52.0588V22.0588H53.8235V20.2941ZM53.8235 23.8235H52.0588V25.5882H53.8235V23.8235ZM53.8235 27.3529H52.0588V29.1176H53.8235V27.3529ZM53.8235 30.8824H52.0588V32.6471H53.8235V30.8824ZM53.8235 34.4118H52.0588V36.1765H53.8235V34.4118ZM53.8235 37.9412H52.0588V39.7059H53.8235V37.9412ZM53.8235 41.4706H52.0588V43.2353H53.8235V41.4706ZM53.8235 45H52.0588V46.7647H53.8235V45ZM53.8235 48.5294H52.0588V50.2941H53.8235V48.5294ZM53.8235 52.0588H52.0588V53.8235H53.8235V52.0588ZM53.8235 55.5882H52.0588V56.4706C52.0588 56.5907 52.0471 56.7063 52.0252 56.8169L53.7563 57.1594C53.8004 56.9366 53.8235 56.7063 53.8235 56.4706V55.5882ZM47.5962 60V58.2353H45.7975V60H47.5962ZM43.9989 60V58.2353H42.2002V60H43.9989ZM40.4016 60V58.2353H38.6029V60H40.4016ZM36.8043 60V58.2353H35.0057V60H36.8043ZM33.207 60V58.2353H31.4084V60H33.207ZM29.6097 60V58.2353H27.8111V60H29.6097ZM26.0124 60V58.2353H24.2138V60H26.0124ZM22.4152 60V58.2353H20.6165V60H22.4152ZM18.8179 60V58.2353H17.0192V60H18.8179ZM15.2206 60V58.2353H13.4219V60H15.2206ZM11.6233 60V58.2353H9.82467V60H11.6233ZM8.02603 60V58.2353H6.22739V60H8.02603Z" fill="#F3F3F3"/>
</svg>
