<svg width="86" height="60" viewBox="0 0 86 60" fill="none" xmlns="http://www.w3.org/2000/svg">
<g clip-path="url(#clip0_32_177)">
<path d="M17.8038 19.8847C17.8598 18.7926 17.9422 17.7072 18.219 16.6385C18.4068 15.9227 18.6111 15.2135 18.8056 14.4977C18.9407 13.9949 19.1087 13.5055 19.2735 13.0128C19.425 12.5533 19.6063 12.1038 19.7809 11.6544C19.9655 11.1716 20.1665 10.6922 20.3444 10.2061C20.4301 9.97968 20.3708 9.91309 20.1236 9.88646C19.4877 9.81654 18.8484 9.8798 18.2124 9.80988C17.9653 9.78324 17.8104 9.93973 17.7148 10.1428C17.3491 10.9352 16.9866 11.7276 16.634 12.5233C16.3506 13.1626 16.0706 13.7985 15.8135 14.4511C15.5367 15.1569 15.2566 15.8627 14.9897 16.5752C14.8019 17.0746 14.6602 17.5874 14.4394 18.0735C14.3307 18.3165 14.3439 18.5928 14.2483 18.8392C13.9979 19.4818 13.9122 20.1677 13.7738 20.8369C13.6453 21.4461 13.6157 22.0721 13.698 22.698C13.7343 22.981 13.8793 23.2207 14.0275 23.4538C14.2121 23.7468 14.1528 24.0364 13.8232 24.1563C13.2697 24.3594 12.7062 24.3727 12.1625 24.1063C11.6484 23.8566 11.3716 23.4238 11.2596 22.8645C11.1212 22.1786 11.164 21.4994 11.2662 20.8169C11.5265 19.0856 11.9977 17.4076 12.5744 15.7595C12.6864 15.4399 12.7886 15.1169 12.927 14.8073C13.0423 14.5509 13.0093 14.3112 12.8116 14.0982C11.5133 12.6998 10.1623 11.3614 8.61358 10.246C8.3961 10.0895 8.16543 9.95304 7.90841 9.86315C7.49322 9.71666 7.38118 9.54686 7.38448 9.10738C7.38448 8.79774 7.36141 8.49144 7.51958 8.19512C7.82274 7.62246 8.30713 7.46265 8.91014 7.47264C9.76689 7.48596 10.6236 7.4793 11.4804 7.446C12.3075 7.41604 13.1346 7.30617 13.9649 7.30284C14.568 7.30284 15.171 7.25623 15.774 7.21295C15.9322 7.20296 16.0475 7.13304 16.1233 6.99653C16.1628 6.92329 16.1991 6.85004 16.232 6.77346C16.489 6.19748 17.0888 6.03434 17.6028 6.39724C17.8368 6.56038 18.0213 6.77679 18.2157 6.98322C18.3508 7.12638 18.4991 7.18298 18.6902 7.17965C19.4877 7.16966 20.2785 7.11639 21.0726 7.04315C21.8931 6.96657 22.7136 6.89998 23.5275 6.79011C24.0976 6.71354 24.6578 6.57037 25.2114 6.40723C25.6397 6.28071 26.0088 6.05431 26.3218 5.72137C26.6184 5.40175 27.027 5.50496 27.172 5.92114C27.205 6.01769 27.2313 6.1209 27.2709 6.21745C27.5542 6.87668 27.485 7.51259 27.1522 8.13852C27.0567 8.31831 26.9413 8.47146 26.7799 8.59798C25.9956 9.22058 25.0829 9.48027 24.1141 9.5968C23.8076 9.63342 23.4979 9.64341 23.198 9.72664C23.0399 9.76993 22.9476 9.86981 22.8916 10.0296C22.6477 10.7388 22.3512 11.4246 22.0678 12.1138C21.8009 12.7664 21.5373 13.4223 21.2802 14.0782C21.0924 14.5609 20.8584 15.0271 20.7728 15.5464C20.7629 15.613 20.7069 15.6896 20.7728 15.7395C20.8288 15.7795 20.8815 15.7029 20.9375 15.6829C21.0693 15.6297 21.1583 15.5298 21.244 15.4166C21.7119 14.774 22.2062 14.1514 22.8685 13.692C23.1815 13.4756 23.5012 13.2758 23.8933 13.2325C24.7369 13.1393 25.8342 14.0249 25.4387 15.0837C25.0993 15.9992 24.7369 16.9048 24.3909 17.8171C24.1207 18.5296 23.8867 19.2521 23.6659 19.9845C23.6396 20.0711 23.6264 20.161 23.6198 20.2509C23.6132 20.3308 23.5901 20.4273 23.6824 20.474C23.7648 20.5139 23.8439 20.4673 23.9131 20.424C24.1009 20.3108 24.2294 20.1344 24.3513 19.9612C24.727 19.4385 25.0763 18.8991 25.3959 18.3398C25.6068 17.9736 25.6859 17.5474 25.8111 17.1446C26.0681 16.3122 26.4471 15.5398 26.9413 14.8273C27.3236 14.2746 27.7618 13.7819 28.3088 13.3723C29.5116 12.4701 30.8494 13.0228 31.5117 14.0182C31.637 14.208 31.7424 14.4111 31.7918 14.6375C31.8446 14.8806 31.9895 15.057 32.184 15.2035C32.4245 15.3866 32.6651 15.5664 32.8595 15.8061C33.0934 16.0991 33.156 16.4021 33.0012 16.7517C32.7606 17.2944 32.5398 17.8471 32.3355 18.4064C32.1247 18.9824 32.0587 19.5917 31.8709 20.171C31.838 20.2775 31.7918 20.4473 31.9401 20.5006C32.0818 20.5505 32.2268 20.474 32.3191 20.3508C32.4311 20.2043 32.5365 20.0445 32.6288 19.8847C33.0901 19.0889 33.5581 18.2965 34.0062 17.4941C34.1182 17.291 34.1808 17.058 34.2566 16.8349C34.6059 15.8328 35.0244 14.8606 35.466 13.8984C35.5945 13.622 35.7296 13.3524 35.9174 13.106C36.1019 12.8596 36.3491 12.7964 36.6127 12.8929C37.2552 13.126 37.766 13.5255 38.023 14.1947C38.1153 14.4344 38.1713 14.4511 38.3723 14.2879C38.7348 13.9949 39.0313 13.6254 39.4432 13.3823C40.1814 12.9462 40.847 12.9462 41.45 13.4589C41.7927 13.7486 41.9607 14.1348 41.8751 14.6075C41.7564 15.2568 41.4467 15.8328 41.193 16.4321C40.7778 17.4142 40.3362 18.3831 40.0397 19.4119C39.9507 19.7182 39.7892 19.9979 39.7464 20.3208C39.7332 20.4273 39.7068 20.5405 39.7958 20.6138C39.8947 20.697 39.9869 20.6038 40.0759 20.5605C40.1715 20.5139 40.244 20.4407 40.3066 20.3574C40.7316 19.7981 41.1501 19.2288 41.5291 18.6328C41.7861 18.2299 41.9509 17.7938 41.9805 17.311C41.9904 17.1545 42.0168 16.9914 42.0596 16.8416C42.2507 16.2057 42.3891 15.5531 42.5506 14.9105C42.6824 14.3945 42.9065 13.9117 43.002 13.3857C43.058 13.0727 43.2096 12.783 43.3184 12.4867C43.806 11.155 44.3135 9.82653 45.0055 8.58466C45.1241 8.37491 45.2559 8.16848 45.424 7.99536C45.6546 7.75564 45.8886 7.729 46.1324 7.95207C46.6069 8.3849 46.887 8.93425 46.887 9.58015C46.887 9.99966 46.6597 10.3759 46.5048 10.7588C46.2016 11.5112 45.8392 12.2337 45.592 13.0094C45.4899 13.3257 45.2856 13.6021 45.2362 13.9383C45.223 14.0349 45.1241 14.1614 45.246 14.218C45.3614 14.2713 45.4899 14.2014 45.5723 14.1015C45.681 13.965 45.8227 13.8651 45.9413 13.7419C46.2214 13.4622 46.5344 13.2292 46.8739 13.0261C47.8262 12.4601 48.8015 13.126 48.9465 14.0382C49.0948 14.9705 48.7422 15.7262 48.1754 16.4054C47.5461 17.1579 46.7849 17.7405 45.8556 18.0801C45.6744 18.1467 45.4899 18.1966 45.3053 18.2466C45.1637 18.2832 45.1076 18.3664 45.1076 18.5163C45.1076 18.8292 45.223 19.1189 45.335 19.3952C45.592 20.0511 45.826 20.7203 46.2544 21.2963C46.6992 21.8923 47.2231 22.3884 47.8789 22.7413C48.0502 22.8345 48.2414 22.8678 48.4358 22.8645C48.6071 22.8645 48.7785 22.8711 48.9432 22.9344C49.2365 23.0476 49.3321 23.3705 49.1047 23.5836C48.5676 24.083 48.0008 24.5525 47.233 24.639C46.6168 24.709 46.0896 24.4892 45.6151 24.1063C45.5788 24.0764 45.5426 24.0364 45.5294 23.9931C45.4273 23.6602 45.1768 23.4205 45.0055 23.1308C44.6694 22.5615 44.4288 21.9522 44.2179 21.3263C44.0894 20.9467 43.9576 20.5705 43.895 20.171C43.8719 20.0245 43.8258 19.8347 43.6281 19.8613C43.4436 19.8847 43.4271 20.0678 43.4205 20.2243C43.4007 20.6537 43.4205 21.0832 43.5325 21.5027C43.5754 21.6659 43.5952 21.829 43.5853 21.9955C43.5754 22.2052 43.4633 22.3418 43.2887 22.435C43.1239 22.5215 43.0152 22.4083 42.9065 22.3184C42.7384 22.1853 42.5736 22.0488 42.4089 21.9123C42.1585 21.7025 41.964 21.4595 41.9179 21.1232C41.9179 21.1099 41.9113 21.0966 41.908 21.0832C41.8619 20.9501 41.8586 20.7769 41.684 20.7403C41.506 20.7004 41.4105 20.8402 41.3182 20.96C41.0381 21.323 40.7218 21.6492 40.3659 21.9356C40.1945 22.0754 40.01 22.1919 39.8156 22.3018C39.0939 22.7047 38.4975 22.4649 37.9868 21.8523C37.6869 21.4928 37.6638 21.0666 37.654 20.6371C37.6375 19.9512 37.7264 19.2854 37.911 18.6095C38.0988 17.9203 38.3723 17.2611 38.5206 16.5619C38.5371 16.4853 38.5898 16.3854 38.5074 16.3322C38.4283 16.2822 38.3525 16.3655 38.2866 16.4054C38.1977 16.4587 38.1219 16.5353 38.0659 16.6218C37.5419 17.4342 36.985 18.2299 36.5006 19.0689C35.9734 19.9845 35.5055 20.9367 35.1068 21.9189C34.9651 22.2685 34.6455 22.3784 34.3291 22.1786C34.0194 21.9855 33.8151 21.7058 33.7063 21.3529C33.6734 21.2464 33.6964 21.0866 33.5548 21.0599C33.3999 21.03 33.2813 21.1398 33.1923 21.2564C33.0045 21.4928 32.8035 21.7258 32.6387 21.9822C31.983 22.9943 30.5627 22.6381 30.0619 21.8656C29.9498 21.6925 29.8345 21.5194 29.7554 21.3263C29.6632 21.0999 29.6071 21.0866 29.4061 21.2397C29.0601 21.5027 28.7735 21.8357 28.411 22.0754C28.032 22.3251 27.6564 22.5582 27.1654 22.5548C26.5756 22.5482 26.1571 22.2752 25.8473 21.8057C25.6958 21.576 25.5607 21.3329 25.4684 21.0699C25.4025 20.8768 25.2311 20.8235 25.0631 20.9434C24.9906 20.9933 24.9346 21.0699 24.8786 21.1365C24.6545 21.4062 24.437 21.6859 24.2031 21.9489C23.5901 22.6414 22.3742 22.5482 21.8371 21.7924C21.4285 21.2164 21.4615 20.5639 21.4713 19.9146C21.4746 19.6516 21.5109 19.3886 21.5405 19.1289C21.5669 18.8792 21.6196 18.6361 21.7185 18.4064C21.8009 18.2133 21.8503 18.0135 21.8767 17.8071C21.9096 17.5574 21.9623 17.3144 22.0908 17.0946C22.1205 17.0413 22.1436 16.9814 22.1535 16.9182C22.1732 16.805 22.1699 16.6718 22.081 16.6085C21.9821 16.5386 21.9162 16.6718 21.847 16.725C21.5537 16.9514 21.4186 17.2944 21.2275 17.5974C20.6706 18.4796 20.1961 19.4119 19.6854 20.3241C19.5305 20.5971 19.4975 20.8968 19.514 21.2064C19.5338 21.5527 19.5667 21.8956 19.5832 22.2419C19.603 22.658 19.2899 22.7346 19.0263 22.5981C18.4134 22.2785 17.9916 21.8024 17.8862 21.0899C17.8269 20.6937 17.7709 20.2942 17.7873 19.888L17.8038 19.8847ZM30.4441 15.2901C30.4441 15.2135 30.454 15.1369 30.4441 15.0603C30.4178 14.9039 30.3321 14.794 30.1805 14.7441C30.0388 14.6974 29.907 14.7174 29.8016 14.8273C29.7422 14.8872 29.6895 14.9505 29.6368 15.0104C29.1886 15.5065 28.9745 16.1391 28.668 16.7151C28.3055 17.3976 28.032 18.1234 27.7816 18.8559C27.5971 19.3986 27.3532 19.9146 27.2445 20.4839C27.2017 20.7004 27.2511 20.9268 27.3895 21.0067C27.5542 21.1032 27.7322 21.0633 27.9035 20.8868C28.6087 20.171 29.3501 19.4885 29.9202 18.6494C30.019 18.503 30.1179 18.3631 30.1212 18.18C30.1245 17.9669 30.1212 17.7505 30.1146 17.5341C30.108 17.2544 30.1278 16.9814 30.2167 16.7151C30.3716 16.2523 30.3848 15.7629 30.4474 15.2867L30.4441 15.2901ZM12.2844 9.56017C11.833 9.56017 11.3782 9.56017 10.9268 9.56017C10.8016 9.56017 10.6566 9.55352 10.6072 9.69002C10.5643 9.80655 10.6862 9.88646 10.7554 9.96636C11.4639 10.7921 12.1592 11.6311 12.805 12.51C12.9072 12.6499 13.0126 12.7897 13.1379 12.9062C13.3718 13.126 13.5497 13.0827 13.6717 12.7897C13.8661 12.3336 14.0737 11.8774 14.2417 11.4113C14.4065 10.9619 14.6405 10.5457 14.7558 10.0762C14.848 9.70667 14.7821 9.61345 14.3999 9.60013C13.6947 9.57349 12.9896 9.55019 12.2844 9.56017ZM46.9398 14.9272C46.9463 14.8672 46.9332 14.8373 46.9002 14.8206C46.8343 14.7907 46.7816 14.8273 46.7289 14.8639C46.2807 15.1602 45.9611 15.5897 45.6052 15.9826C45.5294 16.0658 45.5064 16.1424 45.5986 16.2323C45.6942 16.3255 45.77 16.2556 45.8293 16.199C46.2148 15.8527 46.5773 15.4865 46.8739 15.0603C46.9035 15.0171 46.9233 14.9605 46.9365 14.9305L46.9398 14.9272Z" fill="#346BD5"/>
<path d="M59.9822 18.9326C60.0482 18.027 60.0943 17.1215 60.4633 16.2691C60.6149 15.9195 60.783 15.7997 61.1586 15.8296C61.1916 15.8296 61.2278 15.833 61.2608 15.8363C61.643 15.8496 61.6826 15.813 61.7419 15.4401C61.8737 14.6377 62.2065 13.9352 62.7897 13.3692C63.4982 12.6767 64.3517 12.407 65.3204 12.5635C65.8872 12.6567 66.3617 12.963 66.7275 13.4058C67.6402 14.5212 67.8676 15.7997 67.5546 17.1947C67.5018 17.4244 67.4195 17.6475 67.4063 17.8839C67.403 17.9638 67.3832 18.0603 67.4821 18.1003C67.5644 18.1336 67.6271 18.0737 67.6798 18.0204C67.7622 17.9372 67.8445 17.8539 67.917 17.7607C68.1444 17.4544 68.3784 17.1581 68.642 16.8817C68.8232 16.6886 68.9286 16.4522 69.0176 16.1992C69.189 15.7031 69.3274 15.1971 69.5547 14.7176C69.7162 14.3747 69.8381 14.0118 69.9831 13.6589C70.2072 13.1095 70.6257 13.0496 71.0969 13.3759C71.3341 13.539 71.5483 13.7354 71.7625 13.9319C72.0986 14.2382 72.1184 14.6277 71.98 15.0206C71.8416 15.4101 71.6603 15.7864 71.489 16.1659C71.0277 17.1914 70.6718 18.2534 70.4049 19.3455C70.3653 19.5053 70.3555 19.6751 70.339 19.8382C70.3291 19.9481 70.3192 20.0746 70.4378 20.1346C70.5565 20.1945 70.6784 20.1712 70.7904 20.0979C71.1101 19.8882 71.3836 19.6318 71.5912 19.3055C72.0228 18.6297 72.4512 17.9505 72.8005 17.228C73.0839 16.642 73.3574 16.0527 73.6012 15.4501C73.8352 14.8741 74.1087 14.3148 74.3228 13.7288C74.4744 13.3159 74.883 13.1461 75.285 13.3093C75.72 13.4857 76.1055 13.7255 76.3527 14.1516C76.4713 14.3514 76.501 14.5545 76.4021 14.7642C76.2176 15.1571 76.0067 15.54 75.8386 15.9428C75.5058 16.7486 75.1697 17.5509 74.9654 18.4033C74.8336 18.9626 74.6425 19.5053 74.5898 20.0813C74.5799 20.1812 74.5272 20.3044 74.6293 20.3709C74.7413 20.4475 74.8567 20.3743 74.9522 20.3077C75.0676 20.2278 75.1565 20.1246 75.2389 20.0114C75.8287 19.2356 76.356 18.4166 76.8832 17.5976C77.1633 17.1647 77.5027 16.7852 77.9014 16.4622C77.9508 16.4223 78.0003 16.3857 78.0563 16.3623C78.165 16.3157 78.2869 16.2858 78.3891 16.3723C78.4814 16.4489 78.455 16.5621 78.4319 16.6653C78.3891 16.8618 78.3199 17.0515 78.2375 17.2347C77.7894 18.2268 77.2819 19.1857 76.6921 20.0979C76.2176 20.8337 75.6508 21.4963 74.9358 22.009C74.5667 22.272 74.1548 22.4452 73.6803 22.3353C73.0839 22.1955 72.7972 21.746 72.5896 21.2199C72.5336 21.0735 72.5105 20.9103 72.4545 20.7638C72.3754 20.5507 72.2172 20.5141 72.0624 20.6839C71.8943 20.867 71.746 21.0668 71.5912 21.2599C71.2847 21.6395 70.8959 21.9058 70.4609 22.1056C70.0721 22.2854 69.6767 22.2454 69.3109 22.0357C68.5036 21.5729 68.0422 20.8937 68.0488 19.9281C68.0488 19.805 68.1114 19.6385 67.9665 19.5686C67.8116 19.4953 67.6963 19.6252 67.5842 19.7117C67.2448 19.9714 66.8988 20.2111 66.4737 20.321C66.2101 20.3909 66.0124 20.5807 65.8312 20.7871C65.3402 21.3398 64.7932 21.8226 64.0913 22.0823C62.8853 22.5284 61.442 22.2987 60.6248 21.1667C60.2821 20.6906 60.0778 20.1446 60.0185 19.5519C59.9987 19.3455 59.9592 19.1391 59.9724 18.9293L59.9822 18.9326ZM65.6664 15.4434C65.6664 15.3569 65.6796 15.1904 65.6664 15.0239C65.6005 14.3148 65.0535 13.9752 64.4044 14.2315C63.8969 14.4346 63.6465 14.8575 63.462 15.3436C63.1885 16.0594 63.3005 16.7952 63.373 17.5177C63.4323 18.1269 63.7322 18.623 64.2825 18.9426C64.5889 19.1224 64.813 19.0858 64.9217 18.7462C65.0239 18.4299 65.1787 18.1303 65.2644 17.8206C65.4753 17.0715 65.7126 16.3191 65.6664 15.4401V15.4434ZM63.0072 20.584C63.2214 20.5774 63.3993 20.5374 63.5773 20.4808C63.7882 20.4176 63.8014 20.3576 63.6366 20.2178C63.2445 19.8849 62.8556 19.5453 62.5294 19.1424C62.4899 19.0958 62.4404 19.0558 62.3943 19.0159C62.2955 18.9326 62.2361 18.9227 62.2131 19.0825C62.1505 19.5053 62.2493 19.8882 62.4569 20.2544C62.5887 20.4808 62.7897 20.5707 63.0072 20.584Z" fill="#346BD5"/>
<path d="M51.3755 25.991C51.3755 25.8378 51.3755 25.6847 51.3755 25.5348C51.3755 25.4116 51.4315 25.3617 51.5501 25.3617C51.8236 25.365 52.1004 25.365 52.3739 25.365C52.5189 25.365 52.6277 25.435 52.687 25.5615C52.7693 25.7346 52.9012 25.7379 53.0264 25.648C53.4086 25.3684 53.781 25.082 54.0808 24.6992C54.5949 24.0366 55.0562 23.3408 55.4318 22.5916C55.4945 22.4685 55.5472 22.3386 55.5966 22.2121C55.6263 22.1355 55.6625 22.0523 55.5735 21.9857C55.4912 21.9258 55.3989 21.8991 55.3033 21.9491C55.2308 21.989 55.1616 22.0356 55.0957 22.0822C54.4828 22.5284 53.4547 22.3286 53.0659 21.746C52.7397 21.2599 52.542 20.7505 52.5255 20.1612C52.5057 19.4953 52.6342 18.8561 52.7924 18.2135C53.1944 16.5621 53.8337 15.0039 54.5026 13.4558C54.7596 12.8598 55.1781 12.7832 55.6559 13.2227C55.824 13.3759 55.9788 13.5457 56.1667 13.6722C56.6016 13.9652 56.6214 14.4446 56.4698 14.8375C56.3281 15.197 56.1238 15.53 55.9657 15.8829C55.8075 16.2425 55.679 16.6154 55.5208 16.9749C55.1518 17.814 54.9475 18.7096 54.6805 19.5819C54.5982 19.8515 54.5487 20.1345 54.5553 20.4209C54.5619 20.6672 54.6674 20.7238 54.8684 20.5907C55.2341 20.3476 55.5241 20.0213 55.791 19.6784C56.371 18.936 56.8685 18.1402 57.3233 17.3145C57.5144 16.9683 57.5638 16.5787 57.6627 16.2059C57.8274 15.5966 57.9691 14.984 58.1075 14.368C58.1635 14.1183 58.1603 13.8586 58.2229 13.6089C58.3613 13.0562 58.7237 12.8731 59.2477 13.0696C59.5508 13.1828 59.8078 13.3625 60.0418 13.5823C60.3186 13.8453 60.3746 14.1716 60.2758 14.5345C60.0517 15.3569 59.8639 16.1859 59.62 17.0049C59.4091 17.7141 59.2312 18.4332 59.0203 19.1457C58.7567 20.0347 58.5095 20.9303 58.18 21.7959C57.9988 22.2687 57.8373 22.7448 57.6166 23.2043C57.5045 23.4406 57.4254 23.6937 57.3463 23.9434C57.1717 24.4994 56.9114 24.9955 56.5127 25.4316C56.1535 25.8212 55.8833 26.2873 55.4945 26.6568C55.1682 26.9665 54.7827 27.1995 54.4433 27.4892C54.2752 27.6324 54.0215 27.5891 53.8106 27.6423C53.346 27.7522 52.8847 27.6723 52.4563 27.5225C52.1367 27.4126 51.8566 27.1696 51.5831 26.9565C51.4282 26.8366 51.3854 26.6269 51.3821 26.4271C51.3788 26.2806 51.3821 26.1375 51.3821 25.991H51.3755Z" fill="#346BD5"/>
</g>
<path d="M8.28046 30.6713L5.53857 29.5385V53.3287L8.28046 54.4615L11.0224 53.3287L13.5533 54.4615L16.4007 53.3287L18.9317 54.4615L21.6735 53.3287L24.2045 54.4615L26.9464 53.3287L29.6883 54.4615L32.2193 53.3287L34.9612 54.4615L37.5976 53.3287L40.234 54.4615L42.8705 53.3287L45.6124 54.4615L48.2488 53.3287L50.9907 54.4615L53.6271 53.3287L56.2635 54.4615L58.9 53.3287L61.6419 54.4615L64.2783 53.3287L66.9147 54.4615L69.6566 53.3287L72.2931 54.4615L74.9295 53.3287L77.5659 54.4615L80.3078 53.3287V29.5385L77.5659 30.6713L74.9295 29.5385L72.2931 30.6713L69.6566 29.5385L66.9147 30.6713L64.2783 29.5385L61.6419 30.6713L58.9 29.5385L56.2635 30.6713L53.6271 29.5385L50.9907 30.6713L48.2488 29.5385L45.6124 30.6713L42.8705 29.5385L40.234 30.6713L37.5976 29.5385L34.9612 30.6713L32.2193 29.5385L29.6883 30.6713L26.9464 29.5385L24.2045 30.6713L21.6735 29.5385L18.9317 30.6713L16.4007 29.5385L13.5533 30.6713L11.0224 29.5385L8.28046 30.6713Z" fill="#F3F3F3"/>
<path fill-rule="evenodd" clip-rule="evenodd" d="M31.6528 41.2102V41.6157C31.6528 41.9237 31.7179 42.2078 31.848 42.4682C31.9782 42.726 32.1685 42.9325 32.4188 43.0878C32.6692 43.2455 32.9783 43.3243 33.3463 43.3243C33.7093 43.3243 34.0173 43.2455 34.2701 43.0878C34.5229 42.9325 34.7145 42.726 34.8446 42.4682C34.9748 42.2078 35.0399 41.9237 35.0399 41.6157V41.2102C35.0399 40.8998 34.9748 40.6156 34.8446 40.3578C34.717 40.0974 34.5267 39.8896 34.2739 39.7344C34.0235 39.5792 33.7143 39.5016 33.3463 39.5016C32.9833 39.5016 32.6754 39.5805 32.4226 39.7382C32.1722 39.8934 31.9807 40.1012 31.848 40.3615C31.7179 40.6194 31.6528 40.9023 31.6528 41.2102ZM32.7455 41.6157V41.2102C32.7455 41.0274 32.7893 40.8572 32.8769 40.6995C32.9646 40.5418 33.121 40.4629 33.3463 40.4629C33.5817 40.4629 33.7394 40.5418 33.8195 40.6995C33.8996 40.8572 33.9397 41.0274 33.9397 41.2102V41.6157C33.9397 41.7985 33.8971 41.9675 33.812 42.1227C33.7294 42.2779 33.5742 42.3555 33.3463 42.3555C33.1185 42.3555 32.9608 42.2766 32.8732 42.1189C32.7881 41.9612 32.7455 41.7935 32.7455 41.6157ZM27.7061 36.8092V37.2147C27.7061 37.5226 27.77 37.8055 27.8976 38.0634C28.0278 38.3187 28.2181 38.5253 28.4684 38.683C28.7213 38.8382 29.0304 38.9158 29.3959 38.9158C29.7614 38.9158 30.0694 38.8394 30.3197 38.6867C30.5725 38.5315 30.7641 38.325 30.8942 38.0671C31.0269 37.8093 31.0933 37.5252 31.0933 37.2147V36.8092C31.0933 36.4987 31.0282 36.2146 30.898 35.9568C30.7678 35.6964 30.5776 35.4886 30.3272 35.3334C30.0769 35.1782 29.7664 35.1006 29.3959 35.1006C29.038 35.1006 28.7325 35.1782 28.4797 35.3334C28.2293 35.4886 28.0378 35.6964 27.9052 35.9568C27.7725 36.2146 27.7061 36.4987 27.7061 36.8092ZM28.8064 37.2147V36.8092C28.8064 36.6314 28.8489 36.4624 28.9341 36.3022C29.0192 36.142 29.1731 36.0619 29.3959 36.0619C29.6338 36.0619 29.7927 36.1408 29.8728 36.2985C29.953 36.4562 29.993 36.6264 29.993 36.8092V37.2147C29.993 37.3975 29.9504 37.5665 29.8653 37.7217C29.7827 37.8769 29.6263 37.9545 29.3959 37.9545C29.1756 37.9545 29.0217 37.8769 28.9341 37.7217C28.8489 37.5665 28.8064 37.3975 28.8064 37.2147ZM33.489 35.3672L28.2018 43.0577H29.1857L34.4729 35.3672H33.489ZM47.5821 37.002C47.5592 36.7704 47.4606 36.5904 47.2864 36.4622C47.1122 36.3339 46.8757 36.2698 46.5771 36.2698C46.3742 36.2698 46.2028 36.2985 46.0631 36.3559C45.9233 36.4115 45.8161 36.489 45.7415 36.5885C45.6687 36.6881 45.6323 36.801 45.6323 36.9274C45.6285 37.0327 45.6505 37.1246 45.6984 37.2031C45.7482 37.2815 45.8161 37.3495 45.9023 37.4069C45.9884 37.4625 46.088 37.5113 46.2009 37.5534C46.3139 37.5936 46.4345 37.628 46.5627 37.6568L47.0911 37.7831C47.3476 37.8405 47.5831 37.9171 47.7975 38.0128C48.0119 38.1086 48.1976 38.2263 48.3546 38.366C48.5116 38.5058 48.6331 38.6704 48.7193 38.86C48.8073 39.0495 48.8523 39.2668 48.8542 39.5118C48.8523 39.8717 48.7604 40.1837 48.5786 40.4479C48.3986 40.7102 48.1383 40.9141 47.7975 41.0596C47.4587 41.2032 47.0499 41.2749 46.5713 41.2749C46.0966 41.2749 45.6831 41.2022 45.3308 41.0567C44.9805 40.9112 44.7067 40.6958 44.5096 40.4106C44.3143 40.1234 44.2119 39.7683 44.2023 39.3452H45.4055C45.4189 39.5424 45.4754 39.7071 45.5749 39.8392C45.6764 39.9693 45.8113 40.0679 45.9798 40.1349C46.1502 40.2 46.3426 40.2326 46.557 40.2326C46.7676 40.2326 46.9504 40.2019 47.1055 40.1407C47.2624 40.0794 47.384 39.9942 47.4701 39.8851C47.5563 39.776 47.5994 39.6506 47.5994 39.5089C47.5994 39.3768 47.5601 39.2658 47.4816 39.1758C47.4051 39.0858 47.2921 39.0093 47.1428 38.9461C46.9954 38.8829 46.8145 38.8255 46.6001 38.7738L45.9597 38.613C45.4639 38.4924 45.0724 38.3038 44.7852 38.0473C44.4981 37.7908 44.3554 37.4452 44.3574 37.0107C44.3554 36.6546 44.4502 36.3435 44.6416 36.0774C44.835 35.8113 45.1001 35.6036 45.4371 35.4543C45.774 35.3049 46.1569 35.2303 46.5857 35.2303C47.0222 35.2303 47.4031 35.3049 47.7286 35.4543C48.0559 35.6036 48.3106 35.8113 48.4924 36.0774C48.6743 36.3435 48.7681 36.6517 48.7738 37.002H47.5821ZM37.0717 41.1917H39.1564C39.7537 41.1917 40.2668 41.0739 40.6956 40.8385C41.1263 40.603 41.4566 40.2651 41.6863 39.8248C41.9179 39.3845 42.0337 38.858 42.0337 38.2454C42.0337 37.6347 41.9179 37.1102 41.6863 36.6718C41.4566 36.2334 41.1282 35.8974 40.7013 35.6639C40.2744 35.4284 39.7652 35.3107 39.1737 35.3107H37.0717V41.1917ZM39.1047 40.1263H38.3151V36.376H39.1076C39.4752 36.376 39.7843 36.4411 40.0351 36.5713C40.2859 36.7015 40.4745 36.9044 40.6008 37.1801C40.7291 37.4558 40.7932 37.8109 40.7932 38.2454C40.7932 38.6838 40.7291 39.0418 40.6008 39.3194C40.4745 39.5951 40.285 39.799 40.0323 39.931C39.7815 40.0612 39.4723 40.1263 39.1047 40.1263ZM43.7835 41.1917V35.3107H42.5401V41.1917H43.7835ZM53.2071 37.3696H54.4648C54.4246 37.0288 54.3327 36.7264 54.1892 36.4622C54.0475 36.198 53.8637 35.975 53.6378 35.7931C53.4119 35.6093 53.1525 35.4696 52.8596 35.3739C52.5686 35.2781 52.2528 35.2303 51.912 35.2303C51.3951 35.2303 50.9299 35.349 50.5164 35.5864C50.1029 35.8218 49.7756 36.1645 49.5343 36.6144C49.2931 37.0643 49.1725 37.6099 49.1725 38.2512C49.1725 38.8906 49.2912 39.4352 49.5286 39.8851C49.7679 40.335 50.0933 40.6786 50.5049 40.916C50.9184 41.1534 51.3875 41.2721 51.912 41.2721C52.2891 41.2721 52.627 41.2156 52.9257 41.1026C53.2262 40.9878 53.4847 40.8327 53.701 40.6375C53.9192 40.4403 54.0925 40.2172 54.2208 39.9684C54.3509 39.7176 54.4323 39.4572 54.4648 39.1873L53.2071 39.1816C53.1784 39.3385 53.1267 39.4783 53.052 39.6008C52.9793 39.7233 52.8874 39.8277 52.7764 39.9138C52.6653 39.9981 52.538 40.0622 52.3944 40.1062C52.2528 40.1502 52.0987 40.1723 51.9321 40.1723C51.6354 40.1723 51.3741 40.0995 51.1482 39.954C50.9223 39.8085 50.7462 39.5932 50.6198 39.3079C50.4954 39.0227 50.4331 38.6704 50.4331 38.2512C50.4331 37.8434 50.4954 37.4969 50.6198 37.2117C50.7442 36.9245 50.9194 36.7063 51.1453 36.5569C51.3712 36.4057 51.6363 36.3301 51.9407 36.3301C52.1092 36.3301 52.2652 36.354 52.4088 36.4019C52.5543 36.4497 52.6826 36.5187 52.7936 36.6086C52.9046 36.6986 52.9956 36.8077 53.0664 36.936C53.1372 37.0623 53.1841 37.2069 53.2071 37.3696ZM60.3461 38.2512C60.3461 38.8925 60.2245 39.4381 59.9814 39.888C59.7402 40.3379 59.4109 40.6815 58.9936 40.9189C58.5781 41.1543 58.111 41.2721 57.5922 41.2721C57.0696 41.2721 56.6006 41.1534 56.1852 40.916C55.7698 40.6786 55.4414 40.335 55.2002 39.8851C54.959 39.4352 54.8384 38.8906 54.8384 38.2512C54.8384 37.6099 54.959 37.0643 55.2002 36.6144C55.4414 36.1645 55.7698 35.8218 56.1852 35.5864C56.6006 35.349 57.0696 35.2303 57.5922 35.2303C58.111 35.2303 58.5781 35.349 58.9936 35.5864C59.4109 35.8218 59.7402 36.1645 59.9814 36.6144C60.2245 37.0643 60.3461 37.6099 60.3461 38.2512ZM59.0855 38.2512C59.0855 37.8358 59.0232 37.4854 58.8988 37.2002C58.7763 36.9149 58.603 36.6986 58.3791 36.5512C58.1551 36.4038 57.8928 36.3301 57.5922 36.3301C57.2917 36.3301 57.0294 36.4038 56.8054 36.5512C56.5814 36.6986 56.4072 36.9149 56.2828 37.2002C56.1603 37.4854 56.099 37.8358 56.099 38.2512C56.099 38.6666 56.1603 39.0169 56.2828 39.3022C56.4072 39.5874 56.5814 39.8037 56.8054 39.9511C57.0294 40.0986 57.2917 40.1723 57.5922 40.1723C57.8928 40.1723 58.1551 40.0986 58.3791 39.9511C58.603 39.8037 58.7763 39.5874 58.8988 39.3022C59.0232 39.0169 59.0855 38.6666 59.0855 38.2512ZM65.7284 35.3107H64.485V39.0236C64.485 39.2476 64.4352 39.4467 64.3357 39.6209C64.238 39.7951 64.0992 39.932 63.9193 40.0316C63.7413 40.1311 63.5316 40.1809 63.2904 40.1809C63.0511 40.1809 62.8415 40.1311 62.6615 40.0316C62.4816 39.932 62.3418 39.7951 62.2423 39.6209C62.1447 39.4467 62.0958 39.2476 62.0958 39.0236V35.3107H60.8525V39.1299C60.8525 39.5587 60.9539 39.9339 61.1568 40.2555C61.3598 40.5772 61.644 40.8279 62.0097 41.0079C62.3753 41.1859 62.8023 41.2749 63.2904 41.2749C63.7767 41.2749 64.2026 41.1859 64.5683 41.0079C64.9339 40.8279 65.2182 40.5772 65.4211 40.2555C65.626 39.9339 65.7284 39.5587 65.7284 39.1299V35.3107ZM71.2557 41.1917H70.1817L67.6232 37.4902H67.5801V41.1917H66.3367V35.3107H67.4279L69.9664 39.0093H70.0181V35.3107H71.2557V41.1917ZM71.6443 35.3107V36.3358H73.4448V41.1917H74.6739V36.3358H76.4743V35.3107H71.6443ZM19.4664 47.5389C20.215 48.0461 21.1086 48.3017 22.1471 48.3057C23.1856 48.3057 24.0771 48.0521 24.8218 47.545C25.5664 47.0378 26.138 46.3032 26.5365 45.3412C26.939 44.3792 27.1402 43.22 27.1402 41.8635C27.1443 40.5151 26.945 39.3679 26.5425 38.422C26.14 37.4721 25.5644 36.7476 24.8157 36.2485C24.0711 35.7494 23.1815 35.4998 22.1471 35.4998C21.1126 35.4998 20.2211 35.7494 19.4724 36.2485C18.7277 36.7436 18.1542 37.4661 17.7517 38.416C17.3532 39.3659 17.1539 40.5151 17.1539 41.8635C17.1499 43.216 17.3471 44.3732 17.7456 45.3352C18.1481 46.2972 18.7217 47.0318 19.4664 47.5389ZM23.8437 45.0695C23.421 45.782 22.8555 46.1382 22.1471 46.1382C21.6761 46.1382 21.2656 45.9812 20.9154 45.6672C20.5652 45.3493 20.2935 44.8743 20.1003 44.2424C19.9111 43.6064 19.8165 42.8134 19.8165 41.8635C19.8206 40.4587 20.0339 39.4042 20.4565 38.6998C20.8792 37.9954 21.4427 37.6432 22.1471 37.6432C22.618 37.6432 23.0266 37.8002 23.3727 38.1141C23.7229 38.4281 23.9926 38.897 24.1818 39.5209C24.375 40.1448 24.4716 40.9257 24.4716 41.8635C24.4756 43.2884 24.2663 44.3571 23.8437 45.0695ZM15.8114 48.034V35.6689H13.3541L10.293 37.607V39.9254L13.1246 38.1503H13.1971V48.034H15.8114ZM47.6069 47.1363C47.8443 46.6845 47.963 46.1418 47.963 45.5081C47.963 44.8745 47.8443 44.3327 47.6069 43.8828C47.3714 43.431 47.0498 43.0855 46.6421 42.8462C46.2362 42.6069 45.7758 42.4872 45.2608 42.4872C44.7459 42.4872 44.2845 42.6069 43.8767 42.8462C43.4709 43.0855 43.1493 43.431 42.9119 43.8828C42.6764 44.3327 42.5587 44.8745 42.5587 45.5081C42.5587 46.1399 42.6764 46.6816 42.9119 47.1334C43.1493 47.5833 43.4709 47.9289 43.8767 48.1701C44.2845 48.4094 44.7459 48.529 45.2608 48.529C45.7758 48.529 46.2362 48.4094 46.6421 48.1701C47.0498 47.9308 47.3714 47.5862 47.6069 47.1363ZM46.6823 44.3796C46.822 44.6859 46.8919 45.0621 46.8919 45.5081C46.8919 45.9542 46.822 46.3313 46.6823 46.6395C46.5444 46.9458 46.353 47.1784 46.108 47.3373C45.8629 47.4943 45.5805 47.5728 45.2608 47.5728C44.9411 47.5728 44.6588 47.4943 44.4137 47.3373C44.1687 47.1784 43.9763 46.9458 43.8365 46.6395C43.6987 46.3313 43.6298 45.9542 43.6298 45.5081C43.6298 45.0621 43.6987 44.6859 43.8365 44.3796C43.9763 44.0714 44.1687 43.8388 44.4137 43.6818C44.6588 43.5229 44.9411 43.4435 45.2608 43.4435C45.5805 43.4435 45.8629 43.5229 46.108 43.6818C46.353 43.8388 46.5444 44.0714 46.6823 44.3796ZM39.4897 47.1966L37.9591 42.5676H36.7904L38.8608 48.4486H40.176L42.2493 42.5676H41.0777L39.55 47.1966H39.4897ZM52.6774 42.5676H53.7428V46.4098C53.7428 46.831 53.6432 47.2014 53.4441 47.5211C53.2469 47.8408 52.9693 48.0906 52.6113 48.2706C52.2534 48.4486 51.8351 48.5376 51.3565 48.5376C50.876 48.5376 50.4567 48.4486 50.0987 48.2706C49.7407 48.0906 49.4631 47.8408 49.266 47.5211C49.0688 47.2014 48.9702 46.831 48.9702 46.4098V42.5676H50.0355V46.3208C50.0355 46.5658 50.0892 46.7841 50.1964 46.9755C50.3055 47.1669 50.4586 47.3172 50.6558 47.4263C50.853 47.5335 51.0865 47.5871 51.3565 47.5871C51.6264 47.5871 51.86 47.5335 52.0571 47.4263C52.2562 47.3172 52.4094 47.1669 52.5166 46.9755C52.6238 46.7841 52.6774 46.5658 52.6774 46.3208V42.5676ZM58.8606 44.5519H59.9346C59.8906 44.2245 59.7967 43.9335 59.6532 43.6789C59.5115 43.4224 59.3306 43.2061 59.1104 43.03C58.8903 42.8519 58.6395 42.717 58.3581 42.6251C58.0767 42.5332 57.7723 42.4872 57.4449 42.4872C56.9319 42.4872 56.4724 42.6069 56.0666 42.8462C55.6607 43.0855 55.3401 43.431 55.1046 43.8828C54.8691 44.3327 54.7514 44.8745 54.7514 45.5081C54.7514 46.1399 54.8682 46.6816 55.1017 47.1334C55.3353 47.5852 55.655 47.9308 56.0608 48.1701C56.4667 48.4094 56.928 48.529 57.4449 48.529C57.7953 48.529 58.114 48.4773 58.4012 48.374C58.6883 48.2687 58.9391 48.1232 59.1535 47.9375C59.3679 47.7499 59.5412 47.5335 59.6733 47.2885C59.8073 47.0435 59.8944 46.7812 59.9346 46.5017L58.8606 46.4959C58.8281 46.6682 58.7687 46.8214 58.6826 46.9554C58.5983 47.0894 58.494 47.2024 58.3696 47.2942C58.2471 47.3861 58.1083 47.456 57.9532 47.5039C57.8 47.5498 57.6354 47.5728 57.4593 47.5728C57.1415 47.5728 56.8591 47.4953 56.6122 47.3402C56.3671 47.1832 56.1738 46.9516 56.0321 46.6453C55.8924 46.3371 55.8225 45.958 55.8225 45.5081C55.8225 45.0659 55.8924 44.6916 56.0321 44.3853C56.1719 44.0771 56.3652 43.8436 56.6122 43.6847C56.8591 43.5239 57.1425 43.4435 57.4622 43.4435C57.6421 43.4435 57.8096 43.4684 57.9647 43.5181C58.1217 43.566 58.2614 43.6378 58.3839 43.7335C58.5065 43.8292 58.6089 43.946 58.6912 44.0838C58.7735 44.2197 58.83 44.3758 58.8606 44.5519ZM60.9102 42.5676H61.9756V45.0573H64.7007V42.5676H65.7689V48.4486H64.7007V45.9503H61.9756V48.4486H60.9102V42.5676ZM70.7525 42.5676H66.9276V48.4486H70.7755V47.5556H67.9929V45.9503H70.5544V45.0573H67.9929V43.4607H70.7525V42.5676ZM71.8394 42.5676H74.0448C74.4966 42.5676 74.8756 42.6461 75.1819 42.8031C75.4901 42.9601 75.7227 43.1802 75.8797 43.4636C76.0386 43.745 76.1181 44.0733 76.1181 44.4485C76.1181 44.8256 76.0376 45.153 75.8768 45.4306C75.7179 45.7063 75.4834 45.9197 75.1733 46.071C75.137 46.0884 75.0997 46.1049 75.0614 46.1204L76.3334 48.4486H75.1446L73.9888 46.2949H72.9048V48.4486H71.8394V42.5676ZM73.8868 45.4105H72.9048V43.4578H73.8811C74.1472 43.4578 74.3645 43.4971 74.5329 43.5756C74.7014 43.6521 74.8268 43.7651 74.9091 43.9144C74.9914 44.0618 75.0326 44.2398 75.0326 44.4485C75.0326 44.6572 74.9914 44.8333 74.9091 44.9769C74.8287 45.1185 74.7043 45.2267 74.5358 45.3014C74.3674 45.3741 74.151 45.4105 73.8868 45.4105Z" fill="#346BD5"/>
<path fill-rule="evenodd" clip-rule="evenodd" d="M1.13947 59.8599L1.84664 58.1546L2.7797 58.1538V60H1.84615C1.59583 60 1.35714 59.9502 1.13947 59.8599ZM83.0664 60V58.1538H84L84.7067 59.8599C84.489 59.9502 84.2503 60 84 60H83.0664ZM85.8462 2.78462H84V1.84615L85.7061 1.13947C85.7963 1.35714 85.8462 1.59583 85.8462 1.84615V2.78462ZM2.77972 0H1.84615C1.59583 0 1.35714 0.0498206 1.13947 0.140087L1.84665 1.84543L1.84543 1.84665L0.140087 1.13947C0.0498206 1.35714 0 1.59583 0 1.84615V2.78462H1.84615L1.84665 1.84543L2.77972 1.84615V0ZM0.140087 58.8605L1.84543 58.1534L1.84664 58.1546L1.84615 57.2154H0V58.1538C0 58.4042 0.0498205 58.6429 0.140087 58.8605ZM0 55.3385H1.84615V53.4615H0V55.3385ZM0 51.5846H1.84615V49.7077H0V51.5846ZM0 47.8308H1.84615V45.9538H0V47.8308ZM0 44.0769H1.84615V42.2H0V44.0769ZM0 40.3231H1.84615V38.4462H0V40.3231ZM0 36.5692H1.84615V34.6923H0V36.5692ZM0 32.8154H1.84615V30.9385H0V32.8154ZM0 29.0615H1.84615V27.1846H0V29.0615ZM0 25.3077H1.84615V23.4308H0V25.3077ZM0 21.5539H1.84615V19.6769H0V21.5539ZM0 17.8H1.84615V15.9231H0V17.8ZM0 14.0462H1.84615V12.1692H0V14.0462ZM0 10.2923H1.84615V8.4154H0V10.2923ZM0 6.53847H1.84615V4.66155H0V6.53847ZM4.64685 0V1.84615H6.51399V0H4.64685ZM8.38112 0V1.84615H10.2483V0H8.38112ZM12.1154 0V1.84615H13.9825V0H12.1154ZM15.8496 0V1.84615H17.7168V0H15.8496ZM19.5839 0V1.84615H21.451V0H19.5839ZM23.3182 0V1.84615H25.1853V0H23.3182ZM27.0524 0V1.84615H28.9196V0H27.0524ZM30.7867 0V1.84615H32.6538V0H30.7867ZM34.521 0V1.84615H36.3881V0H34.521ZM38.2553 0V1.84615H40.1224V0H38.2553ZM41.9895 0V1.84615H43.8567V0H41.9895ZM45.7238 0V1.84615H47.5909V0H45.7238ZM49.4581 0V1.84615H51.3252V0H49.4581ZM53.1923 0V1.84615H55.0595V0H53.1923ZM56.9266 0V1.84615H58.7937V0H56.9266ZM60.6609 0V1.84615H62.528V0H60.6609ZM64.3951 0V1.84615H66.2622V0H64.3951ZM68.1294 0V1.84615H69.9965V0H68.1294ZM71.8637 0V1.84615H73.7308V0H71.8637ZM75.5979 0V1.84615H77.4651V0H75.5979ZM79.3322 0V1.84615H81.1993V0H79.3322ZM83.0665 0V1.84615H84L84.7067 0.140087C84.489 0.0498206 84.2503 0 84 0H83.0665ZM85.8462 4.66154H84V6.53846H85.8462V4.66154ZM85.8462 8.41538H84V10.2923H85.8462V8.41538ZM85.8462 12.1692H84V14.0462H85.8462V12.1692ZM85.8462 15.9231H84V17.8H85.8462V15.9231ZM85.8462 19.6769H84V21.5538H85.8462V19.6769ZM85.8462 23.4308H84V25.3077H85.8462V23.4308ZM85.8462 27.1846H84V29.0615H85.8462V27.1846ZM85.8462 30.9385H84V32.8154H85.8462V30.9385ZM85.8462 34.6923H84V36.5692H85.8462V34.6923ZM85.8462 38.4461H84V40.3231H85.8462V38.4461ZM85.8462 42.2H84V44.0769H85.8462V42.2ZM85.8462 45.9538H84V47.8308H85.8462V45.9538ZM85.8462 49.7077H84V51.5846H85.8462V49.7077ZM85.8462 53.4615H84V55.3385H85.8462V53.4615ZM85.8462 57.2154H84V58.1538L85.7061 58.8605C85.7963 58.6429 85.8462 58.4042 85.8462 58.1538V57.2154ZM81.1993 60V58.1538H79.3322V60H81.1993ZM77.465 60V58.1538H75.5979V60H77.465ZM73.7308 60V58.1538H71.8636V60H73.7308ZM69.9965 60V58.1538H68.1294V60H69.9965ZM66.2622 60V58.1538H64.3951V60H66.2622ZM62.528 60V58.1538H60.6608V60H62.528ZM58.7937 60V58.1538H56.9266V60H58.7937ZM55.0594 60V58.1538H53.1923V60H55.0594ZM51.3252 60V58.1538H49.458V60H51.3252ZM47.5909 60V58.1538H45.7238V60H47.5909ZM43.8566 60V58.1538H41.9895V60H43.8566ZM40.1224 60V58.1538H38.2552V60H40.1224ZM36.3881 60V58.1538H34.521V60H36.3881ZM32.6538 60V58.1538H30.7867V60H32.6538ZM28.9196 60V58.1538H27.0524V60H28.9196ZM25.1853 60V58.1538H23.3182V60H25.1853ZM21.451 60V58.1538H19.5839V60H21.451ZM17.7168 60V58.1538H15.8496V60H17.7168ZM13.9825 60V58.1538H12.1154V60H13.9825ZM10.2482 60V58.1538H8.3811V60H10.2482ZM6.51397 60V58.1538H4.64683V60H6.51397Z" fill="#CCCCCC"/>
<defs>
<clipPath id="clip0_32_177">
<rect width="71.0769" height="22.1538" fill="white" transform="translate(7.38477 5.53845)"/>
</clipPath>
</defs>
</svg>
