<svg width="143" height="60" viewBox="0 0 143 60" fill="none" xmlns="http://www.w3.org/2000/svg">
<rect x="0.5" y="15.3296" width="44.5481" height="43.4889" rx="1.5" fill="#F3F3F3" stroke="#346BD5" stroke-dasharray="2 2"/>
<rect x="49.2258" y="15.3296" width="44.5481" height="43.4889" rx="1.5" fill="#F3F3F3" stroke="#346BD5" stroke-dasharray="2 2"/>
<ellipse cx="71.5" cy="37.6037" rx="10.063" ry="10.063" fill="#346BD5"/>
<path d="M71.0154 43.3333V31.7778H71.7557V43.3333H71.0154ZM73.1505 35.4747C73.1083 35.0804 72.9308 34.7735 72.6178 34.5538C72.3079 34.3341 71.9046 34.2243 71.4081 34.2243C71.059 34.2243 70.7596 34.277 70.5098 34.3823C70.2601 34.4876 70.069 34.6306 69.9366 34.8111C69.8042 34.9917 69.7365 35.1978 69.7335 35.4295C69.7335 35.6221 69.7771 35.7891 69.8644 35.9306C69.9546 36.072 70.0765 36.1924 70.23 36.2917C70.3835 36.388 70.5535 36.4692 70.7401 36.5354C70.9266 36.6016 71.1147 36.6573 71.3043 36.7024L72.171 36.9191C72.52 37.0003 72.8556 37.1102 73.1776 37.2486C73.5026 37.387 73.7929 37.5616 74.0487 37.7722C74.3075 37.9829 74.5122 38.2372 74.6626 38.5351C74.8131 38.833 74.8883 39.1821 74.8883 39.5823C74.8883 40.124 74.7499 40.6009 74.473 41.0132C74.1962 41.4225 73.796 41.7429 73.2723 41.9747C72.7517 42.2034 72.1213 42.3177 71.381 42.3177C70.6618 42.3177 70.0374 42.2064 69.5078 41.9837C68.9811 41.761 68.5689 41.436 68.271 41.0087C67.976 40.5814 67.8166 40.0608 67.7925 39.4469H69.4401C69.4641 39.7689 69.5634 40.0367 69.738 40.2503C69.9125 40.464 70.1397 40.6235 70.4196 40.7288C70.7024 40.8341 71.0184 40.8868 71.3675 40.8868C71.7316 40.8868 72.0506 40.8326 72.3244 40.7243C72.6013 40.613 72.8179 40.4595 72.9744 40.2639C73.1309 40.0653 73.2107 39.8336 73.2137 39.5688C73.2107 39.328 73.1399 39.1294 73.0015 38.9729C72.8631 38.8134 72.669 38.681 72.4192 38.5757C72.1725 38.4674 71.8836 38.3711 71.5526 38.2868L70.5008 38.016C69.7395 37.8204 69.1376 37.524 68.6953 37.1267C68.2559 36.7265 68.0362 36.1954 68.0362 35.5333C68.0362 34.9887 68.1837 34.5117 68.4786 34.1024C68.7765 33.6932 69.1813 33.3757 69.6928 33.15C70.2044 32.9213 70.7837 32.8069 71.4307 32.8069C72.0867 32.8069 72.6615 32.9213 73.155 33.15C73.6515 33.3757 74.0412 33.6902 74.3241 34.0934C74.6069 34.4936 74.7529 34.9541 74.7619 35.4747H73.1505Z" fill="white"/>
<ellipse cx="22.7741" cy="37.6037" rx="10.063" ry="10.063" fill="#346BD5"/>
<path d="M22.2896 43.3333V31.7778H23.0298V43.3333H22.2896ZM24.4246 35.4747C24.3825 35.0804 24.205 34.7735 23.892 34.5538C23.582 34.3341 23.1788 34.2243 22.6823 34.2243C22.3332 34.2243 22.0338 34.277 21.784 34.3823C21.5342 34.4876 21.3432 34.6306 21.2107 34.8111C21.0783 34.9917 21.0106 35.1978 21.0076 35.4295C21.0076 35.6221 21.0513 35.7891 21.1385 35.9306C21.2288 36.072 21.3507 36.1924 21.5042 36.2917C21.6576 36.388 21.8276 36.4692 22.0142 36.5354C22.2008 36.6016 22.3889 36.6573 22.5785 36.7024L23.4451 36.9191C23.7942 37.0003 24.1297 37.1102 24.4517 37.2486C24.7767 37.387 25.0671 37.5616 25.3229 37.7722C25.5817 37.9829 25.7863 38.2372 25.9368 38.5351C26.0873 38.833 26.1625 39.1821 26.1625 39.5823C26.1625 40.124 26.0241 40.6009 25.7472 41.0132C25.4704 41.4225 25.0701 41.7429 24.5465 41.9747C24.0259 42.2034 23.3955 42.3177 22.6552 42.3177C21.936 42.3177 21.3116 42.2064 20.7819 41.9837C20.2553 41.761 19.843 41.436 19.5451 41.0087C19.2502 40.5814 19.0907 40.0608 19.0667 39.4469H20.7142C20.7383 39.7689 20.8376 40.0367 21.0121 40.2503C21.1867 40.464 21.4139 40.6235 21.6937 40.7288C21.9766 40.8341 22.2926 40.8868 22.6417 40.8868C23.0058 40.8868 23.3248 40.8326 23.5986 40.7243C23.8754 40.613 24.0921 40.4595 24.2486 40.2639C24.4051 40.0653 24.4848 39.8336 24.4878 39.5688C24.4848 39.328 24.4141 39.1294 24.2757 38.9729C24.1373 38.8134 23.9432 38.681 23.6934 38.5757C23.4466 38.4674 23.1577 38.3711 22.8267 38.2868L21.775 38.016C21.0136 37.8204 20.4118 37.524 19.9694 37.1267C19.5301 36.7265 19.3104 36.1954 19.3104 35.5333C19.3104 34.9887 19.4579 34.5117 19.7528 34.1024C20.0507 33.6932 20.4554 33.3757 20.967 33.15C21.4786 32.9213 22.0579 32.8069 22.7048 32.8069C23.3609 32.8069 23.9356 32.9213 24.4292 33.15C24.9257 33.3757 25.3154 33.6902 25.5982 34.0934C25.8811 34.4936 26.0271 34.9541 26.0361 35.4747H24.4246Z" fill="white"/>
<rect x="97.9519" y="15.3296" width="44.5481" height="43.4889" rx="1.5" fill="#F3F3F3" stroke="#346BD5" stroke-dasharray="2 2"/>
<path d="M110.162 47.4712L105.54 39.4652L110.669 36.5041L111.37 37.7199L107.692 39.8437L108.947 42.0171L112.274 40.0965L112.975 41.3122L109.649 43.2329L111.612 46.6338L110.162 47.4712Z" fill="#346BD5"/>
<path d="M116.612 43.7472L111.99 35.7413L114.992 34.0079C115.607 33.6529 116.185 33.4618 116.725 33.4347C117.268 33.4062 117.758 33.5231 118.194 33.7854C118.632 34.0436 118.998 34.4281 119.293 34.9389C119.589 35.4523 119.737 35.9612 119.736 36.4654C119.737 36.9656 119.585 37.4405 119.282 37.8901C118.977 38.3371 118.517 38.7382 117.902 39.0933L115.764 40.3278L115.069 39.1238L117.011 38.0021C117.371 37.7945 117.637 37.575 117.809 37.3435C117.98 37.1095 118.064 36.8644 118.062 36.6084C118.062 36.3482 117.979 36.0761 117.815 35.792C117.651 35.508 117.455 35.298 117.227 35.162C116.998 35.0234 116.738 34.9682 116.449 34.9964C116.158 35.0219 115.831 35.1393 115.469 35.3484L114.14 36.1158L118.062 42.9099L116.612 43.7472ZM118.654 37.7317L122.73 40.2151L121.112 41.1495L117.07 38.6457L118.654 37.7317Z" fill="#346BD5"/>
<path d="M123.772 39.6136L119.149 31.6077L124.356 28.6014L125.058 29.8172L121.302 31.9861L122.557 34.1596L126.043 32.1464L126.745 33.3621L123.258 35.3753L124.52 37.5605L128.308 35.3736L129.01 36.5893L123.772 39.6136Z" fill="#346BD5"/>
<path d="M130.458 35.7531L125.836 27.7472L131.043 24.7409L131.745 25.9567L127.988 28.1256L129.243 30.2991L132.73 28.2859L133.432 29.5016L129.945 31.5148L131.207 33.7L134.995 31.5131L135.697 32.7288L130.458 35.7531Z" fill="#346BD5"/>
<rect width="143" height="10.5926" rx="2" fill="#346BD5"/>
</svg>
