<svg width="143" height="64" viewBox="0 0 143 64" fill="none" xmlns="http://www.w3.org/2000/svg">
<rect x="0.5" y="6.31259" width="37.7484" height="46.0516" rx="4.5" fill="#F3F3F3" stroke="#F3F3F3"/>
<rect x="104.752" y="6.31259" width="37.7484" height="46.0516" rx="4.5" fill="#F3F3F3" stroke="#F3F3F3"/>
<rect x="48.4741" y="6.31259" width="37.7484" height="46.0516" rx="7.5" stroke="#F3F3F3"/>
<g filter="url(#filter0_d_32_163)">
<path d="M43.3613 3.35608C43.3613 2.60714 43.9685 2 44.7174 2H98.2827C99.0316 2 99.6387 2.60714 99.6387 3.35608V56.2433C99.6387 56.9922 99.0316 57.5994 98.2827 57.5994H44.7174C43.9685 57.5994 43.3613 56.9922 43.3613 56.2433V3.35608Z" fill="white"/>
</g>
<path fill-rule="evenodd" clip-rule="evenodd" d="M50.125 8.33625C50.0801 8.19822 49.9508 8.10237 49.8027 8.10237H49.1247L49.0851 8.10465C48.9165 8.12424 48.7856 8.26753 48.7856 8.44139L48.7879 8.48093C48.8075 8.64954 48.9508 8.78041 49.1247 8.78041H49.5247L49.6047 9.17981C49.6054 9.18416 49.6063 9.18849 49.6072 9.19278L50.1127 11.7202L49.4636 12.3692L49.4278 12.4077C49.1463 12.7328 49.249 13.2042 49.5682 13.4162C49.5013 13.5517 49.4637 13.7043 49.4637 13.8657C49.4637 14.4274 49.919 14.8828 50.4807 14.8828C51.0425 14.8828 51.4978 14.4274 51.4978 13.8657C51.4978 13.7468 51.4774 13.6327 51.4399 13.5267H52.9118C52.8743 13.6327 52.8539 13.7468 52.8539 13.8657C52.8539 14.4274 53.3092 14.8828 53.871 14.8828C54.4327 14.8828 54.888 14.4274 54.888 13.8657C54.888 13.304 54.4327 12.8487 53.871 12.8487L50.4888 12.8487C50.4861 12.8487 50.4834 12.8487 50.4807 12.8487C50.4781 12.8487 50.4754 12.8487 50.4727 12.8487L49.9431 12.8487L50.6212 12.1706H53.871L53.9133 12.168C54.0247 12.154 54.1231 12.0853 54.1742 11.9832L55.5303 9.27105L55.5458 9.23517C55.6255 9.01845 55.4658 8.78041 55.227 8.78041H50.2162L50.1351 8.3749L50.125 8.33625ZM50.4807 13.5267C50.2935 13.5267 50.1417 13.6785 50.1417 13.8657C50.1417 14.053 50.2935 14.2047 50.4807 14.2047C50.668 14.2047 50.8198 14.053 50.8198 13.8657C50.8198 13.6785 50.668 13.5267 50.4807 13.5267ZM53.5319 13.8657C53.5319 13.6785 53.6837 13.5267 53.871 13.5267C54.0582 13.5267 54.21 13.6785 54.21 13.8657C54.21 14.053 54.0582 14.2047 53.871 14.2047C53.6837 14.2047 53.5319 14.053 53.5319 13.8657ZM50.7587 11.4926L50.3519 9.45845H54.6782L53.6611 11.4926H50.7587Z" fill="#404040"/>
<path d="M60.3125 8.78041C60.3125 8.40594 60.6161 8.10237 60.9905 8.10237H90.1463C90.5208 8.10237 90.8244 8.40594 90.8244 8.78041V13.5267C90.8244 13.9012 90.5208 14.2047 90.1463 14.2047H60.9905C60.6161 14.2047 60.3125 13.9012 60.3125 13.5267V8.78041Z" fill="#F3F3F3"/>
<path d="M48.1074 18.951C48.1074 18.5765 48.411 18.273 48.7855 18.273H90.146C90.5204 18.273 90.824 18.5765 90.824 18.951V20.3071C90.824 20.6816 90.5204 20.9851 90.146 20.9851H48.7855C48.411 20.9851 48.1074 20.6816 48.1074 20.3071V18.951Z" fill="#F3F3F3"/>
<path d="M48.1074 23.6973C48.1074 23.3228 48.411 23.0193 48.7855 23.0193H83.3656C83.74 23.0193 84.0436 23.3228 84.0436 23.6973V25.0534C84.0436 25.4279 83.74 25.7314 83.3656 25.7314H48.7855C48.411 25.7314 48.1074 25.4279 48.1074 25.0534V23.6973Z" fill="#F3F3F3"/>
<path d="M47.9741 29.5551C47.9741 29.1807 48.2777 28.8771 48.6522 28.8771H83.2323C83.6067 28.8771 83.9103 29.1807 83.9103 29.5551V30.9112C83.9103 31.2857 83.6067 31.5893 83.2323 31.5893H48.6522C48.2777 31.5893 47.9741 31.2857 47.9741 30.9112V29.5551Z" fill="#F3F3F3"/>
<path d="M48.897 41.7933C48.897 40.7742 49.7231 39.9481 50.7421 39.9481H92.2583C93.2773 39.9481 94.1034 40.7742 94.1034 41.7933V48.2513C94.1034 49.2704 93.2773 50.0965 92.2583 50.0965H50.7421C49.7231 50.0965 48.897 49.2704 48.897 48.2513V41.7933Z" fill="#346BD5"/>
<defs>
<filter id="filter0_d_32_163" x="39.3613" y="0" width="64.2773" height="63.5994" filterUnits="userSpaceOnUse" color-interpolation-filters="sRGB">
<feFlood flood-opacity="0" result="BackgroundImageFix"/>
<feColorMatrix in="SourceAlpha" type="matrix" values="0 0 0 0 0 0 0 0 0 0 0 0 0 0 0 0 0 0 127 0" result="hardAlpha"/>
<feOffset dy="2"/>
<feGaussianBlur stdDeviation="2"/>
<feComposite in2="hardAlpha" operator="out"/>
<feColorMatrix type="matrix" values="0 0 0 0 0.854167 0 0 0 0 0.854167 0 0 0 0 0.854167 0 0 0 1 0"/>
<feBlend mode="normal" in2="BackgroundImageFix" result="effect1_dropShadow_32_163"/>
<feBlend mode="normal" in="SourceGraphic" in2="effect1_dropShadow_32_163" result="shape"/>
</filter>
</defs>
</svg>
