<?xml version="1.0" encoding="utf-8"?>
<!-- Generator: Adobe Illustrator 16.0.0, SVG Export Plug-In . SVG Version: 6.00 Build 0)  -->
<!DOCTYPE svg PUBLIC "-//W3C//DTD SVG 1.1//EN" "http://www.w3.org/Graphics/SVG/1.1/DTD/svg11.dtd">
<svg version="1.1" id="Layer_1" xmlns="http://www.w3.org/2000/svg" xmlns:xlink="http://www.w3.org/1999/xlink" x="0px" y="0px"
	 width="451.748px" height="609.422px" viewBox="0 0 451.748 609.422" enable-background="new 0 0 451.748 609.422"
	 xml:space="preserve">
<g>
	<g>
		<path fill="#A2ACBE" d="M282.162,338.275c-1.504,0-3.013-0.483-4.277-1.459c-2.688-2.075-3.498-5.779-1.924-8.787l55.061-105.191
			c0.99-1.893,2.79-3.229,4.888-3.63c2.097-0.396,4.263,0.179,5.882,1.571l20.953,18.041l39.141-53.555
			c1.398-1.914,3.667-2.993,6.037-2.858c2.367,0.131,4.507,1.45,5.687,3.506l37.211,64.863c1.788,3.117,0.925,7.083-1.997,9.175
			L379.6,309.513c-2.533,1.813-5.957,1.735-8.404-0.191l-29.207-22.993l-55.115,50.126
			C285.543,337.663,283.855,338.275,282.162,338.275z M339.336,237.141l-32.642,62.362l30.259-27.519
			c2.529-2.3,6.354-2.436,9.039-0.321l29.732,23.406l59.802-42.816l-28.698-50.024l-37.256,50.975
			c-1.152,1.577-2.911,2.601-4.852,2.823c-1.941,0.228-3.887-0.375-5.367-1.649L339.336,237.141z"/>
	</g>
	<g>
		<path fill="#A2ACBE" d="M361.162,117.368c-0.307,1.119-0.834,2.096-1.588,2.934s-1.701,1.486-2.844,1.949
			c-1.145,0.461-2.441,0.68-3.893,0.654l-1.123,4.107l-4.232-1.154l0.99-3.627c-1.326-0.389-2.633-0.92-3.912-1.596
			c-1.281-0.676-2.076-1.242-2.387-1.697l1.83-6.699c1.969,2.484,4.117,4.043,6.438,4.676c0.631,0.172,1.17,0.154,1.619-0.057
			c0.447-0.211,0.744-0.584,0.891-1.119c0.123-0.453,0.109-0.844-0.043-1.174c-0.154-0.33-0.451-0.707-0.891-1.135
			s-1.117-0.984-2.031-1.668c-3.43-2.574-4.684-5.553-3.76-8.934c0.537-1.965,1.609-3.445,3.219-4.439
			c1.607-0.992,3.563-1.387,5.859-1.182l0.971-3.555l4.232,1.156l-0.92,3.375c2.074,0.695,3.697,1.426,4.869,2.193l-1.775,6.502
			c-0.76-0.822-1.662-1.561-2.705-2.217c-1.043-0.654-2.111-1.133-3.207-1.432c-0.654-0.18-1.227-0.172-1.715,0.021
			c-0.486,0.193-0.793,0.521-0.92,0.986c-0.156,0.57-0.049,1.123,0.324,1.652c0.373,0.531,1.043,1.166,2.006,1.9
			c2.094,1.609,3.516,3.184,4.266,4.727C361.48,114.06,361.623,115.677,361.162,117.368z"/>
	</g>
	<g>
		<g>
			<path fill="#A2ACBE" d="M164.412,341.344c-0.616,0-1.236-0.081-1.843-0.247c-2.039-0.557-3.718-2.006-4.567-3.941l-8.21-18.721
				l-20.442-0.079c-2.114-0.008-4.111-0.972-5.434-2.621c-1.323-1.648-1.829-3.808-1.378-5.873l4.363-19.971l-16.492-12.08
				c-1.706-1.25-2.755-3.203-2.856-5.314s0.759-4.155,2.337-5.562l15.268-13.593l-6.242-19.465c-0.646-2.014-0.347-4.21,0.813-5.978
				s3.057-2.917,5.16-3.126l20.344-2.022l6.39-19.417c0.661-2.008,2.194-3.61,4.172-4.358s4.186-0.563,6.012,0.505l17.646,10.321
				l16.583-11.95c1.714-1.236,3.896-1.632,5.936-1.074c2.04,0.557,3.718,2.006,4.567,3.942l8.208,18.719l20.442,0.078
				c2.113,0.008,4.111,0.971,5.434,2.62s1.83,3.808,1.379,5.873l-4.361,19.974l16.491,12.079c1.706,1.25,2.755,3.203,2.856,5.314
				c0.1,2.111-0.76,4.155-2.338,5.562l-15.27,13.593l6.243,19.466c0.646,2.013,0.347,4.21-0.813,5.978
				c-1.159,1.768-3.056,2.917-5.159,3.126l-20.345,2.022l-6.394,19.416c-0.662,2.008-2.194,3.609-4.172,4.357
				c-1.977,0.75-4.186,0.563-6.011-0.505l-17.645-10.319l-16.582,11.95C167.301,340.891,165.866,341.344,164.412,341.344z
				 M138.063,304.389l16.337,0.063c2.769,0.011,5.271,1.652,6.384,4.188l6.561,14.961l13.252-9.55
				c2.247-1.621,5.236-1.761,7.627-0.363l14.102,8.247l5.11-15.517c0.866-2.63,3.201-4.502,5.956-4.776l16.259-1.616l-4.989-15.557
				c-0.846-2.637-0.058-5.524,2.011-7.366l12.203-10.863l-13.179-9.653c-2.234-1.637-3.293-4.436-2.703-7.141l3.485-15.963
				l-16.338-0.063c-2.769-0.011-5.272-1.652-6.384-4.189l-6.56-14.959l-13.253,9.55c-2.246,1.62-5.236,1.762-7.626,0.363
				l-14.102-8.248l-5.107,15.518c-0.866,2.631-3.201,4.503-5.957,4.777l-16.259,1.616l4.988,15.556
				c0.846,2.637,0.057,5.524-2.011,7.366l-12.202,10.862l13.18,9.654c2.234,1.637,3.293,4.437,2.703,7.142L138.063,304.389z"/>
		</g>
		<g>
			<path fill="#A2ACBE" d="M148.218,265.325l1.126-4.127l7.861,2.146l-1.126,4.126L148.218,265.325z"/>
			<path fill="#A2ACBE" d="M174.174,270.99c-0.384,1.409-1.062,2.58-2.033,3.515c-0.971,0.936-2.168,1.542-3.595,1.822
				c-1.425,0.279-2.989,0.187-4.694-0.279c-0.949-0.259-1.916-0.609-2.902-1.055c-0.985-0.443-1.775-0.88-2.368-1.311l1.303-4.771
				c1.227,1.159,2.641,1.958,4.242,2.395c1.054,0.288,1.904,0.313,2.551,0.077c0.645-0.233,1.063-0.702,1.254-1.401
				c0.414-1.514-0.635-2.614-3.145-3.299c-1.256-0.344-2.452-0.54-3.591-0.594l4.154-12.162l11.642,3.179l-1.303,4.771l-6.898-1.884
				l-0.99,2.834c0.571,0.095,1.102,0.208,1.59,0.342c2.013,0.55,3.44,1.523,4.283,2.923
				C174.518,267.489,174.685,269.122,174.174,270.99z"/>
			<path fill="#A2ACBE" d="M193.816,272.586c-0.965,3.535-2.374,6.041-4.223,7.519c-1.849,1.477-4.069,1.861-6.656,1.155
				c-2.644-0.722-4.388-2.11-5.233-4.163c-0.845-2.052-0.782-4.855,0.188-8.411c0.973-3.563,2.419-6.077,4.337-7.54
				c1.918-1.464,4.213-1.83,6.887-1.1C194.156,261.421,195.724,265.602,193.816,272.586z M187.78,270.938
				c0.56-2.051,0.829-3.605,0.809-4.66s-0.352-1.672-0.994-1.847c-1.255-0.343-2.455,1.584-3.601,5.781
				c-0.563,2.061-0.833,3.626-0.812,4.696c0.021,1.071,0.349,1.694,0.98,1.867C185.418,277.119,186.624,275.173,187.78,270.938z"/>
			<path fill="#A2ACBE" d="M200.756,285.739l-4.527-1.236l18.878-16.99l4.526,1.236L200.756,285.739z M208.204,270.907
				c-0.466,1.705-1.332,2.925-2.597,3.655c-1.264,0.731-2.722,0.87-4.369,0.421c-1.552-0.424-2.666-1.238-3.341-2.441
				c-0.674-1.203-0.801-2.581-0.377-4.134c0.461-1.687,1.316-2.907,2.567-3.662c1.252-0.755,2.72-0.901,4.407-0.441
				c1.59,0.435,2.716,1.241,3.378,2.42C208.532,267.903,208.644,269.298,208.204,270.907z M204.38,270.034
				c0.18-0.661,0.202-1.219,0.063-1.675c-0.138-0.454-0.433-0.742-0.883-0.865c-0.498-0.136-0.938-0.036-1.317,0.296
				c-0.378,0.334-0.665,0.852-0.856,1.551c-0.18,0.661-0.198,1.212-0.056,1.652s0.458,0.727,0.946,0.86
				c0.479,0.131,0.9,0.04,1.264-0.272C203.905,271.27,204.184,270.754,204.38,270.034z M218.279,284.855
				c-0.458,1.677-1.319,2.888-2.583,3.634c-1.264,0.746-2.734,0.891-4.411,0.433c-1.552-0.424-2.666-1.237-3.341-2.44
				c-0.676-1.204-0.801-2.582-0.377-4.135c0.466-1.705,1.333-2.922,2.604-3.652c1.269-0.728,2.733-0.866,4.392-0.413
				c1.59,0.434,2.719,1.231,3.385,2.392C218.612,281.832,218.724,283.227,218.279,284.855z M214.462,284.015
				c0.186-0.68,0.203-1.251,0.05-1.708c-0.153-0.46-0.454-0.749-0.904-0.872c-0.499-0.137-0.938-0.038-1.316,0.296
				c-0.38,0.334-0.666,0.851-0.856,1.55c-0.181,0.661-0.2,1.211-0.058,1.652c0.144,0.439,0.458,0.728,0.946,0.86
				c0.498,0.136,0.932,0.049,1.3-0.263C213.991,285.22,214.271,284.714,214.462,284.015z"/>
		</g>
	</g>
	<g>
		<g>
			<path fill="#A2ACBE" d="M179.295,125.532c0.63,1.273,0.838,2.55,0.624,3.83c-0.213,1.281-0.819,2.456-1.819,3.527
				c-0.999,1.07-2.362,2.033-4.089,2.889c-2.002,0.991-4.004,1.561-6.003,1.709l-2.598-5.248c1.092,0.191,2.212,0.227,3.36,0.107
				c1.148-0.12,2.142-0.388,2.979-0.802c0.632-0.313,1.065-0.669,1.301-1.067c0.234-0.398,0.244-0.816,0.027-1.252
				c-0.153-0.313-0.376-0.543-0.667-0.693c-0.29-0.149-0.661-0.24-1.115-0.27c-0.453-0.031-1.244,0.012-2.372,0.127
				c-3.665,0.341-6.152-0.812-7.462-3.455c-0.916-1.852-0.945-3.679-0.088-5.483c0.857-1.804,2.47-3.292,4.839-4.465
				c0.666-0.33,1.295-0.607,1.882-0.832c0.588-0.225,1.13-0.409,1.629-0.557c0.496-0.146,1.215-0.313,2.153-0.501l2.412,4.873
				c-2.048-0.083-3.85,0.26-5.407,1.031c-0.641,0.317-1.098,0.693-1.371,1.128c-0.271,0.435-0.305,0.86-0.098,1.278
				c0.198,0.4,0.521,0.654,0.967,0.76c0.445,0.106,1.275,0.12,2.488,0.041c2.381-0.182,4.22-0.001,5.514,0.545
				C177.676,123.297,178.648,124.224,179.295,125.532z"/>
			<path fill="#A2ACBE" d="M196.503,124.228l-2.585-3.108l-5.716,2.829l0.837,3.975l-6.234,3.086l-2.883-22.41l7.157-3.543
				l15.685,16.072L196.503,124.228z M185.456,111.046l-0.133,0.065c0.088,0.223,0.199,0.605,0.335,1.147
				c0.135,0.543,0.637,2.91,1.504,7.102l3.658-1.811l-3.912-4.547C186.341,112.331,185.857,111.679,185.456,111.046z"/>
			<path fill="#A2ACBE" d="M205.008,120.018l-9.478-19.146l5.768-2.855l7.244,14.633l6.597-3.266l2.233,4.514L205.008,120.018z"/>
			<path fill="#A2ACBE" d="M219.802,112.694l-9.478-19.146l11.922-5.902l2.234,4.514l-6.154,3.047l1.381,2.79l5.781-2.862
				l2.234,4.514l-5.781,2.861l1.395,2.817l6.595-3.265l2.234,4.512L219.802,112.694z"/>
			<path fill="#A2ACBE" d="M237.064,96.12l-4.568,2.26l-7.004-12.34l5.995-2.968L237.064,96.12z M240,99.736
				c0.393,0.792,0.428,1.584,0.105,2.376c-0.324,0.791-0.965,1.425-1.926,1.9c-0.936,0.463-1.826,0.582-2.676,0.359
				c-0.848-0.223-1.461-0.723-1.844-1.496c-0.389-0.783-0.416-1.561-0.082-2.329c0.334-0.77,0.986-1.394,1.957-1.874
				c0.943-0.468,1.826-0.604,2.648-0.406C239.008,98.463,239.613,98.953,240,99.736z"/>
		</g>
		<g>
			<path fill="#A2ACBE" d="M157.494,181.927c-7.553,0-14.326-4.204-17.677-10.971l-23.689-47.851
				c-4.821-9.739-0.82-21.588,8.918-26.411l104.822-51.89c2.746-1.359,5.686-2.049,8.735-2.049c7.553,0,14.326,4.202,17.676,10.968
				l23.689,47.854c2.336,4.722,2.693,10.067,1.01,15.054c-1.686,4.99-5.213,9.024-9.934,11.358l-104.817,51.889
				C163.482,181.237,160.543,181.927,157.494,181.927z M238.604,56.756c-0.876,0-1.726,0.2-2.523,0.596L131.259,109.24
				c-2.821,1.397-3.981,4.832-2.584,7.654l23.688,47.85c0.972,1.963,2.938,3.183,5.13,3.183c0.875,0,1.724-0.2,2.522-0.596
				l104.821-51.89c1.368-0.677,2.39-1.845,2.877-3.289c0.488-1.446,0.384-2.997-0.293-4.366l-23.688-47.851
				C242.762,57.975,240.797,56.756,238.604,56.756z"/>
		</g>
	</g>
	<path fill-rule="evenodd" clip-rule="evenodd" fill="#A2ACBE" d="M301.156,563.615v-0.055h-0.053
		c-2.43-2.482-5.389-4.438-8.717-5.81c-3.171-1.321-6.657-2.061-10.251-2.061c-3.592,0-7.026,0.739-10.249,2.061
		c-3.275,1.372-6.234,3.327-8.718,5.81v0.055c-2.482,2.482-4.491,5.388-5.813,8.664v0.055c-1.32,3.167-2.06,6.654-2.06,10.248
		c0,3.593,0.739,7.025,2.06,10.251c1.321,3.276,3.33,6.232,5.813,8.715c2.483,2.487,5.442,4.493,8.718,5.813
		c3.223,1.322,6.657,2.061,10.249,2.061c3.594,0,7.08-0.738,10.251-2.061h0.053c3.223-1.32,6.182-3.326,8.664-5.813h0.053
		c2.483-2.482,4.438-5.438,5.812-8.715c1.322-3.226,2.061-6.658,2.061-10.251c0-3.594-0.738-7.081-2.061-10.248
		C305.594,569.003,303.64,566.043,301.156,563.615z M293.231,587.18c-0.634,1.427-1.479,2.744-2.589,3.855h-0.053
		c-1.057,1.109-2.377,2.009-3.856,2.588c-1.375,0.582-2.906,0.899-4.598,0.899c-1.637,0-3.17-0.317-4.543-0.899
		c-1.479-0.579-2.8-1.479-3.909-2.588c-1.109-1.111-2.008-2.429-2.59-3.91c-0.58-1.373-0.898-2.905-0.898-4.543
		c0-1.689,0.318-3.222,0.898-4.598c0.582-1.479,1.48-2.8,2.59-3.855v-0.055c1.109-1.106,2.43-1.955,3.856-2.588
		c1.372-0.579,2.959-0.896,4.596-0.896c1.691,0,3.223,0.317,4.598,0.896c1.479,0.633,2.747,1.481,3.856,2.588l0.053,0.055
		c1.109,1.056,1.955,2.377,2.589,3.855c0.581,1.376,0.897,2.908,0.897,4.598C294.129,584.22,293.813,585.804,293.231,587.18z"/>
	<path fill-rule="evenodd" clip-rule="evenodd" fill="#A2ACBE" d="M160.406,563.615v-0.055c-2.485-2.482-5.443-4.438-8.718-5.81
		c-3.223-1.321-6.657-2.061-10.25-2.061s-7.079,0.739-10.25,2.061c-3.276,1.372-6.234,3.327-8.717,5.81l-0.054,0.055
		c-2.483,2.482-4.438,5.388-5.811,8.664v0.055c-1.322,3.167-2.061,6.654-2.061,10.248c0,3.593,0.739,7.025,2.061,10.251
		c1.373,3.276,3.328,6.232,5.811,8.715h0.054c2.482,2.487,5.441,4.493,8.664,5.813h0.053c3.171,1.322,6.657,2.061,10.25,2.061
		s7.027-0.738,10.25-2.061c3.275-1.32,6.233-3.326,8.718-5.813c2.482-2.482,4.49-5.438,5.812-8.715
		c1.373-3.226,2.061-6.658,2.061-10.251c0-3.594-0.688-7.081-2.061-10.248C164.896,569.003,162.888,566.043,160.406,563.615z
		 M152.48,587.18c-0.581,1.427-1.479,2.744-2.589,3.855c-1.109,1.109-2.43,2.009-3.91,2.588c-1.373,0.582-2.905,0.899-4.543,0.899
		s-3.224-0.317-4.597-0.899c-1.479-0.579-2.801-1.479-3.857-2.588h-0.053c-1.057-1.111-1.954-2.429-2.588-3.91
		c-0.582-1.373-0.846-2.905-0.846-4.543c0-1.689,0.264-3.222,0.846-4.598c0.634-1.479,1.531-2.8,2.588-3.855l0.053-0.055
		c1.109-1.106,2.378-1.955,3.857-2.588c1.373-0.579,2.906-0.896,4.597-0.896c1.638,0,3.222,0.317,4.596,0.896
		c1.427,0.633,2.748,1.481,3.857,2.588v0.055c1.109,1.056,2.008,2.377,2.589,3.855c0.581,1.376,0.898,2.908,0.898,4.598
		C153.379,584.22,153.062,585.804,152.48,587.18z"/>
	<path fill-rule="evenodd" clip-rule="evenodd" fill="#A2ACBE" d="M336.555,360.678c-1.85-0.582-3.75-0.95-5.6-0.95H86.778
		L67.84,299.811v-0.051c-1.215-3.859-2.959-7.659-5.601-10.674c-3.223-3.698-7.449-6.076-13.05-6.076H41.37H9.353H7.45
		c-4.068,0-7.45,3.332-7.45,7.452c0,4.066,3.382,7.448,7.45,7.448h1.902H41.37h5.812c4.491-0.055,6.446,6.342,6.499,6.342
		l60.495,191.463v21.883c0,7.182,2.958,13.734,7.661,18.489c4.755,4.703,11.306,7.663,18.492,7.663h7.872h39.785h47.974h38.834
		h36.561c4.121,0,7.449-3.331,7.449-7.452s-3.328-7.448-7.449-7.448h-36.561h-38.834h-47.974h-47.657
		c-3.065,0-5.864-1.267-7.924-3.327c-2.061-2.01-3.329-4.864-3.329-7.925v-12.959c1.047-0.299,2.149-0.464,3.276-0.464h15.691
		h158.715c5.126,0,8.876-2.111,11.782-5.493c2.324-2.643,3.805-5.919,4.914-9.246l24.197-110.318
		c0.475-1.373,0.635-2.694,0.635-4.016c0-3.699-1.586-7.026-4.016-9.614C342.209,363.321,339.461,361.628,336.555,360.678z
		 M332.645,377.111l-23.352,107.726c-1.32,4.121-1.162,4.438-4.966,4.438H148.042h-15.691h-0.211h-4.414L91.504,374.679h239.451
		C333.227,374.679,333.227,375.313,332.645,377.111z"/>
	<circle fill-rule="evenodd" clip-rule="evenodd" fill="#A2ACBE" cx="293.719" cy="203.53" r="18.055"/>
	<circle fill-rule="evenodd" clip-rule="evenodd" fill="#A2ACBE" cx="282.163" cy="16.104" r="16.104"/>
	<circle fill-rule="evenodd" clip-rule="evenodd" fill="#A2ACBE" cx="64.783" cy="171.343" r="18.054"/>
	<g>
		<path fill="#A2ACBE" d="M352.955,163.266c-28.08,0-50.926-22.845-50.926-50.925s22.846-50.925,50.926-50.925
			c28.082,0,50.928,22.845,50.928,50.925S381.037,163.266,352.955,163.266z M352.955,75.416c-20.361,0-36.926,16.564-36.926,36.925
			s16.564,36.925,36.926,36.925s36.928-16.564,36.928-36.925S373.316,75.416,352.955,75.416z"/>
	</g>
</g>
</svg>
