<svg width="223" height="31" viewBox="0 0 223 31" fill="none" xmlns="http://www.w3.org/2000/svg">
<path d="M0.120117 30V1.67996H11.1601C13.5601 1.67996 15.6001 2.26663 17.2801 3.43996C18.9868 4.61329 19.8401 6.39996 19.8401 8.79996C19.8401 10.3466 19.4001 11.6533 18.5201 12.72C17.6401 13.7866 16.4401 14.5466 14.9201 15V15.08C16.7601 15.32 18.2401 16.0266 19.3601 17.2C20.4801 18.3733 21.0401 19.8933 21.0401 21.76C21.0401 23.2266 20.7335 24.52 20.1201 25.64C19.5335 26.7333 18.7201 27.5866 17.6801 28.2C16.6401 28.8133 15.5068 29.2666 14.2801 29.56C13.0535 29.8533 11.7335 30 10.3201 30H0.120117ZM5.16012 5.83996V13.2H9.64012C11.3201 13.2 12.6001 12.8666 13.4801 12.2C14.3601 11.5333 14.8001 10.5866 14.8001 9.35996C14.8001 8.10663 14.3468 7.21329 13.4401 6.67996C12.5335 6.11996 11.1201 5.83996 9.20012 5.83996H5.16012ZM5.16012 17.52V25.76H9.68012C13.8935 25.76 16.0001 24.3466 16.0001 21.52C16.0001 20.08 15.5068 19.0533 14.5201 18.44C13.5335 17.8266 11.9868 17.52 9.88012 17.52H5.16012Z" fill="#D7D7D7"/>
<path d="M48.5786 1.67996V19.6C48.5786 22.96 47.4986 25.6533 45.3386 27.68C43.2052 29.7066 40.4852 30.72 37.1786 30.72C33.8719 30.72 31.1386 29.7066 28.9786 27.68C26.8452 25.6533 25.7786 22.96 25.7786 19.6V1.67996H30.8186V19.4C30.8186 21.2933 31.3252 22.9066 32.3386 24.24C33.3519 25.5466 34.9652 26.2 37.1786 26.2C39.3919 26.2 41.0052 25.5466 42.0186 24.24C43.0319 22.9066 43.5386 21.2933 43.5386 19.4V1.67996H48.5786Z" fill="#D7D7D7"/>
<path d="M61.4132 30V17.72L50.7732 1.67996H56.9332L64.0532 13.6L71.2532 1.67996H77.0932L66.4532 17.72V30H61.4132Z" fill="#D7D7D7"/>
<path d="M96.5195 30V7.51996L90.9195 12.12L88.1195 8.79996L96.9595 1.67996H101.319V30H96.5195Z" fill="#D7D7D7"/>
<path d="M147.694 13.84V28.52C144.627 29.9866 141.067 30.72 137.014 30.72C132.454 30.72 128.734 29.3333 125.854 26.56C122.974 23.7866 121.534 20.1866 121.534 15.76C121.534 11.3066 122.974 7.73329 125.854 5.03996C128.76 2.31996 132.44 0.959961 136.894 0.959961C139.08 0.959961 141.12 1.27996 143.014 1.91996C144.934 2.55996 146.48 3.42663 147.654 4.51996L144.174 8.27996C143.427 7.4533 142.4 6.77329 141.094 6.23996C139.787 5.67996 138.4 5.39996 136.934 5.39996C134 5.39996 131.627 6.38663 129.814 8.35996C128 10.3333 127.094 12.8 127.094 15.76C127.094 18.8266 128 21.3333 129.814 23.28C131.654 25.2266 134.107 26.2 137.174 26.2C139.334 26.2 141.214 25.8666 142.814 25.2V18H136.854V13.84H147.694Z" fill="#D7D7D7"/>
<path d="M153.831 30V1.67996H172.591V6.07996H158.871V13.28H171.871V17.52H158.871V25.52H173.311V30H153.831Z" fill="#D7D7D7"/>
<path d="M183.965 30V6.07996H175.285V1.67996H197.685V6.07996H189.005V30H183.965Z" fill="#D7D7D7"/>
<path d="M218.043 30V7.51996L212.443 12.12L209.643 8.79996L218.483 1.67996H222.843V30H218.043Z" fill="#D7D7D7"/>
</svg>
