<svg width="237" height="30" viewBox="0 0 237 30" fill="none" xmlns="http://www.w3.org/2000/svg">
<path d="M0.867188 0.445312H9.75391C13.556 0.445312 16.4336 0.979167 18.3867 2.04688C20.3398 3.11458 21.3164 4.98958 21.3164 7.67188C21.3164 8.7526 21.1406 9.72917 20.7891 10.6016C20.4505 11.474 19.9557 12.1901 19.3047 12.75C18.6536 13.3099 17.8594 13.6745 16.9219 13.8438V14.0391C17.8724 14.2344 18.7318 14.5729 19.5 15.0547C20.2682 15.5234 20.8802 16.2135 21.3359 17.125C21.8047 18.0234 22.0391 19.2214 22.0391 20.7188C22.0391 22.4505 21.6159 23.9349 20.7695 25.1719C19.9232 26.4089 18.7122 27.3594 17.1367 28.0234C15.5742 28.6745 13.7122 29 11.5508 29H0.867188V0.445312ZM6.92188 11.7539H10.4375C12.1953 11.7539 13.4128 11.4805 14.0898 10.9336C14.7669 10.3737 15.1055 9.55339 15.1055 8.47266C15.1055 7.37891 14.7018 6.59766 13.8945 6.12891C13.1003 5.64714 11.8372 5.40625 10.1055 5.40625H6.92188V11.7539ZM6.92188 16.5586V24H10.8672C12.6901 24 13.9596 23.6484 14.6758 22.9453C15.3919 22.2422 15.75 21.2982 15.75 20.1133C15.75 19.4102 15.5938 18.7917 15.2812 18.2578C14.9688 17.724 14.4414 17.3073 13.6992 17.0078C12.9701 16.7083 11.9609 16.5586 10.6719 16.5586H6.92188Z" fill="#D7D7D7"/>
<path d="M50.9844 0.445312V18.9219C50.9844 20.888 50.5482 22.6654 49.6758 24.2539C48.8164 25.8294 47.5078 27.0794 45.75 28.0039C44.0052 28.9284 41.8047 29.3906 39.1484 29.3906C35.3724 29.3906 32.4948 28.4271 30.5156 26.5C28.5365 24.5729 27.5469 22.0208 27.5469 18.8438V0.445312H33.582V17.9258C33.582 20.2826 34.0638 21.9362 35.0273 22.8867C35.9909 23.8372 37.4167 24.3125 39.3047 24.3125C40.6328 24.3125 41.707 24.0846 42.5273 23.6289C43.3607 23.1732 43.9727 22.4701 44.3633 21.5195C44.7539 20.569 44.9492 19.3581 44.9492 17.8867V0.445312H50.9844Z" fill="#D7D7D7"/>
<path d="M66.8633 12.2031L72.8203 0.445312H79.3438L69.8711 17.8867V29H63.8555V18.082L54.3828 0.445312H60.9453L66.8633 12.2031Z" fill="#D7D7D7"/>
<path d="M116.414 29H109.5L102.859 18.1992L96.2188 29H89.7344L99.207 14.2734L90.3398 0.445312H97.0195L103.172 10.7188L109.207 0.445312H115.73L106.766 14.6055L116.414 29Z" fill="#D7D7D7"/>
<path d="M141.238 12.9648H152.566V27.7695C151.069 28.2643 149.513 28.6615 147.898 28.9609C146.284 29.2474 144.454 29.3906 142.41 29.3906C139.572 29.3906 137.163 28.8307 135.184 27.7109C133.204 26.5911 131.701 24.9375 130.672 22.75C129.643 20.5625 129.129 17.8737 129.129 14.6836C129.129 11.6888 129.702 9.09766 130.848 6.91016C132.007 4.72266 133.693 3.02995 135.906 1.83203C138.133 0.634115 140.848 0.0351562 144.051 0.0351562C145.561 0.0351562 147.052 0.197917 148.523 0.523438C149.995 0.848958 151.329 1.27214 152.527 1.79297L150.516 6.63672C149.643 6.19401 148.647 5.82292 147.527 5.52344C146.408 5.22396 145.236 5.07422 144.012 5.07422C142.254 5.07422 140.724 5.47786 139.422 6.28516C138.133 7.09245 137.13 8.22526 136.414 9.68359C135.711 11.1289 135.359 12.8346 135.359 14.8008C135.359 16.6628 135.613 18.3164 136.121 19.7617C136.629 21.194 137.43 22.3203 138.523 23.1406C139.617 23.9479 141.043 24.3516 142.801 24.3516C143.66 24.3516 144.383 24.3125 144.969 24.2344C145.568 24.1432 146.128 24.0521 146.648 23.9609V18.0039H141.238V12.9648Z" fill="#D7D7D7"/>
<path d="M175.828 29H159.383V0.445312H175.828V5.40625H165.438V11.6758H175.105V16.6367H165.438V24H175.828V29Z" fill="#D7D7D7"/>
<path d="M192.82 29H186.766V5.48438H179.012V0.445312H200.574V5.48438H192.82V29Z" fill="#D7D7D7"/>
<path d="M224.246 12.2031L230.203 0.445312H236.727L227.254 17.8867V29H221.238V18.082L211.766 0.445312H218.328L224.246 12.2031Z" fill="#D7D7D7"/>
</svg>
