<svg width="287" height="31" viewBox="0 0 287 31" fill="none" xmlns="http://www.w3.org/2000/svg">
<path d="M0.120117 30.0009V1.68094H18.4001V6.08094H5.16012V13.8409H17.6401V18.0809H5.16012V30.0009H0.120117Z" fill="#D7D7D7"/>
<path d="M23.0498 30.0009V1.68094H32.8898C34.7831 1.68094 36.4765 1.93427 37.9698 2.44094C39.4898 2.92094 40.7565 3.80094 41.7698 5.08094C42.8098 6.33427 43.3298 7.9076 43.3298 9.80094C43.3298 11.8009 42.7565 13.4676 41.6098 14.8009C40.4631 16.1076 38.8765 16.9876 36.8498 17.4409L44.4098 30.0009H38.3298L31.7698 18.0009H28.0898V30.0009H23.0498ZM28.0898 13.8809H32.2098C36.2631 13.8809 38.2898 12.5076 38.2898 9.76094C38.2898 8.37427 37.7431 7.3876 36.6498 6.80094C35.5565 6.21427 34.2231 5.92094 32.6498 5.92094H28.0898V13.8809Z" fill="#D7D7D7"/>
<path d="M48.2061 30.0009V1.68094H66.9661V6.08094H53.2461V13.2809H66.2461V17.5209H53.2461V25.5209H67.6861V30.0009H48.2061Z" fill="#D7D7D7"/>
<path d="M72.6201 30.0009V1.68094H91.3801V6.08094H77.6601V13.2809H90.6601V17.5209H77.6601V25.5209H92.1001V30.0009H72.6201Z" fill="#D7D7D7"/>
<path d="M124.754 4.00094L121.474 7.60094C120.941 6.88094 120.181 6.29427 119.194 5.84094C118.234 5.3876 117.261 5.16094 116.274 5.16094C114.968 5.16094 113.808 5.49427 112.794 6.16094C111.781 6.80094 111.274 7.76094 111.274 9.04094C111.274 9.68094 111.381 10.2276 111.594 10.6809C111.834 11.1076 112.234 11.4943 112.794 11.8409C113.381 12.1876 113.928 12.4543 114.434 12.6409C114.941 12.8276 115.688 13.0809 116.674 13.4009C117.608 13.6943 118.368 13.9476 118.954 14.1609C119.568 14.3743 120.288 14.7209 121.114 15.2009C121.968 15.6543 122.634 16.1476 123.114 16.6809C123.621 17.2143 124.048 17.9209 124.394 18.8009C124.768 19.6543 124.954 20.6143 124.954 21.6809C124.954 24.5876 123.968 26.8276 121.994 28.4009C120.048 29.9476 117.594 30.7209 114.634 30.7209C112.741 30.7209 110.914 30.3743 109.154 29.6809C107.421 28.9609 106.008 27.9609 104.914 26.6809L108.514 23.3209C109.208 24.2543 110.128 25.0143 111.274 25.6009C112.421 26.1609 113.568 26.4409 114.714 26.4409C116.074 26.4409 117.261 26.0943 118.274 25.4009C119.314 24.7076 119.834 23.6543 119.834 22.2409C119.834 21.7609 119.768 21.3343 119.634 20.9609C119.501 20.5609 119.248 20.2009 118.874 19.8809C118.528 19.5609 118.221 19.3076 117.954 19.1209C117.688 18.9076 117.208 18.6809 116.514 18.4409C115.848 18.1743 115.368 17.9876 115.074 17.8809C114.781 17.7743 114.194 17.5876 113.314 17.3209C112.301 17.0009 111.434 16.6676 110.714 16.3209C109.994 15.9743 109.248 15.5076 108.474 14.9209C107.728 14.3076 107.154 13.5343 106.754 12.6009C106.354 11.6409 106.154 10.5343 106.154 9.28094C106.154 6.5876 107.168 4.53427 109.194 3.12094C111.248 1.68094 113.688 0.960938 116.514 0.960938C118.008 0.960938 119.488 1.2276 120.954 1.76094C122.448 2.2676 123.714 3.01427 124.754 4.00094Z" fill="#D7D7D7"/>
<path d="M130.003 30.0009V1.68094H135.043V13.1209H148.283V1.68094H153.323V30.0009H148.283V17.4409H135.043V30.0009H130.003Z" fill="#D7D7D7"/>
<path d="M159.573 30.0009V1.68094H164.613V30.0009H159.573Z" fill="#D7D7D7"/>
<path d="M170.862 30.0009V1.68094H180.102C187.222 1.68094 190.782 4.41427 190.782 9.88094C190.782 12.8143 189.769 14.9476 187.742 16.2809C185.716 17.6143 183.062 18.2809 179.782 18.2809H175.902V30.0009H170.862ZM175.902 14.0409H179.422C183.609 14.0409 185.702 12.6543 185.702 9.88094C185.702 8.36094 185.142 7.32094 184.022 6.76094C182.929 6.20094 181.449 5.92094 179.582 5.92094H175.902V14.0409Z" fill="#D7D7D7"/>
<path d="M195.276 30.0009V1.68094H204.516C211.636 1.68094 215.196 4.41427 215.196 9.88094C215.196 12.8143 214.183 14.9476 212.156 16.2809C210.13 17.6143 207.476 18.2809 204.196 18.2809H200.316V30.0009H195.276ZM200.316 14.0409H203.836C208.023 14.0409 210.116 12.6543 210.116 9.88094C210.116 8.36094 209.556 7.32094 208.436 6.76094C207.343 6.20094 205.863 5.92094 203.996 5.92094H200.316V14.0409Z" fill="#D7D7D7"/>
<path d="M219.69 30.0009V1.68094H224.73V30.0009H219.69Z" fill="#D7D7D7"/>
<path d="M230.979 30.0009V1.68094H237.66L250.82 22.8809H250.9V1.68094H255.939V30.0009H249.54L236.1 8.12094H236.02V30.0009H230.979Z" fill="#D7D7D7"/>
<path d="M286.99 13.8409V28.5209C283.924 29.9876 280.364 30.7209 276.31 30.7209C271.75 30.7209 268.03 29.3343 265.15 26.5609C262.27 23.7876 260.83 20.1876 260.83 15.7609C260.83 11.3076 262.27 7.73427 265.15 5.04094C268.057 2.32094 271.737 0.960938 276.19 0.960938C278.377 0.960938 280.417 1.28094 282.31 1.92094C284.23 2.56094 285.777 3.4276 286.95 4.52094L283.47 8.28094C282.724 7.45427 281.697 6.77427 280.39 6.24094C279.084 5.68094 277.697 5.40094 276.23 5.40094C273.297 5.40094 270.924 6.38761 269.11 8.36094C267.297 10.3343 266.39 12.8009 266.39 15.7609C266.39 18.8276 267.297 21.3343 269.11 23.2809C270.95 25.2276 273.404 26.2009 276.47 26.2009C278.63 26.2009 280.51 25.8676 282.11 25.2009V18.0009H276.15V13.8409H286.99Z" fill="#D7D7D7"/>
</svg>
