<svg width="206" height="31" viewBox="0 0 206 31" fill="none" xmlns="http://www.w3.org/2000/svg">
<path d="M0.120117 30V1.67996H10.1601C12.1335 1.67996 14.0001 1.93329 15.7601 2.43996C17.5201 2.91996 19.1735 3.69329 20.7201 4.75996C22.2668 5.79996 23.4935 7.27996 24.4001 9.19996C25.3335 11.0933 25.8001 13.3066 25.8001 15.84C25.8001 18.2133 25.3335 20.3333 24.4001 22.2C23.4935 24.0666 22.2668 25.56 20.7201 26.68C19.2001 27.7733 17.5335 28.6 15.7201 29.16C13.9335 29.72 12.0801 30 10.1601 30H0.120117ZM5.16012 25.6H9.36012C10.4535 25.6 11.4935 25.5066 12.4801 25.32C13.4935 25.1333 14.4935 24.8133 15.4801 24.36C16.4668 23.88 17.3068 23.2933 18.0001 22.6C18.7201 21.88 19.2935 20.9466 19.7201 19.8C20.1735 18.6266 20.4001 17.3066 20.4001 15.84C20.4001 9.27996 16.7201 5.99996 9.36012 5.99996H5.16012V25.6Z" fill="#D7D7D7"/>
<path d="M30.667 30V1.67996H35.707V30H30.667Z" fill="#D7D7D7"/>
<path d="M59.6761 3.99996L56.3961 7.59996C55.8627 6.87996 55.1027 6.29329 54.1161 5.83996C53.1561 5.38663 52.1827 5.15996 51.1961 5.15996C49.8894 5.15996 48.7294 5.49329 47.7161 6.15996C46.7027 6.79996 46.1961 7.75996 46.1961 9.03996C46.1961 9.67996 46.3027 10.2266 46.5161 10.68C46.7561 11.1066 47.1561 11.4933 47.7161 11.84C48.3027 12.1866 48.8494 12.4533 49.3561 12.64C49.8627 12.8266 50.6094 13.08 51.5961 13.4C52.5294 13.6933 53.2894 13.9466 53.8761 14.16C54.4894 14.3733 55.2094 14.72 56.0361 15.2C56.8894 15.6533 57.5561 16.1466 58.0361 16.68C58.5427 17.2133 58.9694 17.92 59.3161 18.8C59.6894 19.6533 59.8761 20.6133 59.8761 21.68C59.8761 24.5866 58.8894 26.8266 56.9161 28.4C54.9694 29.9466 52.5161 30.72 49.5561 30.72C47.6627 30.72 45.8361 30.3733 44.0761 29.68C42.3427 28.96 40.9294 27.96 39.8361 26.68L43.4361 23.32C44.1294 24.2533 45.0494 25.0133 46.1961 25.6C47.3427 26.16 48.4894 26.44 49.6361 26.44C50.9961 26.44 52.1827 26.0933 53.1961 25.4C54.2361 24.7066 54.7561 23.6533 54.7561 22.24C54.7561 21.76 54.6894 21.3333 54.5561 20.96C54.4227 20.56 54.1694 20.2 53.7961 19.88C53.4494 19.56 53.1427 19.3066 52.8761 19.12C52.6094 18.9066 52.1294 18.68 51.4361 18.44C50.7694 18.1733 50.2894 17.9866 49.9961 17.88C49.7027 17.7733 49.1161 17.5866 48.2361 17.32C47.2227 17 46.3561 16.6666 45.6361 16.32C44.9161 15.9733 44.1694 15.5066 43.3961 14.92C42.6494 14.3066 42.0761 13.5333 41.6761 12.6C41.2761 11.64 41.0761 10.5333 41.0761 9.27996C41.0761 6.58663 42.0894 4.53329 44.1161 3.11996C46.1694 1.67996 48.6094 0.959961 51.4361 0.959961C52.9294 0.959961 54.4094 1.22663 55.8761 1.75996C57.3694 2.26663 58.6361 3.01329 59.6761 3.99996Z" fill="#D7D7D7"/>
<path d="M89.2048 5.27996L85.3648 8.31996C84.6715 7.35996 83.7248 6.63996 82.5248 6.15996C81.3515 5.6533 80.1515 5.39996 78.9248 5.39996C76.0448 5.39996 73.6848 6.38663 71.8448 8.35996C70.0315 10.3333 69.1248 12.8 69.1248 15.76C69.1248 18.8533 69.9915 21.3733 71.7248 23.32C73.4848 25.24 75.8181 26.2 78.7248 26.2C81.7115 26.2 84.0048 25.1066 85.6048 22.92L89.6448 25.76C87.0048 29.0666 83.3515 30.72 78.6848 30.72C74.2581 30.72 70.6315 29.3333 67.8048 26.56C64.9781 23.76 63.5648 20.16 63.5648 15.76C63.5648 11.3066 65.0048 7.73329 67.8848 5.03996C70.7915 2.31996 74.4715 0.959961 78.9248 0.959961C80.8981 0.959961 82.8315 1.3333 84.7248 2.07996C86.6448 2.79996 88.1381 3.86663 89.2048 5.27996Z" fill="#D7D7D7"/>
<path d="M90.9476 15.76C90.9476 11.28 92.3609 7.69329 95.1876 4.99996C98.0409 2.30663 101.681 0.959961 106.108 0.959961C110.588 0.959961 114.254 2.30663 117.108 4.99996C119.961 7.69329 121.388 11.28 121.388 15.76C121.388 20.16 119.948 23.76 117.068 26.56C114.214 29.3333 110.561 30.72 106.108 30.72C101.708 30.72 98.0809 29.3333 95.2276 26.56C92.3743 23.76 90.9476 20.16 90.9476 15.76ZM96.4276 15.76C96.4276 18.8 97.3343 21.3066 99.1476 23.28C100.961 25.2266 103.294 26.2 106.148 26.2C109.028 26.2 111.374 25.2266 113.188 23.28C115.001 21.3066 115.908 18.8 115.908 15.76C115.908 12.8 115.001 10.3333 113.188 8.35996C111.401 6.38663 109.054 5.39996 106.148 5.39996C103.268 5.39996 100.921 6.38663 99.1076 8.35996C97.3209 10.3333 96.4276 12.8 96.4276 15.76Z" fill="#D7D7D7"/>
<path d="M148.813 1.67996V19.6C148.813 22.96 147.733 25.6533 145.573 27.68C143.44 29.7066 140.72 30.72 137.413 30.72C134.106 30.72 131.373 29.7066 129.213 27.68C127.08 25.6533 126.013 22.96 126.013 19.6V1.67996H131.053V19.4C131.053 21.2933 131.56 22.9066 132.573 24.24C133.586 25.5466 135.2 26.2 137.413 26.2C139.626 26.2 141.24 25.5466 142.253 24.24C143.266 22.9066 143.773 21.2933 143.773 19.4V1.67996H148.813Z" fill="#D7D7D7"/>
<path d="M154.808 30V1.67996H161.488L174.648 22.88H174.728V1.67996H179.768V30H173.368L159.928 8.11996H159.848V30H154.808Z" fill="#D7D7D7"/>
<path d="M191.739 30V6.07996H183.059V1.67996H205.459V6.07996H196.779V30H191.739Z" fill="#D7D7D7"/>
</svg>
