<svg width="101" height="46" viewBox="0 0 101 46" fill="none" xmlns="http://www.w3.org/2000/svg">
<path d="M11.7204 24.7399V18.9799H13.6404C19.6804 18.9799 22.7004 16.8399 22.7004 12.5599C22.7004 10.7199 22.0404 9.23994 20.7204 8.11994C19.4404 6.99994 17.8604 6.43994 15.9804 6.43994C14.2604 6.43994 12.8004 6.93994 11.6004 7.93994C10.4404 8.93994 9.64035 10.2599 9.20035 11.8999L2.42035 10.1599C3.18035 7.27994 4.84035 4.93994 7.40035 3.13994C9.96035 1.33994 12.9204 0.439941 16.2804 0.439941C20.2004 0.439941 23.4604 1.45994 26.0604 3.49994C28.6604 5.53994 29.9604 8.39994 29.9604 12.0799C29.9604 14.3599 29.2604 16.3999 27.8604 18.1999C26.4604 19.9599 24.6204 21.1199 22.3404 21.6799V21.7999C24.9404 22.3199 27.0404 23.4999 28.6404 25.3399C30.2804 27.1799 31.1004 29.3999 31.1004 31.9999C31.1004 36.1199 29.6204 39.3399 26.6604 41.6599C23.7004 43.9399 20.2404 45.0799 16.2804 45.0799C12.5204 45.0799 9.28035 44.2599 6.56035 42.6199C3.84035 40.9799 1.94035 38.4599 0.860352 35.0599L7.58035 32.9599C8.10035 34.7199 9.10035 36.1599 10.5804 37.2799C12.0604 38.3999 13.8804 38.9599 16.0404 38.9599C18.1604 38.9599 19.9804 38.3799 21.5004 37.2199C23.0604 36.0599 23.8404 34.2999 23.8404 31.9399C23.8404 30.2199 23.2604 28.7999 22.1004 27.6799C20.9804 26.5199 19.6804 25.7399 18.2004 25.3399C16.7604 24.9399 15.2004 24.7399 13.5204 24.7399H11.7204Z" fill="#D7D7D7"/>
<path d="M35.5614 43.9999L47.2614 28.6999L36.8814 15.1999H45.5214L51.7614 24.1399L58.1814 15.1999H66.4614L56.1414 28.6999L67.9015 43.9999H59.1414L51.6414 33.4999L44.0814 43.9999H35.5614Z" fill="#D7D7D7"/>
<path d="M71.988 43.9999V37.3999L88.368 21.3199C91.248 18.5199 92.688 15.7399 92.688 12.9799C92.688 11.0199 92.048 9.43994 90.768 8.23994C89.488 7.03994 87.868 6.43994 85.908 6.43994C83.908 6.43994 82.268 7.11994 80.988 8.47994C79.748 9.79994 78.988 11.5399 78.708 13.6999L71.688 12.6199C72.128 9.05994 73.668 6.13994 76.308 3.85994C78.948 1.57994 82.188 0.439941 86.028 0.439941C89.948 0.439941 93.288 1.53994 96.048 3.73994C98.808 5.93994 100.188 8.97994 100.188 12.8599C100.188 15.3799 99.588 17.6399 98.388 19.6399C97.228 21.5999 95.548 23.6199 93.348 25.6999L81.108 37.3999H100.248V43.9999H71.988Z" fill="#D7D7D7"/>
</svg>
